<?xml version="1.0" encoding="UTF-8"?>
<svg version="1.1" xmlns="http://www.w3.org/2000/svg" width="279" height="368">
<path d="M0 0 C14.06506778 12.02233479 21.80173517 28.54943637 23.48828125 46.890625 C24.19052895 68.92364643 13.26586229 85.81016291 1.03735352 103.00390625 C-2.84611057 108.46583381 -6.64765117 113.97900698 -10.41796875 119.51953125 C-14.641916 125.72370802 -18.92518143 131.8749177 -23.32543945 137.95532227 C-26.69630485 142.63318713 -29.82783588 147.43388159 -32.90625 152.30859375 C-35.85580283 156.25354432 -38.31641158 158.5904128 -43.23046875 159.39453125 C-47.71029103 158.68719089 -49.92693616 157.1934275 -52.79296875 153.83203125 C-54.81938889 151.00559275 -56.71961835 148.1200037 -58.6015625 145.1953125 C-60.82550792 141.74199988 -63.19919541 138.40990633 -65.60546875 135.08203125 C-68.36312806 131.26187152 -71.08536776 127.42391429 -73.734375 123.52734375 C-74.22381592 122.80772461 -74.71325684 122.08810547 -75.2175293 121.34667969 C-76.16157402 119.95405085 -77.1020363 118.55898455 -78.03833008 117.16113281 C-80.37746706 113.71196345 -82.69944346 110.66656372 -85.79296875 107.83203125 C-86.12296875 108.49203125 -86.45296875 109.15203125 -86.79296875 109.83203125 C-86.48383545 108.93822754 -86.48383545 108.93822754 -86.16845703 108.02636719 C-85.48899427 105.53779175 -85.48899427 105.53779175 -87.78515625 102.72265625 C-88.73722386 101.50214344 -89.69884341 100.28904423 -90.66796875 99.08203125 C-100.02401335 86.86250651 -109.86562482 72.92187224 -108.79296875 56.83203125 C-109.78296875 56.83203125 -110.77296875 56.83203125 -111.79296875 56.83203125 C-111.64601563 56.33960937 -111.4990625 55.8471875 -111.34765625 55.33984375 C-110.73175671 52.55528386 -110.43464242 49.77926391 -110.14770508 46.94433594 C-108.36265146 29.56045563 -102.4208202 12.44597618 -88.4375 1.01171875 C-81.09785939 -4.72342008 -73.76754719 -9.42305587 -64.79296875 -12.16796875 C-64.13989746 -12.37035156 -63.48682617 -12.57273438 -62.81396484 -12.78125 C-40.27566487 -19.50509882 -18.55239385 -14.40080921 0 0 Z M-53.04296875 11.26953125 C-54.1 11.53636719 -55.15703125 11.80320312 -56.24609375 12.078125 C-58.70595095 12.58590634 -58.70595095 12.58590634 -59.79296875 13.83203125 C-60.54835938 14.12207031 -61.30375 14.41210938 -62.08203125 14.7109375 C-70.92799909 18.36914034 -76.68406052 25.38037449 -80.79296875 33.83203125 C-84.86923877 45.19046337 -84.79577116 55.46285482 -80.79296875 66.83203125 C-75.45167844 77.8848003 -66.18933634 84.91488695 -54.87109375 89.0546875 C-50.32562644 90.20259105 -46.27599049 90.21142256 -41.79296875 88.83203125 C-41.79296875 89.16203125 -41.79296875 89.49203125 -41.79296875 89.83203125 C-28.79450822 89.28929803 -19.35477674 83.97356791 -10.48046875 74.51953125 C-3.2475126 65.65915996 -2.16742551 54.82034734 -2.79296875 43.83203125 C-4.37471628 33.45634794 -10.61296703 24.92248721 -18.625 18.3671875 C-25.00018173 13.85286963 -30.98561986 11.26577285 -38.79296875 10.83203125 C-38.29796875 11.82203125 -38.29796875 11.82203125 -37.79296875 12.83203125 C-38.34984375 12.33703125 -38.90671875 11.84203125 -39.48046875 11.33203125 C-43.85124456 8.49693342 -48.24317218 10.03411563 -53.04296875 11.26953125 Z " fill="#E7E7E7" transform="translate(186.79296875,62.16796875)"/>
<path d="M0 0 C3.96 0 7.92 0 12 0 C15.08188154 6.63071482 18.00984933 13.30997745 20.8125 20.0625 C21.12646729 20.81265381 21.44043457 21.56280762 21.76391602 22.33569336 C24 27.76193209 24 27.76193209 24 30 C24.66 30.33 25.32 30.66 26 31 C25.67 31.66 25.34 32.32 25 33 C25.99 33 26.98 33 28 33 C28.31751221 32.21351074 28.63502441 31.42702148 28.9621582 30.61669922 C30.15111767 27.67498408 31.3422843 24.73417494 32.53491211 21.79394531 C33.04880764 20.52574472 33.56184417 19.25719566 34.07397461 17.98828125 C34.81393354 16.15531579 35.55732896 14.32373883 36.30078125 12.4921875 C36.74591064 11.39245605 37.19104004 10.29272461 37.6496582 9.15966797 C38.98374638 6.0380319 40.45039988 3.01963155 42 0 C45.96 0 49.92 0 54 0 C54.0493664 7.3506573 54.08570374 14.7012185 54.10986328 22.05200195 C54.11993288 24.55364665 54.13358934 27.05527955 54.15087891 29.55688477 C54.17508492 33.14862986 54.18647346 36.7402196 54.1953125 40.33203125 C54.20563507 41.45398392 54.21595764 42.57593658 54.22659302 43.73188782 C54.22681961 45.29316658 54.22681961 45.29316658 54.22705078 46.88598633 C54.231492 47.80309891 54.23593323 48.72021149 54.24050903 49.66511536 C54 52 54 52 52 55 C51.01 55.495 51.01 55.495 50 56 C50 55.34 50 54.68 50 54 C49.030625 53.7525 48.06125 53.505 47.0625 53.25 C46.051875 52.8375 45.04125 52.425 44 52 C42.75392607 48.86239739 42.88457546 45.69981361 42.90234375 42.359375 C42.90556641 41.28945313 42.90878906 40.21953125 42.91210938 39.1171875 C42.92467773 37.45042969 42.92467773 37.45042969 42.9375 35.75 C42.94201172 34.62335938 42.94652344 33.49671875 42.95117188 32.3359375 C42.96294603 29.55723783 42.9793916 26.77864591 43 24 C40.91634547 28.61474939 38.88123306 33.24269349 36.96484375 37.9296875 C36.63033203 38.744375 36.29582031 39.5590625 35.95117188 40.3984375 C35.26661063 42.0709301 34.58704106 43.74547326 33.91210938 45.421875 C33.41227539 46.63230469 33.41227539 46.63230469 32.90234375 47.8671875 C32.60835693 48.59019043 32.31437012 49.31319336 32.01147461 50.05810547 C30.9343256 52.12608597 29.72546998 53.44869359 28 55 C23.20261271 53.18030137 21.78791703 49.73464023 19.74145508 45.22924805 C19.13660278 43.76032104 19.13660278 43.76032104 18.51953125 42.26171875 C18.07802734 41.19501953 17.63652344 40.12832031 17.18164062 39.02929688 C16.72982422 37.92650391 16.27800781 36.82371094 15.8125 35.6875 C15.34908203 34.56537109 14.88566406 33.44324219 14.40820312 32.28710938 C13.26858525 29.52617947 12.13265033 26.7637939 11 24 C11.01160156 24.93199219 11.02320313 25.86398437 11.03515625 26.82421875 C11.09495359 35.272729 10.79517962 43.57961582 10 52 C8.52168779 52.19412181 7.04230684 52.38012131 5.5625 52.5625 C4.32693359 52.71912109 4.32693359 52.71912109 3.06640625 52.87890625 C2.04353516 52.93884766 2.04353516 52.93884766 1 53 C0 52 0 52 -0.12025452 49.90562439 C-0.1169236 48.52329369 -0.1169236 48.52329369 -0.11352539 47.11303711 C-0.11344986 46.07203354 -0.11337433 45.03102997 -0.11329651 43.95848083 C-0.10813522 42.8262056 -0.10297394 41.69393036 -0.09765625 40.52734375 C-0.0962413 39.37456436 -0.09482635 38.22178497 -0.09336853 37.03407288 C-0.08775005 33.33518936 -0.07519442 29.63636536 -0.0625 25.9375 C-0.05748738 23.43684983 -0.05292406 20.93619871 -0.04882812 18.43554688 C-0.03777462 12.29034149 -0.0204976 6.14518085 0 0 Z M43 20 C44 23 44 23 44 23 Z " fill="#DFDFDF" transform="translate(41,262)"/>
<path d="M0 0 C0 0.66 0 1.32 0 2 C0.70125 2.185625 1.4025 2.37125 2.125 2.5625 C7.34374078 5.17187039 10.64145978 9.59596749 12.875 14.9375 C15.14274969 21.99875653 14.41792372 27.36280077 11.19140625 33.89453125 C7.79397816 39.89851073 3.61025027 43.76591939 -3 46 C-4.32 46 -5.64 46 -7 46 C-7.33 46.66 -7.66 47.32 -8 48 C-15.00681662 48.41065592 -21.95772666 45.60166823 -27.265625 41.0625 C-33.41798349 34.23803513 -34.47598939 28.5567692 -34.3046875 19.44921875 C-33.80552763 13.79847302 -32.29860684 10.26747447 -28.26953125 6.29296875 C-19.31865812 -1.0499631 -11.20859118 -1.43788728 0 0 Z " fill="#E8E9E9" transform="translate(154,90)"/>
<path d="M0 0 C3.92102267 3.38633776 5.71271784 5.967897 7 11 C6.34 11 5.68 11 5 11 C5.495 12.485 5.495 12.485 6 14 C5.3597984 15.34624074 4.6903464 16.67877176 4 18 C3.64088781 20.11814317 3.64088781 20.11814317 3.5859375 22.328125 C3.54726562 23.12734375 3.50859375 23.9265625 3.46875 24.75 C3.42234375 25.9875 3.42234375 25.9875 3.375 27.25 C3.33632812 28.09046875 3.29765625 28.9309375 3.2578125 29.796875 C3.16384164 31.86423382 3.08084436 33.93208627 3 36 C1.125 37.0625 1.125 37.0625 -1 38 C-3 37 -3 37 -5.25 34.8125 C-7.92150359 32.59278774 -7.92150359 32.59278774 -11.25 33.625 C-14.10416667 34.70833333 -14.10416667 34.70833333 -15 37 C-25.14715026 35.31986183 -25.14715026 35.31986183 -29 31 C-30.61696055 27.20365783 -31.18708574 24.93542872 -30.375 20.875 C-28.9232355 17.8394924 -27.2211755 15.51733223 -25 13 C-25.721875 11.989375 -26.44375 10.97875 -27.1875 9.9375 C-29.06232699 6.64821279 -29.04974005 6.21317164 -28.125 2.25 C-25.14376366 -2.30953793 -22.27365087 -3.40687369 -17.125 -4.75 C-10.19556888 -5.30435449 -5.56707737 -4.45366189 0 0 Z M-20 7 C-20.79623822 9.09415804 -20.79623822 9.09415804 -21 11 C-17.41672247 12.00217064 -17.41672247 12.00217064 -14 11 C-12.00039988 10.960008 -9.99952758 10.95653201 -8 11 C-7.67 10.34 -7.34 9.68 -7 9 C-7.95581316 6.26719745 -7.95581316 6.26719745 -10 4 C-14.32761644 3.26338444 -16.93455831 3.82102343 -20 7 Z M3 6 C3 7.98 3 9.96 3 12 C3.66 11.34 4.32 10.68 5 10 C4.34 8.68 3.68 7.36 3 6 Z M-17 19 C-17 20.32 -17 21.64 -17 23 C-17.99 23 -18.98 23 -20 23 C-19.34 24.32 -18.68 25.64 -18 27 C-14.16967201 26.70535939 -11.64765087 26.46954688 -8.5 24.1875 C-6.73780393 22.12818414 -6.73780393 22.12818414 -7.25 19.75 C-7.4975 19.1725 -7.745 18.595 -8 18 C-11.11227195 18 -13.94152152 18.45627049 -17 19 Z " fill="#E0DFE0" transform="translate(132,279)"/>
<path d="M0 0 C3.97500676 2.95928021 5.30987096 6.35795771 6.08984375 11.05859375 C6.31704052 15.04239625 6.27921492 19.00755716 6.21484375 22.99609375 C6.20582031 24.06150391 6.19679687 25.12691406 6.1875 26.22460938 C6.16407789 28.83617409 6.13127827 31.44726312 6.08984375 34.05859375 C7.07984375 34.55359375 7.07984375 34.55359375 8.08984375 35.05859375 C7.42984375 35.05859375 6.76984375 35.05859375 6.08984375 35.05859375 C5.75984375 36.70859375 5.42984375 38.35859375 5.08984375 40.05859375 C4.75984375 39.39859375 4.42984375 38.73859375 4.08984375 38.05859375 C1.44984375 38.71859375 -1.19015625 39.37859375 -3.91015625 40.05859375 C-4.728982 35.0811648 -5.01839878 30.37076678 -4.97265625 25.30859375 C-4.96363281 24.014375 -4.95460937 22.72015625 -4.9453125 21.38671875 C-4.92791016 19.73929687 -4.92791016 19.73929687 -4.91015625 18.05859375 C-4.91015625 15.13030449 -5.04985691 12.85456661 -5.91015625 10.05859375 C-7.87773898 8.69839224 -7.87773898 8.69839224 -9.91015625 8.05859375 C-9.58015625 8.38859375 -9.25015625 8.71859375 -8.91015625 9.05859375 C-11.91015625 10.05859375 -11.91015625 10.05859375 -15.91015625 10.05859375 C-17.05368541 12.34565206 -17.01350064 13.65124137 -16.97265625 16.18359375 C-16.95203125 17.46234375 -16.93140625 18.74109375 -16.91015625 20.05859375 C-17.57015625 20.05859375 -18.23015625 20.05859375 -18.91015625 20.05859375 C-18.25015625 22.03859375 -17.59015625 24.01859375 -16.91015625 26.05859375 C-17.57015625 26.05859375 -18.23015625 26.05859375 -18.91015625 26.05859375 C-18.7915625 26.80625 -18.67296875 27.55390625 -18.55078125 28.32421875 C-17.49989984 36.35295272 -17.49989984 36.35295272 -19.47265625 39.74609375 C-22.4647159 41.35720279 -24.55872531 41.15513703 -27.91015625 41.05859375 C-28.04292969 39.95 -28.17570313 38.84140625 -28.3125 37.69921875 C-28.49075382 36.23566105 -28.66914653 34.77212026 -28.84765625 33.30859375 C-28.97817383 32.21417969 -28.97817383 32.21417969 -29.11132812 31.09765625 C-29.5939176 26.96985394 -29.5939176 26.96985394 -30.56860352 22.94042969 C-30.68131592 22.31942383 -30.79402832 21.69841797 -30.91015625 21.05859375 C-30.25015625 20.39859375 -29.59015625 19.73859375 -28.91015625 19.05859375 C-28.92886678 16.65009662 -28.92886678 16.65009662 -29.34765625 13.93359375 C-29.90208308 9.04045464 -29.73251357 4.90136465 -28.91015625 0.05859375 C-24.92044181 -0.99750713 -21.93610231 -0.76489522 -17.91015625 0.05859375 C-16.68800687 0.13873252 -16.68800687 0.13873252 -14.97265625 -1.00390625 C-9.98954754 -2.52934769 -4.73555248 -2.33388169 0 0 Z " fill="#DFDFE0" transform="translate(170.91015625,275.94140625)"/>
<path d="M0 0 C2.9375 0.8125 2.9375 0.8125 6 2 C6.495 3.485 6.495 3.485 7 5 C4.55734306 9.82888287 1.06357867 14.05057687 -2.16015625 18.37890625 C-3.99047317 20.81967924 -3.99047317 20.81967924 -4.93359375 23.02734375 C-6.46347529 25.8573444 -8.68023006 27.80232322 -11 30 C-9.86820313 29.97679687 -8.73640625 29.95359375 -7.5703125 29.9296875 C-6.08854825 29.91093099 -4.60677688 29.89273066 -3.125 29.875 C-2.37863281 29.85824219 -1.63226563 29.84148437 -0.86328125 29.82421875 C1.09194461 29.8066041 3.04742021 29.89679811 5 30 C7.17532857 32.17532857 7.3662254 33.10274469 8 36 C8.33 36.66 8.66 37.32 9 38 C8.34 38 7.68 38 7 38 C6.505 38.99 6.505 38.99 6 40 C-0.93 40 -7.86 40 -15 40 C-15.33 40.66 -15.66 41.32 -16 42 C-16 41.34 -16 40.68 -16 40 C-16.62648437 40.09539062 -17.25296875 40.19078125 -17.8984375 40.2890625 C-18.71570313 40.39992188 -19.53296875 40.51078125 -20.375 40.625 C-21.18710938 40.74101562 -21.99921875 40.85703125 -22.8359375 40.9765625 C-23.55007812 40.98429687 -24.26421875 40.99203125 -25 41 C-25.66 40.34 -26.32 39.68 -27 39 C-25.03301958 32.97322498 -22.62019638 28.70947093 -18.5625 23.875 C-17.60335729 22.70746056 -16.64629761 21.53820654 -15.69140625 20.3671875 C-15.00908936 19.5313916 -15.00908936 19.5313916 -14.31298828 18.67871094 C-12.38451225 16.21307293 -10.69221758 13.63233846 -9 11 C-9.680625 11.37125 -10.36125 11.7425 -11.0625 12.125 C-15.67387312 13.49860051 -19.1927851 11.83409919 -23.4375 9.875 C-24.2109375 9.441875 -24.2109375 9.441875 -25 9 C-25 6.69 -25 4.38 -25 2 C-22.57108818 0.78554409 -20.99280557 0.87075802 -18.28125 0.8671875 C-17.34925781 0.86589844 -16.41726562 0.86460937 -15.45703125 0.86328125 C-13.99330078 0.86908203 -13.99330078 0.86908203 -12.5 0.875 C-11.52417969 0.87113281 -10.54835937 0.86726563 -9.54296875 0.86328125 C-8.14498047 0.86521484 -8.14498047 0.86521484 -6.71875 0.8671875 C-5.86216797 0.86831543 -5.00558594 0.86944336 -4.12304688 0.87060547 C-2 1 -2 1 0 2 C0 1.34 0 0.68 0 0 Z " fill="#DEDEDE" transform="translate(207,274)"/>
<path d="M0 0 C0.16798051 2.27073652 0.33434113 4.54159293 0.5 6.8125 C0.5928125 8.07707031 0.685625 9.34164063 0.78125 10.64453125 C1.0927942 15.42339673 0.92070999 20.16683891 0.78125 24.94921875 C0.74795593 26.10814384 0.74795593 26.10814384 0.71398926 27.29048157 C0.64306166 29.75616616 0.57153819 32.22183306 0.5 34.6875 C0.45178365 36.36002491 0.4036061 38.03255094 0.35546875 39.70507812 C0.23742924 43.80339853 0.11885535 47.90170317 0 52 C-2.31 52 -4.62 52 -7 52 C-7 52.66 -7 53.32 -7 54 C-7.99 53.67 -8.98 53.34 -10 53 C-10.16834933 51.22932584 -10.33461909 49.45845388 -10.5 47.6875 C-10.63921875 46.20830078 -10.63921875 46.20830078 -10.78125 44.69921875 C-11 42 -11 42 -11 39 C-11.33 38.67 -11.66 38.34 -12 38 C-12.04080783 36.00041636 -12.04254356 33.99954746 -12 32 C-11.34 32 -10.68 32 -10 32 C-10.165 30.9275 -10.33 29.855 -10.5 28.75 C-11.11238083 24.00404853 -11.03425449 19.31631557 -10.9375 14.5390625 C-10.81986296 12.0060506 -10.81986296 12.0060506 -12 10 C-12.13357453 6.32670036 -12.1671568 3.50147041 -11 0 C-6.9947103 -1.06022374 -4.04399749 -0.75614912 0 0 Z " fill="#DDDDDD" transform="translate(247,262)"/>
<path d="M0 0 C2.25 2.375 2.25 2.375 2.875 4.75 C1.9626288 8.58195905 -0.07916222 10.50384939 -2.75 13.375 C-1.76 13.375 -0.77 13.375 0.25 13.375 C1.88056957 16.63613913 1.39171523 20.22979317 1.3828125 23.8125 C1.38376923 24.64837646 1.38472595 25.48425293 1.38571167 26.34545898 C1.38639268 28.11409582 1.38454391 29.88273515 1.38037109 31.65136719 C1.37502171 34.36398921 1.38031875 37.07644565 1.38671875 39.7890625 C1.38605795 41.5052087 1.38477676 43.2213548 1.3828125 44.9375 C1.38483673 45.75210693 1.38686096 46.56671387 1.38894653 47.40600586 C1.36495964 53.14508072 1.36495964 53.14508072 0.25 55.375 C-0.41 55.375 -1.07 55.375 -1.75 55.375 C-2.08 56.035 -2.41 56.695 -2.75 57.375 C-4.4 56.715 -6.05 56.055 -7.75 55.375 C-7.75 54.715 -7.75 54.055 -7.75 53.375 C-8.41 53.045 -9.07 52.715 -9.75 52.375 C-9.42 41.155 -9.09 29.935 -8.75 18.375 C-9.41 18.045 -10.07 17.715 -10.75 17.375 C-10.09 17.375 -9.43 17.375 -8.75 17.375 C-8.75 16.385 -8.75 15.395 -8.75 14.375 C-8.09 14.375 -7.43 14.375 -6.75 14.375 C-6.42 13.715 -6.09 13.055 -5.75 12.375 C-5.09 12.705 -4.43 13.035 -3.75 13.375 C-4.9565625 12.2921875 -4.9565625 12.2921875 -6.1875 11.1875 C-8.78318068 8.33858218 -9.75 7.18184197 -9.75 3.375 C-8.42825119 0.87063384 -7.36923735 -0.29474008 -4.875 -1.625 C-2.75 -1.625 -2.75 -1.625 0 0 Z " fill="#EAEAEA" transform="translate(227.75,260.625)"/>
<path d="M0 0 C0.33 1.32 0.66 2.64 1 4 C3.97 4.33 6.94 4.66 10 5 C10 5.33 10 5.66 10 6 C9.37351562 6.08636719 8.74703125 6.17273438 8.1015625 6.26171875 C5.63217125 6.68626709 3.35643158 7.14272416 1 8 C-0.67613187 10.47014472 -0.67613187 10.47014472 -1 13 C1.97 13.33 4.94 13.66 8 14 C8 14.33 8 14.66 8 15 C4.04 15.495 4.04 15.495 0 16 C3.96 16 7.92 16 12 16 C9.05310123 17.96459918 8.30422132 18.23098617 5 18.4375 C2.60972363 18.7099212 1.14023079 18.92550239 -1 20.0625 C-2.6663199 23.29099481 -2.17649121 26.41134531 -2 30 C-0.7625 29.649375 0.475 29.29875 1.75 28.9375 C4.903292 28.04406727 6.86774164 27.99118706 10 29 C10 30.98 10 32.96 10 35 C9.195625 35.28875 8.39125 35.5775 7.5625 35.875 C4.8673532 36.73262568 4.8673532 36.73262568 4 39 C-6.14715026 37.31986183 -6.14715026 37.31986183 -10 33 C-11.61696055 29.20365783 -12.18708574 26.93542872 -11.375 22.875 C-9.9232355 19.8394924 -8.2211755 17.51733223 -6 15 C-6.721875 13.989375 -7.44375 12.97875 -8.1875 11.9375 C-10.11425123 8.58781235 -10.05927303 8.22597842 -9 4.1875 C-6.31982398 -0.08403054 -4.93362578 -1.64454193 0 0 Z " fill="#DCDCDC" transform="translate(113,277)"/>
<path d="M0 0 C0.33 0 0.66 0 1 0 C1.05062952 7.35063746 1.08570377 14.70123011 1.10986328 22.05200195 C1.11993288 24.55364665 1.13358934 27.05527955 1.15087891 29.55688477 C1.17508492 33.14862986 1.18647346 36.7402196 1.1953125 40.33203125 C1.20563507 41.45398392 1.21595764 42.57593658 1.22659302 43.73188782 C1.22674408 44.77274033 1.22689514 45.81359283 1.22705078 46.88598633 C1.231492 47.80309891 1.23593323 48.72021149 1.24050903 49.66511536 C1 52 1 52 -1 55 C-1.99 55.495 -1.99 55.495 -3 56 C-3 55.34 -3 54.68 -3 54 C-3.969375 53.7525 -4.93875 53.505 -5.9375 53.25 C-7.4534375 52.63125 -7.4534375 52.63125 -9 52 C-10.41413334 48.58028604 -10.11365274 44.91282369 -10.09765625 41.265625 C-10.09443359 39.97011719 -10.09121094 38.67460937 -10.08789062 37.33984375 C-10.07953598 35.97656183 -10.07107104 34.61328058 -10.0625 33.25 C-10.05748168 31.87109535 -10.05291935 30.49218896 -10.04882812 29.11328125 C-10.03704093 25.74214341 -10.02058635 22.37109372 -10 19 C-9.34 19 -8.68 19 -8 19 C-7.67 18.34 -7.34 17.68 -7 17 C-6 18 -6 18 -5.97827148 21.05102539 C-6.02059343 22.40007852 -6.06861518 23.74896003 -6.12109375 25.09765625 C-6.14470474 25.80651474 -6.16831573 26.51537323 -6.19264221 27.24571228 C-6.26944646 29.51817021 -6.35339775 31.79030157 -6.4375 34.0625 C-6.49070396 35.59959319 -6.54344446 37.1367025 -6.59570312 38.67382812 C-6.72508405 42.44942703 -6.8608769 46.22474803 -7 50 C-5.02 50 -3.04 50 -1 50 C-1.0721875 49.03707031 -1.144375 48.07414062 -1.21875 47.08203125 C-2.21845101 32.39480173 -2.09825737 17.71441906 -2 3 C-4.97 3 -7.94 3 -11 3 C-11 2.67 -11 2.34 -11 2 C-10.28972656 1.93941406 -9.57945313 1.87882812 -8.84765625 1.81640625 C-7.46900391 1.69072266 -7.46900391 1.69072266 -6.0625 1.5625 C-5.14597656 1.48128906 -4.22945313 1.40007812 -3.28515625 1.31640625 C-1.03840268 1.23955024 -1.03840268 1.23955024 0 0 Z " fill="#E4E4E4" transform="translate(94,262)"/>
<path d="M0 0 C2.64 0 5.28 0 8 0 C8.02465098 4.96622349 8.04283649 9.93241166 8.05493164 14.89868164 C8.0599719 16.58944316 8.06680405 18.28020029 8.07543945 19.97094727 C8.08751857 22.39600707 8.09323123 24.82100944 8.09765625 27.24609375 C8.10281754 28.00651474 8.10797882 28.76693573 8.11329651 29.55039978 C8.11349238 31.3673257 8.06197277 33.18413127 8 35 C7 36 7 36 4.4375 36.0625 C3.633125 36.041875 2.82875 36.02125 2 36 C2.01047363 34.9805127 2.02094727 33.96102539 2.03173828 32.91064453 C2.06788727 29.13496398 2.09088177 25.35929879 2.10986328 21.58349609 C2.11993254 19.94805328 2.13358881 18.31262851 2.15087891 16.67724609 C2.17508705 14.3290563 2.18647357 11.98110412 2.1953125 9.6328125 C2.20563507 8.89942657 2.21595764 8.16604065 2.22659302 7.41043091 C2.22699368 5.60537303 2.12212755 3.8009217 2 2 C1.34 1.34 0.68 0.68 0 0 Z " fill="#DCDCDD" transform="translate(220,276)"/>
<path d="M0 0 C0.33 0 0.66 0 1 0 C1.16798051 2.27073652 1.33434113 4.54159293 1.5 6.8125 C1.5928125 8.07707031 1.685625 9.34164063 1.78125 10.64453125 C2.0927942 15.42339673 1.92070999 20.16683891 1.78125 24.94921875 C1.74795593 26.10814384 1.74795593 26.10814384 1.71398926 27.29048157 C1.64306166 29.75616616 1.57153819 32.22183306 1.5 34.6875 C1.45178365 36.36002491 1.4036061 38.03255094 1.35546875 39.70507812 C1.23742924 43.80339853 1.11885535 47.90170317 1 52 C-1.31 52 -3.62 52 -6 52 C-6 52.66 -6 53.32 -6 54 C-6.99 53.67 -7.98 53.34 -9 53 C-9.16834933 51.22932584 -9.33461909 49.45845388 -9.5 47.6875 C-9.63921875 46.20830078 -9.63921875 46.20830078 -9.78125 44.69921875 C-10 42 -10 42 -10 39 C-10.33 38.67 -10.66 38.34 -11 38 C-11.04080783 36.00041636 -11.04254356 33.99954746 -11 32 C-10.34 32 -9.68 32 -9 32 C-9.33 29.36 -9.66 26.72 -10 24 C-9.34 24 -8.68 24 -8 24 C-8 16.41 -8 8.82 -8 1 C-7.67 1 -7.34 1 -7 1 C-7 17.17 -7 33.34 -7 50 C-4.69 50 -2.38 50 0 50 C0 33.5 0 17 0 0 Z " fill="#ECECEC" transform="translate(246,262)"/>
<path d="M0 0 C0.99 0.33 1.98 0.66 3 1 C2.34 1 1.68 1 1 1 C1 12.22 1 23.44 1 35 C2.65 35 4.3 35 6 35 C5.98952637 34.31373535 5.97905273 33.6274707 5.96826172 32.92041016 C5.92678126 29.82197711 5.90069931 26.72360239 5.875 23.625 C5.85824219 22.54476563 5.84148437 21.46453125 5.82421875 20.3515625 C5.81777344 19.3203125 5.81132812 18.2890625 5.8046875 17.2265625 C5.79421387 16.27346191 5.78374023 15.32036133 5.77294922 14.33837891 C6 12 6 12 8 10 C8.66 12.97 9.32 15.94 10 19 C9.34 19 8.68 19 8 19 C8.66 20.98 9.32 22.96 10 25 C9.34 25 8.68 25 8 25 C8.11859375 25.74765625 8.2371875 26.4953125 8.359375 27.265625 C9.41025641 35.29435897 9.41025641 35.29435897 7.4375 38.6875 C5 40 5 40 -1 40 C-0.67 26.8 -0.34 13.6 0 0 Z " fill="#EAEAEB" transform="translate(144,277)"/>
<path d="M0 0 C6.8203125 3.59375 6.8203125 3.59375 8.4375 7.25 C8.623125 8.1575 8.80875 9.065 9 10 C8.34 10 7.68 10 7 10 C7.33 10.99 7.66 11.98 8 13 C7.70351562 13.55171875 7.40703125 14.1034375 7.1015625 14.671875 C5.49006952 18.07772541 5.53204483 21.54635947 5.375 25.25 C5.31699219 26.36761719 5.31699219 26.36761719 5.2578125 27.5078125 C5.16394892 29.3381524 5.08090282 31.16904143 5 33 C2.36 33 -0.28 33 -3 33 C-2.67 32.01 -2.34 31.02 -2 30 C-2 30.66 -2 31.32 -2 32 C-0.35 32 1.3 32 3 32 C2.34546042 21.28622064 1.24471156 10.65859798 0 0 Z M5 5 C5 6.98 5 8.96 5 11 C5.66 10.34 6.32 9.68 7 9 C6.34 7.68 5.68 6.36 5 5 Z " fill="#EAEAEA" transform="translate(130,280)"/>
<path d="M0 0 C2.25 2.375 2.25 2.375 2.6875 4.9375 C2.25 7.375 2.25 7.375 0.25 10.375 C-3.20132193 10.75150785 -5.67163439 10.98158065 -8.75 9.25 C-10.27732345 6.38626853 -9.59278671 4.42199809 -8.75 1.375 C-5.56300534 -1.81199466 -3.98257642 -2.35334061 0 0 Z " fill="#E0E0E0" transform="translate(227.75,260.625)"/>
<path d="M0 0 C2.6597889 1.32989445 2.9835728 2.68898191 4.1875 5.375 C4.55230469 6.16648437 4.91710938 6.95796875 5.29296875 7.7734375 C6 10 6 10 5 13 C3.68 11.35 2.36 9.7 1 8 C1.01160156 8.96679688 1.02320313 9.93359375 1.03515625 10.9296875 C1.08665962 18.36088832 0.97283515 25.61687607 0 33 C-0.99 32.67 -1.98 32.34 -3 32 C-3 22.33333333 -3 12.66666667 -3 3 C-2.01 2.67 -1.02 2.34 0 2 C0 1.34 0 0.68 0 0 Z " fill="#E8E8E8" transform="translate(51,278)"/>
<path d="M0 0 C2.9375 0.8125 2.9375 0.8125 6 2 C6.33 2.99 6.66 3.98 7 5 C4.66666667 9.66666667 4.66666667 9.66666667 2 11 C2.66 8.69 3.32 6.38 4 4 C-0.33229715 4.8604139 -0.33229715 4.8604139 -4 7 C-5.34267413 7.08631874 -6.68974322 7.10706473 -8.03515625 7.09765625 C-8.84404297 7.09443359 -9.65292969 7.09121094 -10.48632812 7.08789062 C-11.33646484 7.07951172 -12.18660156 7.07113281 -13.0625 7.0625 C-13.91650391 7.05798828 -14.77050781 7.05347656 -15.65039062 7.04882812 C-17.76695663 7.03700373 -19.88348685 7.01906769 -22 7 C-22 6.01 -22 5.02 -22 4 C-18.7 3.67 -15.4 3.34 -12 3 C-12 2.67 -12 2.34 -12 2 C-10.37585622 1.80522261 -8.75063577 1.61940542 -7.125 1.4375 C-6.22007812 1.33308594 -5.31515625 1.22867187 -4.3828125 1.12109375 C-2 1 -2 1 0 2 C0 1.34 0 0.68 0 0 Z " fill="#DEDDDE" transform="translate(207,274)"/>
<path d="M0 0 C0.33 0.99 0.66 1.98 1 3 C-2.3 3 -5.6 3 -9 3 C-9.33 3.66 -9.66 4.32 -10 5 C-8.68 5.66 -7.36 6.32 -6 7 C-6.99 7.33 -7.98 7.66 -9 8 C-9 8.66 -9 9.32 -9 10 C-8.34 10.33 -7.68 10.66 -7 11 C-7.928125 10.773125 -8.85625 10.54625 -9.8125 10.3125 C-12.96826848 9.63680017 -12.96826848 9.63680017 -14.875 11.4375 C-15.24625 11.953125 -15.6175 12.46875 -16 13 C-17 6.375 -17 6.375 -17 3 C-16.34 3 -15.68 3 -15 3 C-15 2.34 -15 1.68 -15 1 C-10.05183286 -1.80396138 -5.38317715 -0.77350507 0 0 Z " fill="#E4E4E4" transform="translate(169,275)"/>
<path d="M0 0 C2.23413013 3.35119519 2.23847762 4.4177755 2.1953125 8.32421875 C2.18564453 9.86625977 2.18564453 9.86625977 2.17578125 11.43945312 C2.15902344 12.51130859 2.14226562 13.58316406 2.125 14.6875 C2.11597656 15.77095703 2.10695312 16.85441406 2.09765625 17.97070312 C2.0740734 20.6473571 2.04116126 23.32356797 2 26 C2.66 26.33 3.32 26.66 4 27 C3.34 27 2.68 27 2 27 C1.67 28.65 1.34 30.3 1 32 C0.34 31.34 -0.32 30.68 -1 30 C-2.98 29.67 -4.96 29.34 -7 29 C-7 20.75 -7 12.5 -7 4 C-6.67 4 -6.34 4 -6 4 C-6 11.92 -6 19.84 -6 28 C-4.02 28 -2.04 28 0 28 C0 18.76 0 9.52 0 0 Z " fill="#E8E8E8" transform="translate(175,284)"/>
<path d="M0 0 C3.96 0 7.92 0 12 0 C12 1.98 12 3.96 12 6 C11.34 5.34 10.68 4.68 10 4 C7.03 3.67 4.06 3.34 1 3 C1 19.17 1 35.34 1 52 C0.67 52 0.34 52 0 52 C0 34.84 0 17.68 0 0 Z " fill="#EDEDED" transform="translate(41,262)"/>
<path d="M0 0 C6.27 0 12.54 0 19 0 C19 1.98 19 3.96 19 6 C18.15236084 6.029729 18.15236084 6.029729 17.28759766 6.06005859 C14.73292003 6.15518236 12.17907459 6.26491058 9.625 6.375 C8.73554688 6.4059375 7.84609375 6.436875 6.9296875 6.46875 C6.07890625 6.50742187 5.228125 6.54609375 4.3515625 6.5859375 C3.17327881 6.63306885 3.17327881 6.63306885 1.97119141 6.68115234 C-0.23002939 6.8399465 -0.23002939 6.8399465 -2 9 C-2 8.34 -2 7.68 -2 7 C-2.62648437 7.09539062 -3.25296875 7.19078125 -3.8984375 7.2890625 C-4.71570313 7.39992188 -5.53296875 7.51078125 -6.375 7.625 C-7.18710938 7.74101562 -7.99921875 7.85703125 -8.8359375 7.9765625 C-9.55007812 7.98429687 -10.26421875 7.99203125 -11 8 C-11.66 7.34 -12.32 6.68 -13 6 C-11.25 2.125 -11.25 2.125 -9 1 C-9 2.32 -9 3.64 -9 5 C-0.09 5 8.82 5 18 5 C18 3.68 18 2.36 18 1 C12.06 1 6.12 1 0 1 C0 0.67 0 0.34 0 0 Z " fill="#F3F2F2" transform="translate(193,307)"/>
<path d="M0 0 C0.99 0.33 1.98 0.66 3 1 C2.67 1.66 2.34 2.32 2 3 C2.99 3 3.98 3 5 3 C4.67 4.32 4.34 5.64 4 7 C2.35 7 0.7 7 -1 7 C-1 13.6 -1 20.2 -1 27 C-3.53231552 21.93536896 -3.42390244 17.70514641 -3.65625 12.1171875 C-3.6820802 8.90102694 -3.6820802 8.90102694 -6 7 C-5.34 7 -4.68 7 -4 7 C-4 6.01 -4 5.02 -4 4 C-3.34 4 -2.68 4 -2 4 C-1.67 3.34 -1.34 2.68 -1 2 C-0.34 2.33 0.32 2.66 1 3 C0.67 2.01 0.34 1.02 0 0 Z " fill="#ECECEC" transform="translate(223,271)"/>
<path d="M0 0 C2.86724686 0.57344937 3.8614515 0.8614515 6 3 C6.26991906 5.68839385 6.08737357 8.29141936 6 11 C0.16200408 12.69832609 -4.93107371 13.25287193 -11 13 C-9 11.66666667 -7 10.33333333 -5 9 C-4.34 8.01 -3.68 7.02 -3 6 C-3 6.99 -3 7.98 -3 9 C-1.02 8.67 0.96 8.34 3 8 C2.34 7.01 1.68 6.02 1 5 C0.61500109 3.34450469 0.27206865 1.6777567 0 0 Z " fill="#E9EAEA" transform="translate(121,281)"/>
<path d="M0 0 C2.79173055 -0.02690104 5.58320348 -0.04679053 8.375 -0.0625 C9.56609375 -0.07506836 9.56609375 -0.07506836 10.78125 -0.08789062 C16.7734375 -0.11328125 16.7734375 -0.11328125 19 1 C18.41463247 4.66060821 16.916761 6.54535164 14.4375 9.25 C13.79683594 9.95640625 13.15617188 10.6628125 12.49609375 11.390625 C12.00238281 11.92171875 11.50867188 12.4528125 11 13 C10.34765625 11.234375 10.34765625 11.234375 10 9 C10.99609375 7.078125 10.99609375 7.078125 12.4375 5.25 C13.14712891 4.32960938 13.14712891 4.32960938 13.87109375 3.390625 C14.24363281 2.93171875 14.61617187 2.4728125 15 2 C14.319375 2.37125 13.63875 2.7425 12.9375 3.125 C9.01033118 4.29479497 6.79042914 3.40386264 3 2 C2.01 1.34 1.02 0.68 0 0 Z " fill="#EEEEEE" transform="translate(183,283)"/>
<path d="M0 0 C-2.55068845 2.35448165 -3.71017358 2.98327924 -7.25 3.1875 C-8.1575 3.125625 -9.065 3.06375 -10 3 C-10 4.32 -10 5.64 -10 7 C-10.99 7 -11.98 7 -13 7 C-12.34 8.65 -11.68 10.3 -11 12 C-11.99 12.33 -12.98 12.66 -14 13 C-14.96661363 9.87819599 -14.98988909 7.47916205 -14.5625 4.25 C-14.46066406 3.45078125 -14.35882813 2.6515625 -14.25390625 1.828125 C-14.17011719 1.22484375 -14.08632812 0.6215625 -14 0 C-13.01 0 -12.02 0 -11 0 C-8.97433489 -0.26546015 -6.95683063 -0.56912257 -4.9375 -0.87890625 C-3 -1 -3 -1 0 0 Z " fill="#E8E8E8" transform="translate(125,295)"/>
<path d="M0 0 C0.66 0.33 1.32 0.66 2 1 C1.67 11.56 1.34 22.12 1 33 C3.31 33 5.62 33 8 33 C8 33.33 8 33.66 8 34 C5.36 34 2.72 34 0 34 C0 25.09 0 16.18 0 7 C-0.66 6.67 -1.32 6.34 -2 6 C-2 4.68 -2 3.36 -2 2 C-1.34 2 -0.68 2 0 2 C0 1.34 0 0.68 0 0 Z " fill="#F3F3F3" transform="translate(86,279)"/>
<path d="M0 0 C0.33 0 0.66 0 1 0 C1.96288008 10.6948466 2.10947633 21.27132003 2 32 C-0.73106878 29.26893122 -0.79223084 26.70508187 -1 23 C-0.97215309 19.01360704 -0.77744535 15.04269495 -0.5625 11.0625 C-0.51029297 9.99708984 -0.45808594 8.93167969 -0.40429688 7.83398438 C-0.27546928 5.22229771 -0.14054502 2.6110779 0 0 Z " fill="#E1E1E1" transform="translate(219,280)"/>
<path d="M0 0 C0.68835938 0.59748047 0.68835938 0.59748047 1.390625 1.20703125 C8.08986297 7.06105744 8.08986297 7.06105744 16 11 C13 13 13 13 10.25 12.625 C5.78476567 10.39238284 2.77104849 7.14017599 0 3 C0 2.01 0 1.02 0 0 Z " fill="#E1E1E1" transform="translate(122,122)"/>
<path d="M0 0 C1.85772162 0.08984301 3.71247985 0.24611861 5.5625 0.4375 C7.08037109 0.59025391 7.08037109 0.59025391 8.62890625 0.74609375 C9.80259766 0.87177734 9.80259766 0.87177734 11 1 C11 1.33 11 1.66 11 2 C7.7 2 4.4 2 1 2 C1 3.65 1 5.3 1 7 C6.94 7 12.88 7 19 7 C18.67 7.99 18.34 8.98 18 10 C17.67 9.34 17.34 8.68 17 8 C11.06 8 5.12 8 -1 8 C-1 1 -1 1 0 0 Z " fill="#CECECE" transform="translate(183,275)"/>
<path d="M0 0 C2.9375 0.8125 2.9375 0.8125 6 2 C6.33 2.99 6.66 3.98 7 5 C4.66666667 9.66666667 4.66666667 9.66666667 2 11 C2.66 8.69 3.32 6.38 4 4 C-1.28 3.67 -6.56 3.34 -12 3 C-12 2.67 -12 2.34 -12 2 C-10.37585622 1.80522261 -8.75063577 1.61940542 -7.125 1.4375 C-6.22007812 1.33308594 -5.31515625 1.22867187 -4.3828125 1.12109375 C-2 1 -2 1 0 2 C0 1.34 0 0.68 0 0 Z " fill="#D6D6D6" transform="translate(207,274)"/>
<path d="M0 0 C1.05445313 0.06703125 2.10890625 0.1340625 3.1953125 0.203125 C5.875 0.75 5.875 0.75 7.875 3.75 C0.945 3.75 -5.985 3.75 -13.125 3.75 C-8.76448067 -0.61051933 -6.01356235 -0.44326012 0 0 Z " fill="#EFEEEE" transform="translate(146.125,46.25)"/>
<path d="M0 0 C0.33 0 0.66 0 1 0 C1 7.59 1 15.18 1 23 C0.67 23 0.34 23 0 23 C-0.06058594 22.15695312 -0.12117187 21.31390625 -0.18359375 20.4453125 C-0.26738281 19.34960938 -0.35117188 18.25390625 -0.4375 17.125 C-0.51871094 16.03445313 -0.59992188 14.94390625 -0.68359375 13.8203125 C-0.83001703 11.05271029 -0.83001703 11.05271029 -2 9 C-2.1875 5.5 -2.1875 5.5 -2 2 C-1.34 1.34 -0.68 0.68 0 0 Z " fill="#DADADA" transform="translate(237,263)"/>
<path d="M0 0 C0.66 0.33 1.32 0.66 2 1 C-1.4502434 4.17422393 -4.45090431 4.39917604 -9 5 C-9.33 5.66 -9.66 6.32 -10 7 C-12.3125 7.1875 -12.3125 7.1875 -15 7 C-16.66796875 5.48828125 -16.66796875 5.48828125 -18 4 C-17.28714844 3.96261719 -16.57429687 3.92523438 -15.83984375 3.88671875 C-9.84372289 3.47514114 -5.41690748 2.53557371 0 0 Z " fill="#DADADA" transform="translate(156,131)"/>
<path d="M0 0 C3.63 0 7.26 0 11 0 C11 1.98 11 3.96 11 6 C10.34 5.34 9.68 4.68 9 4 C6.79749008 3.53993654 6.79749008 3.53993654 4.375 3.375 C3.14910156 3.26285156 3.14910156 3.26285156 1.8984375 3.1484375 C1.27195313 3.09945313 0.64546875 3.05046875 0 3 C0 2.01 0 1.02 0 0 Z " fill="#E7E7E7" transform="translate(42,262)"/>
<path d="M0 0 C2.20805524 -0.0544452 4.41650554 -0.09299283 6.625 -0.125 C7.85476562 -0.14820312 9.08453125 -0.17140625 10.3515625 -0.1953125 C13.94316041 -0.0030428 16.66661175 0.69741444 20 2 C19.38125 2.144375 18.7625 2.28875 18.125 2.4375 C15.96741678 2.93152225 15.96741678 2.93152225 14 4 C12.67139075 4.35169068 11.33841672 4.68770276 10 5 C10 4.01 10 3.02 10 2 C6.7 1.67 3.4 1.34 0 1 C0 0.67 0 0.34 0 0 Z " fill="#D6D6D6" transform="translate(137,71)"/>
<path d="M0 0 C0 0.33 0 0.66 0 1 C-1.01320312 1.18175781 -1.01320312 1.18175781 -2.046875 1.3671875 C-2.93890625 1.53476562 -3.8309375 1.70234375 -4.75 1.875 C-6.07257813 2.11863281 -6.07257813 2.11863281 -7.421875 2.3671875 C-9.86947744 2.96796264 -11.80599857 3.77997117 -14 5 C-14.99 4.01 -15.98 3.02 -17 2 C-11.21642935 -0.01167675 -6.09781001 -0.22084624 0 0 Z " fill="#DBDADA" transform="translate(139,48)"/>
<path d="M0 0 C0.56460938 0.21914062 1.12921875 0.43828125 1.7109375 0.6640625 C1.04707031 0.96699219 0.38320312 1.26992187 -0.30078125 1.58203125 C-5.51527252 4.05605996 -9.52151847 6.26859447 -13.2890625 10.6640625 C-11.97241097 6.5159023 -10.54658057 4.66649127 -6.9140625 2.2890625 C-6.14320313 1.76570313 -5.37234375 1.24234375 -4.578125 0.703125 C-2.2890625 -0.3359375 -2.2890625 -0.3359375 0 0 Z " fill="#D2D2D3" transform="translate(136.2890625,91.3359375)"/>
<path d="M0 0 C1.91015625 0.23046875 1.91015625 0.23046875 3.91015625 2.23046875 C3.53515625 4.85546875 3.53515625 4.85546875 2.91015625 7.23046875 C2.58015625 7.23046875 2.25015625 7.23046875 1.91015625 7.23046875 C1.91015625 5.58046875 1.91015625 3.93046875 1.91015625 2.23046875 C-0.39984375 2.23046875 -2.70984375 2.23046875 -5.08984375 2.23046875 C-5.41984375 3.22046875 -5.74984375 4.21046875 -6.08984375 5.23046875 C-6.65234375 3.29296875 -6.65234375 3.29296875 -7.08984375 1.23046875 C-5.19495423 -0.66442077 -2.51845229 0.05027763 0 0 Z " fill="#D6D6D6" transform="translate(149.08984375,274.76953125)"/>
<path d="M0 0 C0.66 0.33 1.32 0.66 2 1 C-1.3 4.3 -4.6 7.6 -8 11 C-8 8 -8 8 -6 5 C-6 4.34 -6 3.68 -6 3 C-5.38125 2.87625 -4.7625 2.7525 -4.125 2.625 C-1.80879168 2.12802644 -1.80879168 2.12802644 0 0 Z " fill="#F0F0F0" transform="translate(101,63)"/>
<path d="M0 0 C0.66 0.33 1.32 0.66 2 1 C2.125 4.375 2.125 4.375 2 8 C1.34 8.66 0.68 9.32 0 10 C0 9.01 0 8.02 0 7 C-0.66 6.67 -1.32 6.34 -2 6 C-2 4.68 -2 3.36 -2 2 C-1.34 2 -0.68 2 0 2 C0 1.34 0 0.68 0 0 Z " fill="#EAEAEA" transform="translate(86,279)"/>
<path d="M0 0 C0.33 0 0.66 0 1 0 C1 5.94 1 11.88 1 18 C-1.24864865 13.5027027 -1.24864865 13.5027027 -1.125 9.9375 C-1.05161236 7.62578924 -1 5.31287534 -1 3 C-0.67 2.01 -0.34 1.02 0 0 Z " fill="#CDCDCD" transform="translate(167,288)"/>
<path d="M0 0 C2.64 0 5.28 0 8 0 C8 0.66 8 1.32 8 2 C8.66 2.33 9.32 2.66 10 3 C9.071875 2.773125 8.14375 2.54625 7.1875 2.3125 C4.03173152 1.63680017 4.03173152 1.63680017 2.125 3.4375 C1.75375 3.953125 1.3825 4.46875 1 5 C0.67 3.35 0.34 1.7 0 0 Z " fill="#ECECEC" transform="translate(152,283)"/>
<path d="M0 0 C0.99 0.33 1.98 0.66 3 1 C2.67 1.66 2.34 2.32 2 3 C2.99 3 3.98 3 5 3 C5 3.66 5 4.32 5 5 C2.03 5 -0.94 5 -4 5 C-3.34 4.67 -2.68 4.34 -2 4 C-1.67 3.34 -1.34 2.68 -1 2 C-0.34 2.33 0.32 2.66 1 3 C0.67 2.01 0.34 1.02 0 0 Z " fill="#FDFDFD" transform="translate(223,271)"/>
<path d="M0 0 C2.33333823 2.12121657 3.9148886 4.01594365 5 7 C4.625 9.25 4.625 9.25 4 11 C3.67 9.68 3.34 8.36 3 7 C2.34 7 1.68 7 1 7 C0.67 4.69 0.34 2.38 0 0 Z " fill="#D6D6D6" transform="translate(52,263)"/>
<path d="M0 0 C0.66666667 2.66666667 1.33333333 5.33333333 2 8 C0.35 7.67 -1.3 7.34 -3 7 C-2.34 6.67 -1.68 6.34 -1 6 C-1 5.01 -1 4.02 -1 3 C-1.66 2.67 -2.32 2.34 -3 2 C-2.01 1.34 -1.02 0.68 0 0 Z " fill="#EFEEEF" transform="translate(124,304)"/>
<path d="M0 0 C0 3 0 3 -1 5 C-1.66 5 -2.32 5 -3 5 C-3 6.98 -3 8.96 -3 11 C-3.66 10.01 -4.32 9.02 -5 8 C-4.06400328 3.83056007 -3.62383901 2.41589267 0 0 Z " fill="#D4D4D4" transform="translate(106,295)"/>
<path d="M0 0 C2.125 0.9375 2.125 0.9375 4 2 C4 2.99 4 3.98 4 5 C2.68 5 1.36 5 0 5 C-0.66 3.68 -1.32 2.36 -2 1 C-1.34 0.67 -0.68 0.34 0 0 Z " fill="#FDFDFD" transform="translate(107,287)"/>
<path d="M0 0 C2.64 0 5.28 0 8 0 C8 0.66 8 1.32 8 2 C7.34 2 6.68 2 6 2 C5.67 2.66 5.34 3.32 5 4 C2.525 3.01 2.525 3.01 0 2 C0 1.34 0 0.68 0 0 Z " fill="#FEFEFE" transform="translate(220,314)"/>
<path d="M0 0 C0.66 1.32 1.32 2.64 2 4 C2.66 4 3.32 4 4 4 C4 5.98 4 7.96 4 10 C1.16625119 6.79663178 0.4794463 4.21912747 0 0 Z " fill="#D7D7D6" transform="translate(59,300)"/>
<path d="M0 0 C2.31 0 4.62 0 7 0 C6.67 0.99 6.34 1.98 6 3 C4.02 2.34 2.04 1.68 0 1 C0 0.67 0 0.34 0 0 Z " fill="#FEFEFE" transform="translate(43,315)"/>
<path d="M0 0 C0.33 0 0.66 0 1 0 C1 1.98 1 3.96 1 6 C0.01 6 -0.98 6 -2 6 C-1.34 4.02 -0.68 2.04 0 0 Z " fill="#FEFEFE" transform="translate(83,288)"/>
<path d="M0 0 C2.97 0.33 5.94 0.66 9 1 C8.34 1.66 7.68 2.32 7 3 C4.69 2.34 2.38 1.68 0 1 C0 0.67 0 0.34 0 0 Z " fill="#FEFEFE" transform="translate(107,315)"/>
<path d="M0 0 C0.33 0 0.66 0 1 0 C1.33 2.64 1.66 5.28 2 8 C1.34 8 0.68 8 0 8 C0 5.36 0 2.72 0 0 Z " fill="#FEFEFE" transform="translate(96,286)"/>
<path d="M0 0 C0.99 1.485 0.99 1.485 2 3 C1.67 3.99 1.34 4.98 1 6 C0.67 6 0.34 6 0 6 C0 4.02 0 2.04 0 0 Z " fill="#FEFEFE" transform="translate(96,306)"/>
<path d="M0 0 C0.66 0 1.32 0 2 0 C2 1.65 2 3.3 2 5 C1.34 5 0.68 5 0 5 C0 3.35 0 1.7 0 0 Z " fill="#FFFFFF" transform="translate(181,111)"/>
<path d="M0 0 C0.33 0 0.66 0 1 0 C1 1.98 1 3.96 1 6 C0.34 5.67 -0.32 5.34 -1 5 C-0.67 3.35 -0.34 1.7 0 0 Z " fill="#FEFEFE" transform="translate(83,296)"/>
<path d="M0 0 C0.66 1.32 1.32 2.64 2 4 C1.01 3.67 0.02 3.34 -1 3 C-0.67 2.01 -0.34 1.02 0 0 Z " fill="#FEFEFE" transform="translate(113,286)"/>
<path d="M0 0 C0.99 0.495 0.99 0.495 2 1 C1.67 2.32 1.34 3.64 1 5 C0.67 3.35 0.34 1.7 0 0 Z " fill="#FFFFFF" transform="translate(181,105)"/>
<path d="M0 0 C0.33 0 0.66 0 1 0 C1 1.98 1 3.96 1 6 C0.67 6 0.34 6 0 6 C0 4.02 0 2.04 0 0 Z " fill="#FEFEFE" transform="translate(136,298)"/>
<path d="M0 0 C0.99 0.33 1.98 0.66 3 1 C2.67 1.66 2.34 2.32 2 3 C1.34 2.67 0.68 2.34 0 2 C0 1.34 0 0.68 0 0 Z " fill="#FFFFFF" transform="translate(93,160)"/>
<path d="M0 0 C0.99 0 1.98 0 3 0 C2.67 1.32 2.34 2.64 2 4 C2 3.01 2 2.02 2 1 C1.34 0.67 0.68 0.34 0 0 Z " fill="#FEFEFE" transform="translate(75,126)"/>
<path d="M0 0 C0.33 0 0.66 0 1 0 C1 1.65 1 3.3 1 5 C0.34 4.67 -0.32 4.34 -1 4 C-0.67 2.68 -0.34 1.36 0 0 Z " fill="#FEFEFE" transform="translate(76,120)"/>
<path d="M0 0 C0.99 0.33 1.98 0.66 3 1 C2.01 2.485 2.01 2.485 1 4 C0.67 2.68 0.34 1.36 0 0 Z " fill="#FFFFFF" transform="translate(168,108)"/>
<path d="M0 0 C0.33 0.66 0.66 1.32 1 2 C0.67 2.66 0.34 3.32 0 4 C-0.66 3.67 -1.32 3.34 -2 3 C-1.34 2.01 -0.68 1.02 0 0 Z " fill="#FFFFFF" transform="translate(112,88)"/>
<path d="M0 0 C1.65 0 3.3 0 5 0 C5 0.33 5 0.66 5 1 C3.35 1 1.7 1 0 1 C0 0.67 0 0.34 0 0 Z " fill="#FEFEFE" transform="translate(241,315)"/>
<path d="M0 0 C1.485 0.99 1.485 0.99 3 2 C2.01 2.33 1.02 2.66 0 3 C0 2.01 0 1.02 0 0 Z " fill="#FEFEFE" transform="translate(136,310)"/>
<path d="M0 0 C0.33 0 0.66 0 1 0 C1 1.65 1 3.3 1 5 C0.67 5 0.34 5 0 5 C0 3.35 0 1.7 0 0 Z " fill="#FEFEFE" transform="translate(39,289)"/>
<path d="M0 0 C1.65 0 3.3 0 5 0 C5 0.33 5 0.66 5 1 C3.35 1 1.7 1 0 1 C0 0.67 0 0.34 0 0 Z " fill="#FEFEFE" transform="translate(116,284)"/>
<path d="M0 0 C0.66 0.99 1.32 1.98 2 3 C1.01 2.67 0.02 2.34 -1 2 C-0.67 1.34 -0.34 0.68 0 0 Z " fill="#FEFEFE" transform="translate(84,145)"/>
<path d="M0 0 C0.66 0.66 1.32 1.32 2 2 C1.34 2.66 0.68 3.32 0 4 C0 2.68 0 1.36 0 0 Z " fill="#FFFFFF" transform="translate(105,103)"/>
<path d="M0 0 C0.66 0.33 1.32 0.66 2 1 C1.67 1.66 1.34 2.32 1 3 C0.34 2.67 -0.32 2.34 -1 2 C-0.67 1.34 -0.34 0.68 0 0 Z " fill="#FFFFFF" transform="translate(165,81)"/>
<path d="M0 0 C4 1 4 1 4 1 Z " fill="#FEFEFE" transform="translate(203,315)"/>
<path d="M0 0 C4 1 4 1 4 1 Z " fill="#FEFEFE" transform="translate(193,315)"/>
<path d="M0 0 C0.99 0.495 0.99 0.495 2 1 C1.34 1.66 0.68 2.32 0 3 C0 2.01 0 1.02 0 0 Z " fill="#FEFEFE" transform="translate(170,315)"/>
<path d="M0 0 C4 1 4 1 4 1 Z " fill="#FFFFFF" transform="translate(205,303)"/>
<path d="M0 0 C1 4 1 4 1 4 Z " fill="#FFFFFF" transform="translate(230,299)"/>
<path d="M0 0 C1 4 1 4 1 4 Z " fill="#FFFFFF" transform="translate(96,299)"/>
<path d="M0 0 C1 4 1 4 1 4 Z " fill="#FFFFFF" transform="translate(154,290)"/>
<path d="M0 0 C1 4 1 4 1 4 Z " fill="#FFFFFF" transform="translate(230,285)"/>
<path d="M0 0 C0.66 0 1.32 0 2 0 C1.67 0.99 1.34 1.98 1 3 C0.67 2.01 0.34 1.02 0 0 Z " fill="#FFFFFF" transform="translate(234,283)"/>
<path d="M0 0 C1 4 1 4 1 4 Z " fill="#FEFEFE" transform="translate(39,274)"/>
<path d="M0 0 C0.66 0.33 1.32 0.66 2 1 C1.01 1 0.02 1 -1 1 C-0.67 0.67 -0.34 0.34 0 0 Z " fill="#FEFEFE" transform="translate(202,273)"/>
<path d="M0 0 C1 4 1 4 1 4 Z " fill="#FFFFFF" transform="translate(39,268)"/>
<path d="M0 0 C0.99 0.495 0.99 0.495 2 1 C1.67 1.66 1.34 2.32 1 3 C0.67 2.01 0.34 1.02 0 0 Z " fill="#FFFFFF" transform="translate(115,190)"/>
<path d="M0 0 C0.99 0.495 0.99 0.495 2 1 C1.67 1.66 1.34 2.32 1 3 C0.67 2.01 0.34 1.02 0 0 Z " fill="#FFFFFF" transform="translate(91,156)"/>
<path d="M0 0 C0.66 0 1.32 0 2 0 C2 0.66 2 1.32 2 2 C1.34 2 0.68 2 0 2 C0 1.34 0 0.68 0 0 Z " fill="#FFFFFF" transform="translate(77,132)"/>
<path d="M0 0 C0.66 0.66 1.32 1.32 2 2 C1.01 1.67 0.02 1.34 -1 1 C-0.67 0.67 -0.34 0.34 0 0 Z " fill="#FFFFFF" transform="translate(124,129)"/>
<path d="M0 0 C0.99 1.485 0.99 1.485 2 3 C1.34 3 0.68 3 0 3 C0 2.01 0 1.02 0 0 Z " fill="#FFFFFF" transform="translate(105,119)"/>
<path d="M0 0 C1 4 1 4 1 4 Z " fill="#FFFFFF" transform="translate(179,96)"/>
<path d="M0 0 C4 1 4 1 4 1 Z " fill="#FFFFFF" transform="translate(134,74)"/>
<path d="M0 0 C0.99 0.33 1.98 0.66 3 1 C2.01 1.33 1.02 1.66 0 2 C0 1.34 0 0.68 0 0 Z " fill="#FEFEFE" transform="translate(107,54)"/>
<path d="M0 0 C4 1 4 1 4 1 Z " fill="#FEFEFE" transform="translate(131,46)"/>
<path d="M0 0 C3 1 3 1 3 1 Z " fill="#FFFFFF" transform="translate(207,316)"/>
<path d="M0 0 C0.66 0 1.32 0 2 0 C1.67 0.66 1.34 1.32 1 2 C0.67 1.34 0.34 0.68 0 0 Z " fill="#FEFEFE" transform="translate(181,316)"/>
<path d="M0 0 C0.66 0 1.32 0 2 0 C1.67 0.66 1.34 1.32 1 2 C0.67 1.34 0.34 0.68 0 0 Z " fill="#FEFEFE" transform="translate(86,315)"/>
<path d="" fill="#FEFEFE" transform="translate(0,0)"/>
<path d="" fill="#FFFFFF" transform="translate(0,0)"/>
<path d="M0 0 C3 1 3 1 3 1 Z " fill="#FFFFFF" transform="translate(116,299)"/>
<path d="" fill="#FEFEFE" transform="translate(0,0)"/>
<path d="M0 0 C3 1 3 1 3 1 Z " fill="#FFFFFF" transform="translate(53,295)"/>
<path d="M0 0 C0.66 0.66 1.32 1.32 2 2 C1.34 2 0.68 2 0 2 C0 1.34 0 0.68 0 0 Z " fill="#FFFFFF" transform="translate(104,289)"/>
<path d="" fill="#FEFEFE" transform="translate(0,0)"/>
<path d="M0 0 C0.66 0 1.32 0 2 0 C1.67 0.66 1.34 1.32 1 2 C0.67 1.34 0.34 0.68 0 0 Z " fill="#FFFFFF" transform="translate(139,286)"/>
<path d="" fill="#FFFFFF" transform="translate(0,0)"/>
<path d="" fill="#FFFFFF" transform="translate(0,0)"/>
<path d="M0 0 C3 1 3 1 3 1 Z " fill="#FEFEFE" transform="translate(190,274)"/>
<path d="M0 0 C3 1 3 1 3 1 Z " fill="#FFFFFF" transform="translate(144,274)"/>
<path d="M0 0 C3 1 3 1 3 1 Z " fill="#FFFFFF" transform="translate(126,274)"/>
<path d="M0 0 C0.66 0.66 1.32 1.32 2 2 C1.34 2 0.68 2 0 2 C0 1.34 0 0.68 0 0 Z " fill="#FFFFFF" transform="translate(148,272)"/>
<path d="M0 0 C0.33 0.66 0.66 1.32 1 2 C0.34 1.67 -0.32 1.34 -1 1 C-0.67 0.67 -0.34 0.34 0 0 Z " fill="#FFFFFF" transform="translate(155,271)"/>
<path d="" fill="#FFFFFF" transform="translate(0,0)"/>
<path d="M0 0 C0.66 0.66 1.32 1.32 2 2 C1.34 2 0.68 2 0 2 C0 1.34 0 0.68 0 0 Z " fill="#FFFFFF" transform="translate(57,268)"/>
<path d="M0 0 C0.66 0.66 1.32 1.32 2 2 C1.34 2 0.68 2 0 2 C0 1.34 0 0.68 0 0 Z " fill="#FEFEFE" transform="translate(231,265)"/>
<path d="M0 0 C0.33 0.66 0.66 1.32 1 2 C0.34 1.67 -0.32 1.34 -1 1 C-0.67 0.67 -0.34 0.34 0 0 Z " fill="#FEFEFE" transform="translate(134,217)"/>
<path d="M0 0 C0.33 0.66 0.66 1.32 1 2 C0.34 1.67 -0.32 1.34 -1 1 C-0.67 0.67 -0.34 0.34 0 0 Z " fill="#FFFFFF" transform="translate(162,203)"/>
<path d="M0 0 C3 1 3 1 3 1 Z " fill="#FFFFFF" transform="translate(117,196)"/>
<path d="M0 0 C0.66 0.66 1.32 1.32 2 2 C1.34 2 0.68 2 0 2 C0 1.34 0 0.68 0 0 Z " fill="#FFFFFF" transform="translate(117,193)"/>
<path d="M0 0 C0.33 0.66 0.66 1.32 1 2 C0.34 1.67 -0.32 1.34 -1 1 C-0.67 0.67 -0.34 0.34 0 0 Z " fill="#FFFFFF" transform="translate(108,180)"/>
<path d="M0 0 C0.99 0.495 0.99 0.495 2 1 C1.01 1.495 1.01 1.495 0 2 C0 1.34 0 0.68 0 0 Z " fill="#FEFEFE" transform="translate(185,169)"/>
<path d="M0 0 C3 1 3 1 3 1 Z " fill="#FFFFFF" transform="translate(148,150)"/>
<path d="M0 0 C0.99 0.495 0.99 0.495 2 1 C1.01 1.495 1.01 1.495 0 2 C0 1.34 0 0.68 0 0 Z " fill="#FFFFFF" transform="translate(161,145)"/>
<path d="" fill="#FFFFFF" transform="translate(0,0)"/>
<path d="M0 0 C0.99 0.495 0.99 0.495 2 1 C1.01 1.495 1.01 1.495 0 2 C0 1.34 0 0.68 0 0 Z " fill="#FFFFFF" transform="translate(133,137)"/>
<path d="M0 0 C0.66 0.66 1.32 1.32 2 2 C1.34 2 0.68 2 0 2 C0 1.34 0 0.68 0 0 Z " fill="#FFFFFF" transform="translate(159,132)"/>
<path d="" fill="#FFFFFF" transform="translate(0,0)"/>
<path d="" fill="#FFFFFF" transform="translate(0,0)"/>
<path d="" fill="#FFFFFF" transform="translate(0,0)"/>
<path d="M0 0 C0.66 0 1.32 0 2 0 C1.67 0.66 1.34 1.32 1 2 C0.67 1.34 0.34 0.68 0 0 Z " fill="#FFFFFF" transform="translate(104,116)"/>
<path d="" fill="#FFFFFF" transform="translate(0,0)"/>
<path d="M0 0 C0.66 0 1.32 0 2 0 C1.67 0.66 1.34 1.32 1 2 C0.67 1.34 0.34 0.68 0 0 Z " fill="#FFFFFF" transform="translate(117,102)"/>
<path d="" fill="#FFFFFF" transform="translate(0,0)"/>
<path d="" fill="#FFFFFF" transform="translate(0,0)"/>
<path d="M0 0 C3 1 3 1 3 1 Z " fill="#FFFFFF" transform="translate(156,76)"/>
<path d="" fill="#FFFFFF" transform="translate(0,0)"/>
<path d="M0 0 C3 1 3 1 3 1 Z " fill="#FFFFFF" transform="translate(152,46)"/>
<path d="" fill="#FEFEFE" transform="translate(0,0)"/>
<path d="M0 0 C2 1 2 1 2 1 Z " fill="#FFFFFF" transform="translate(150,316)"/>
<path d="M0 0 C2 1 2 1 2 1 Z " fill="#FEFEFE" transform="translate(187,315)"/>
<path d="" fill="#FFFFFF" transform="translate(0,0)"/>
<path d="" fill="#FEFEFE" transform="translate(0,0)"/>
<path d="M0 0 C2 1 2 1 2 1 Z " fill="#FFFFFF" transform="translate(163,312)"/>
<path d="M0 0 C2 1 2 1 2 1 Z " fill="#FFFFFF" transform="translate(231,311)"/>
<path d="M0 0 C2 1 2 1 2 1 Z " fill="#FFFFFF" transform="translate(59,311)"/>
<path d="M0 0 C2 1 2 1 2 1 Z " fill="#FFFFFF" transform="translate(59,309)"/>
<path d="" fill="#FEFEFE" transform="translate(0,0)"/>
<path d="" fill="#FEFEFE" transform="translate(0,0)"/>
<path d="M0 0 C2 1 2 1 2 1 Z " fill="#FEFEFE" transform="translate(120,302)"/>
<path d="" fill="#FEFEFE" transform="translate(0,0)"/>
<path d="" fill="#FEFEFE" transform="translate(0,0)"/>
<path d="" fill="#FFFFFF" transform="translate(0,0)"/>
<path d="" fill="#FFFFFF" transform="translate(0,0)"/>
<path d="" fill="#FEFEFE" transform="translate(0,0)"/>
<path d="" fill="#FEFFFF" transform="translate(0,0)"/>
<path d="" fill="#FFFFFF" transform="translate(0,0)"/>
<path d="" fill="#FFFFFF" transform="translate(0,0)"/>
<path d="" fill="#FFFFFF" transform="translate(0,0)"/>
<path d="" fill="#FEFEFE" transform="translate(0,0)"/>
<path d="M0 0 C2 1 2 1 2 1 Z " fill="#FFFFFF" transform="translate(100,285)"/>
<path d="" fill="#FFFFFF" transform="translate(0,0)"/>
<path d="" fill="#FFFFFF" transform="translate(0,0)"/>
<path d="" fill="#FFFFFF" transform="translate(0,0)"/>
<path d="M0 0 C2 1 2 1 2 1 Z " fill="#FEFEFE" transform="translate(198,274)"/>
<path d="" fill="#FFFFFF" transform="translate(0,0)"/>
<path d="M0 0 C2 1 2 1 2 1 Z " fill="#FFFFFF" transform="translate(156,273)"/>
<path d="" fill="#FEFEFE" transform="translate(0,0)"/>
<path d="" fill="#FFFFFF" transform="translate(0,0)"/>
<path d="" fill="#FFFFFF" transform="translate(0,0)"/>
<path d="" fill="#FEFEFE" transform="translate(0,0)"/>
<path d="" fill="#FFFFFF" transform="translate(0,0)"/>
<path d="M0 0 C2 1 2 1 2 1 Z " fill="#FFFFFF" transform="translate(149,220)"/>
<path d="" fill="#FFFFFF" transform="translate(0,0)"/>
<path d="" fill="#FFFFFF" transform="translate(0,0)"/>
<path d="M0 0 C2 1 2 1 2 1 Z " fill="#FFFFFF" transform="translate(127,209)"/>
<path d="M0 0 C2 1 2 1 2 1 Z " fill="#FFFFFF" transform="translate(111,186)"/>
<path d="" fill="#FFFFFF" transform="translate(0,0)"/>
<path d="" fill="#FFFFFF" transform="translate(0,0)"/>
<path d="M0 0 C2 1 2 1 2 1 Z " fill="#FFFFFF" transform="translate(158,147)"/>
<path d="" fill="#FFFFFF" transform="translate(0,0)"/>
<path d="M0 0 C2 1 2 1 2 1 Z " fill="#FFFFFF" transform="translate(150,140)"/>
<path d="" fill="#FFFFFF" transform="translate(0,0)"/>
<path d="" fill="#FFFFFF" transform="translate(0,0)"/>
<path d="M0 0 C2 1 2 1 2 1 Z " fill="#FFFFFF" transform="translate(113,135)"/>
<path d="M0 0 C2 1 2 1 2 1 Z " fill="#FFFFFF" transform="translate(126,132)"/>
<path d="" fill="#FEFEFE" transform="translate(0,0)"/>
<path d="" fill="#FFFFFF" transform="translate(0,0)"/>
<path d="M0 0 C2 1 2 1 2 1 Z " fill="#FFFFFF" transform="translate(116,111)"/>
<path d="" fill="#FFFFFF" transform="translate(0,0)"/>
<path d="M0 0 C2 1 2 1 2 1 Z " fill="#FFFFFF" transform="translate(116,104)"/>
<path d="M0 0 C2 1 2 1 2 1 Z " fill="#FFFFFF" transform="translate(167,103)"/>
<path d="" fill="#FFFFFF" transform="translate(0,0)"/>
<path d="" fill="#FFFFFF" transform="translate(0,0)"/>
<path d="M0 0 C2 1 2 1 2 1 Z " fill="#FFFFFF" transform="translate(173,92)"/>
<path d="" fill="#FFFFFF" transform="translate(0,0)"/>
<path d="M0 0 C2 1 2 1 2 1 Z " fill="#FFFFFF" transform="translate(174,90)"/>
<path d="M0 0 C2 1 2 1 2 1 Z " fill="#FFFFFF" transform="translate(208,87)"/>
<path d="" fill="#FFFFFF" transform="translate(0,0)"/>
<path d="M0 0 C2 1 2 1 2 1 Z " fill="#FEFFFE" transform="translate(159,77)"/>
<path d="M0 0 C2 1 2 1 2 1 Z " fill="#FFFFFF" transform="translate(132,75)"/>
<path d="" fill="#FFFEFF" transform="translate(0,0)"/>
<path d="M0 0 C2 1 2 1 2 1 Z " fill="#FFFFFF" transform="translate(165,49)"/>
<path d="M0 0 C2 1 2 1 2 1 Z " fill="#FFFFFF" transform="translate(126,47)"/>
<path d="M0 0 C2 1 2 1 2 1 Z " fill="#FFFFFF" transform="translate(157,46)"/>
<path d="" fill="#FFFFFF" transform="translate(0,0)"/>
<path d="" fill="#FFFFFF" transform="translate(0,0)"/>
<path d="" fill="#FFFFFF" transform="translate(0,0)"/>
<path d="" fill="#FFFFFF" transform="translate(0,0)"/>
<path d="" fill="#FEFEFE" transform="translate(0,0)"/>
<path d="" fill="#FFFFFF" transform="translate(0,0)"/>
<path d="" fill="#FFFFFF" transform="translate(0,0)"/>
<path d="" fill="#FFFFFF" transform="translate(0,0)"/>
<path d="" fill="#FFFFFF" transform="translate(0,0)"/>
<path d="" fill="#FFFFFF" transform="translate(0,0)"/>
<path d="" fill="#FFFFFF" transform="translate(0,0)"/>
<path d="" fill="#FFFFFF" transform="translate(0,0)"/>
<path d="" fill="#FFFFFF" transform="translate(0,0)"/>
<path d="" fill="#FFFFFF" transform="translate(0,0)"/>
<path d="" fill="#FFFFFF" transform="translate(0,0)"/>
<path d="" fill="#FFFFFF" transform="translate(0,0)"/>
<path d="" fill="#FFFFFF" transform="translate(0,0)"/>
<path d="" fill="#FEFEFE" transform="translate(0,0)"/>
<path d="" fill="#FFFFFF" transform="translate(0,0)"/>
<path d="" fill="#FEFEFE" transform="translate(0,0)"/>
<path d="" fill="#FFFFFF" transform="translate(0,0)"/>
<path d="" fill="#FFFFFF" transform="translate(0,0)"/>
<path d="" fill="#FFFFFF" transform="translate(0,0)"/>
<path d="" fill="#FFFFFF" transform="translate(0,0)"/>
<path d="" fill="#FFFFFF" transform="translate(0,0)"/>
<path d="" fill="#FFFFFF" transform="translate(0,0)"/>
<path d="" fill="#FFFFFF" transform="translate(0,0)"/>
<path d="" fill="#FEFEFE" transform="translate(0,0)"/>
<path d="" fill="#FFFFFF" transform="translate(0,0)"/>
<path d="" fill="#FFFFFF" transform="translate(0,0)"/>
<path d="" fill="#FFFFFF" transform="translate(0,0)"/>
<path d="" fill="#FFFFFF" transform="translate(0,0)"/>
<path d="" fill="#FEFEFE" transform="translate(0,0)"/>
<path d="" fill="#FFFFFF" transform="translate(0,0)"/>
<path d="" fill="#FFFFFF" transform="translate(0,0)"/>
<path d="" fill="#FFFFFF" transform="translate(0,0)"/>
<path d="" fill="#FFFFFF" transform="translate(0,0)"/>
<path d="" fill="#FEFEFE" transform="translate(0,0)"/>
<path d="" fill="#FEFEFE" transform="translate(0,0)"/>
<path d="" fill="#FFFFFF" transform="translate(0,0)"/>
<path d="" fill="#FFFFFF" transform="translate(0,0)"/>
<path d="" fill="#FFFFFF" transform="translate(0,0)"/>
<path d="" fill="#FFFFFF" transform="translate(0,0)"/>
<path d="" fill="#FFFFFF" transform="translate(0,0)"/>
<path d="" fill="#FFFFFF" transform="translate(0,0)"/>
<path d="" fill="#FFFFFF" transform="translate(0,0)"/>
<path d="" fill="#FFFFFF" transform="translate(0,0)"/>
<path d="" fill="#FFFFFF" transform="translate(0,0)"/>
<path d="" fill="#FFFFFF" transform="translate(0,0)"/>
<path d="" fill="#FFFFFF" transform="translate(0,0)"/>
<path d="" fill="#FFFFFF" transform="translate(0,0)"/>
<path d="" fill="#FEFEFE" transform="translate(0,0)"/>
<path d="" fill="#FFFFFF" transform="translate(0,0)"/>
<path d="" fill="#FEFEFE" transform="translate(0,0)"/>
<path d="" fill="#FEFEFE" transform="translate(0,0)"/>
<path d="" fill="#FFFFFF" transform="translate(0,0)"/>
<path d="" fill="#FFFFFF" transform="translate(0,0)"/>
<path d="" fill="#FFFFFF" transform="translate(0,0)"/>
<path d="" fill="#FEFEFE" transform="translate(0,0)"/>
<path d="" fill="#FFFFFF" transform="translate(0,0)"/>
<path d="" fill="#FEFEFE" transform="translate(0,0)"/>
<path d="" fill="#FEFEFE" transform="translate(0,0)"/>
<path d="" fill="#FFFFFF" transform="translate(0,0)"/>
<path d="" fill="#FFFFFF" transform="translate(0,0)"/>
<path d="" fill="#FFFFFF" transform="translate(0,0)"/>
<path d="" fill="#FEFEFE" transform="translate(0,0)"/>
<path d="" fill="#FFFFFF" transform="translate(0,0)"/>
<path d="" fill="#FFFFFF" transform="translate(0,0)"/>
<path d="" fill="#FFFFFF" transform="translate(0,0)"/>
<path d="" fill="#FFFFFF" transform="translate(0,0)"/>
<path d="" fill="#FFFFFF" transform="translate(0,0)"/>
<path d="" fill="#FFFFFF" transform="translate(0,0)"/>
<path d="" fill="#FFFFFF" transform="translate(0,0)"/>
<path d="" fill="#FFFFFF" transform="translate(0,0)"/>
<path d="" fill="#FEFEFE" transform="translate(0,0)"/>
<path d="" fill="#FFFFFF" transform="translate(0,0)"/>
<path d="" fill="#FFFFFF" transform="translate(0,0)"/>
<path d="" fill="#FEFEFE" transform="translate(0,0)"/>
<path d="" fill="#FFFFFF" transform="translate(0,0)"/>
<path d="" fill="#FFFFFF" transform="translate(0,0)"/>
<path d="" fill="#FEFEFE" transform="translate(0,0)"/>
<path d="" fill="#FFFFFF" transform="translate(0,0)"/>
<path d="" fill="#FFFFFF" transform="translate(0,0)"/>
<path d="" fill="#FEFEFE" transform="translate(0,0)"/>
<path d="" fill="#FFFFFF" transform="translate(0,0)"/>
<path d="" fill="#FFFFFF" transform="translate(0,0)"/>
<path d="" fill="#FFFFFF" transform="translate(0,0)"/>
<path d="" fill="#FFFFFF" transform="translate(0,0)"/>
<path d="" fill="#FFFFFF" transform="translate(0,0)"/>
<path d="" fill="#FFFFFF" transform="translate(0,0)"/>
<path d="" fill="#FEFEFE" transform="translate(0,0)"/>
<path d="" fill="#FFFFFF" transform="translate(0,0)"/>
<path d="" fill="#FFFFFF" transform="translate(0,0)"/>
<path d="" fill="#FFFFFF" transform="translate(0,0)"/>
<path d="" fill="#FFFFFF" transform="translate(0,0)"/>
<path d="" fill="#FFFFFF" transform="translate(0,0)"/>
<path d="" fill="#FFFFFF" transform="translate(0,0)"/>
<path d="" fill="#FFFFFF" transform="translate(0,0)"/>
<path d="" fill="#FFFFFF" transform="translate(0,0)"/>
<path d="" fill="#FEFEFE" transform="translate(0,0)"/>
<path d="" fill="#FFFFFF" transform="translate(0,0)"/>
<path d="" fill="#FFFFFF" transform="translate(0,0)"/>
<path d="" fill="#FFFFFF" transform="translate(0,0)"/>
<path d="" fill="#FFFFFF" transform="translate(0,0)"/>
<path d="" fill="#FFFFFF" transform="translate(0,0)"/>
<path d="" fill="#FFFFFF" transform="translate(0,0)"/>
<path d="" fill="#FFFFFF" transform="translate(0,0)"/>
<path d="" fill="#FFFFFF" transform="translate(0,0)"/>
<path d="" fill="#FEFEFE" transform="translate(0,0)"/>
<path d="" fill="#FFFFFF" transform="translate(0,0)"/>
<path d="" fill="#FFFFFF" transform="translate(0,0)"/>
<path d="" fill="#FEFEFE" transform="translate(0,0)"/>
<path d="" fill="#FFFFFF" transform="translate(0,0)"/>
<path d="" fill="#FFFFFF" transform="translate(0,0)"/>
<path d="" fill="#FFFFFF" transform="translate(0,0)"/>
<path d="" fill="#FFFFFF" transform="translate(0,0)"/>
<path d="" fill="#FFFFFF" transform="translate(0,0)"/>
<path d="" fill="#FFFFFF" transform="translate(0,0)"/>
<path d="" fill="#FFFFFF" transform="translate(0,0)"/>
<path d="" fill="#FEFEFE" transform="translate(0,0)"/>
<path d="" fill="#FFFFFF" transform="translate(0,0)"/>
<path d="" fill="#FFFFFF" transform="translate(0,0)"/>
<path d="" fill="#FFFFFF" transform="translate(0,0)"/>
<path d="" fill="#FEFEFE" transform="translate(0,0)"/>
<path d="" fill="#FFFFFF" transform="translate(0,0)"/>
<path d="" fill="#FFFFFF" transform="translate(0,0)"/>
<path d="" fill="#FFFFFF" transform="translate(0,0)"/>
<path d="" fill="#FFFFFF" transform="translate(0,0)"/>
<path d="" fill="#FEFEFE" transform="translate(0,0)"/>
<path d="" fill="#FFFFFF" transform="translate(0,0)"/>
<path d="" fill="#FFFFFF" transform="translate(0,0)"/>
<path d="" fill="#FFFFFF" transform="translate(0,0)"/>
<path d="" fill="#FFFFFF" transform="translate(0,0)"/>
<path d="" fill="#FFFFFF" transform="translate(0,0)"/>
<path d="" fill="#FEFEFE" transform="translate(0,0)"/>
<path d="" fill="#FFFFFF" transform="translate(0,0)"/>
<path d="" fill="#FFFFFF" transform="translate(0,0)"/>
<path d="" fill="#FFFFFF" transform="translate(0,0)"/>
<path d="" fill="#FFFFFF" transform="translate(0,0)"/>
<path d="" fill="#FFFFFF" transform="translate(0,0)"/>
<path d="" fill="#FFFFFF" transform="translate(0,0)"/>
<path d="" fill="#FFFFFF" transform="translate(0,0)"/>
<path d="" fill="#FEFEFE" transform="translate(0,0)"/>
<path d="" fill="#FFFFFF" transform="translate(0,0)"/>
<path d="" fill="#FFFFFF" transform="translate(0,0)"/>
<path d="" fill="#FFFFFF" transform="translate(0,0)"/>
<path d="" fill="#FFFFFF" transform="translate(0,0)"/>
<path d="" fill="#FFFFFF" transform="translate(0,0)"/>
<path d="" fill="#FFFEFF" transform="translate(0,0)"/>
<path d="" fill="#FFFFFF" transform="translate(0,0)"/>
<path d="" fill="#FFFFFF" transform="translate(0,0)"/>
<path d="" fill="#FFFFFF" transform="translate(0,0)"/>
<path d="" fill="#FFFFFF" transform="translate(0,0)"/>
<path d="" fill="#FFFFFF" transform="translate(0,0)"/>
<path d="" fill="#FFFFFF" transform="translate(0,0)"/>
<path d="" fill="#FFFFFF" transform="translate(0,0)"/>
<path d="" fill="#FFFFFF" transform="translate(0,0)"/>
<path d="" fill="#FFFFFF" transform="translate(0,0)"/>
<path d="" fill="#FFFFFF" transform="translate(0,0)"/>
<path d="" fill="#FFFFFF" transform="translate(0,0)"/>
<path d="" fill="#FFFFFF" transform="translate(0,0)"/>
<path d="" fill="#FFFFFF" transform="translate(0,0)"/>
<path d="" fill="#FFFFFF" transform="translate(0,0)"/>
<path d="" fill="#FFFFFF" transform="translate(0,0)"/>
<path d="" fill="#FFFFFF" transform="translate(0,0)"/>
<path d="" fill="#FFFFFF" transform="translate(0,0)"/>
<path d="" fill="#FFFFFF" transform="translate(0,0)"/>
<path d="" fill="#FFFFFF" transform="translate(0,0)"/>
<path d="" fill="#FFFFFF" transform="translate(0,0)"/>
<path d="" fill="#FFFFFF" transform="translate(0,0)"/>
<path d="" fill="#FFFFFF" transform="translate(0,0)"/>
<path d="" fill="#FFFFFF" transform="translate(0,0)"/>
<path d="" fill="#FFFFFF" transform="translate(0,0)"/>
<path d="" fill="#FFFFFF" transform="translate(0,0)"/>
<path d="" fill="#FFFFFF" transform="translate(0,0)"/>
<path d="" fill="#FFFFFF" transform="translate(0,0)"/>
<path d="" fill="#FFFFFF" transform="translate(0,0)"/>
<path d="" fill="#FFFFFF" transform="translate(0,0)"/>
<path d="" fill="#FFFFFF" transform="translate(0,0)"/>
<path d="" fill="#FEFEFE" transform="translate(0,0)"/>
<path d="" fill="#FFFFFF" transform="translate(0,0)"/>
<path d="" fill="#FFFFFF" transform="translate(0,0)"/>
<path d="" fill="#FFFFFF" transform="translate(0,0)"/>
<path d="" fill="#FFFFFF" transform="translate(0,0)"/>
<path d="" fill="#FFFFFF" transform="translate(0,0)"/>
<path d="" fill="#FFFFFF" transform="translate(0,0)"/>
<path d="" fill="#FFFFFF" transform="translate(0,0)"/>
<path d="" fill="#FFFFFF" transform="translate(0,0)"/>
<path d="" fill="#FFFFFF" transform="translate(0,0)"/>
<path d="" fill="#FFFFFF" transform="translate(0,0)"/>
<path d="" fill="#FFFFFF" transform="translate(0,0)"/>
<path d="" fill="#FFFFFF" transform="translate(0,0)"/>
<path d="" fill="#FFFFFF" transform="translate(0,0)"/>
<path d="" fill="#FFFFFF" transform="translate(0,0)"/>
<path d="" fill="#FFFFFF" transform="translate(0,0)"/>
<path d="" fill="#FFFFFF" transform="translate(0,0)"/>
<path d="" fill="#FFFFFF" transform="translate(0,0)"/>
<path d="" fill="#FFFFFF" transform="translate(0,0)"/>
<path d="" fill="#FFFFFF" transform="translate(0,0)"/>
<path d="" fill="#FFFFFF" transform="translate(0,0)"/>
<path d="" fill="#FFFFFF" transform="translate(0,0)"/>
<path d="" fill="#FFFFFF" transform="translate(0,0)"/>
<path d="" fill="#FFFFFF" transform="translate(0,0)"/>
<path d="" fill="#FFFFFF" transform="translate(0,0)"/>
<path d="" fill="#FFFFFF" transform="translate(0,0)"/>
<path d="" fill="#FFFFFF" transform="translate(0,0)"/>
<path d="" fill="#FFFFFF" transform="translate(0,0)"/>
<path d="" fill="#FFFFFF" transform="translate(0,0)"/>
<path d="" fill="#FFFFFF" transform="translate(0,0)"/>
<path d="" fill="#FFFFFF" transform="translate(0,0)"/>
<path d="" fill="#FFFFFF" transform="translate(0,0)"/>
<path d="" fill="#FFFFFF" transform="translate(0,0)"/>
<path d="" fill="#FFFFFF" transform="translate(0,0)"/>
<path d="" fill="#FFFFFF" transform="translate(0,0)"/>
<path d="" fill="#FFFFFF" transform="translate(0,0)"/>
<path d="" fill="#FFFFFF" transform="translate(0,0)"/>
<path d="" fill="#FFFFFF" transform="translate(0,0)"/>
<path d="" fill="#FFFFFF" transform="translate(0,0)"/>
<path d="" fill="#FFFFFF" transform="translate(0,0)"/>
<path d="" fill="#FFFFFF" transform="translate(0,0)"/>
<path d="" fill="#FFFFFF" transform="translate(0,0)"/>
<path d="" fill="#FFFFFF" transform="translate(0,0)"/>
<path d="" fill="#FFFFFF" transform="translate(0,0)"/>
<path d="" fill="#FFFFFF" transform="translate(0,0)"/>
<path d="" fill="#FFFFFF" transform="translate(0,0)"/>
<path d="" fill="#FFFFFF" transform="translate(0,0)"/>
<path d="" fill="#FFFFFF" transform="translate(0,0)"/>
<path d="" fill="#FFFFFF" transform="translate(0,0)"/>
<path d="" fill="#FFFFFF" transform="translate(0,0)"/>
<path d="" fill="#FFFFFF" transform="translate(0,0)"/>
<path d="" fill="#FFFFFF" transform="translate(0,0)"/>
<path d="" fill="#FFFFFF" transform="translate(0,0)"/>
<path d="" fill="#FEFEFE" transform="translate(0,0)"/>
<path d="" fill="#FFFFFF" transform="translate(0,0)"/>
<path d="" fill="#FFFFFF" transform="translate(0,0)"/>
<path d="" fill="#FFFFFF" transform="translate(0,0)"/>
<path d="" fill="#FFFFFF" transform="translate(0,0)"/>
<path d="" fill="#FFFFFF" transform="translate(0,0)"/>
<path d="" fill="#FFFFFF" transform="translate(0,0)"/>
<path d="" fill="#FFFFFF" transform="translate(0,0)"/>
<path d="" fill="#FFFFFF" transform="translate(0,0)"/>
<path d="" fill="#FFFFFF" transform="translate(0,0)"/>
<path d="" fill="#FFFFFF" transform="translate(0,0)"/>
<path d="" fill="#FFFFFF" transform="translate(0,0)"/>
<path d="" fill="#FFFFFF" transform="translate(0,0)"/>
<path d="" fill="#FFFFFF" transform="translate(0,0)"/>
<path d="" fill="#FFFFFF" transform="translate(0,0)"/>
<path d="" fill="#FFFFFF" transform="translate(0,0)"/>
<path d="" fill="#FFFFFF" transform="translate(0,0)"/>
<path d="" fill="#FFFFFF" transform="translate(0,0)"/>
<path d="" fill="#FFFFFF" transform="translate(0,0)"/>
<path d="" fill="#FFFFFF" transform="translate(0,0)"/>
<path d="" fill="#FFFFFF" transform="translate(0,0)"/>
<path d="" fill="#FFFFFF" transform="translate(0,0)"/>
<path d="" fill="#FFFFFF" transform="translate(0,0)"/>
<path d="" fill="#FFFFFF" transform="translate(0,0)"/>
<path d="" fill="#FFFFFF" transform="translate(0,0)"/>
<path d="" fill="#FFFFFF" transform="translate(0,0)"/>
<path d="" fill="#FFFFFF" transform="translate(0,0)"/>
<path d="" fill="#FFFFFF" transform="translate(0,0)"/>
<path d="" fill="#FFFFFF" transform="translate(0,0)"/>
<path d="" fill="#FFFFFF" transform="translate(0,0)"/>
<path d="" fill="#FFFFFF" transform="translate(0,0)"/>
<path d="" fill="#FFFFFF" transform="translate(0,0)"/>
<path d="" fill="#FFFFFF" transform="translate(0,0)"/>
<path d="" fill="#FFFFFF" transform="translate(0,0)"/>
<path d="" fill="#FFFFFF" transform="translate(0,0)"/>
<path d="" fill="#FFFFFF" transform="translate(0,0)"/>
<path d="" fill="#FFFFFF" transform="translate(0,0)"/>
<path d="" fill="#FFFFFF" transform="translate(0,0)"/>
<path d="" fill="#FFFFFF" transform="translate(0,0)"/>
<path d="" fill="#FFFFFF" transform="translate(0,0)"/>
<path d="" fill="#FFFFFF" transform="translate(0,0)"/>
<path d="" fill="#FFFFFF" transform="translate(0,0)"/>
<path d="" fill="#FFFFFF" transform="translate(0,0)"/>
<path d="" fill="#FFFFFF" transform="translate(0,0)"/>
<path d="" fill="#FFFFFF" transform="translate(0,0)"/>
<path d="" fill="#FFFFFF" transform="translate(0,0)"/>
<path d="" fill="#FFFFFF" transform="translate(0,0)"/>
<path d="" fill="#FFFFFF" transform="translate(0,0)"/>
<path d="" fill="#FFFFFF" transform="translate(0,0)"/>
<path d="" fill="#FFFFFF" transform="translate(0,0)"/>
<path d="" fill="#FFFFFF" transform="translate(0,0)"/>
<path d="" fill="#FFFFFF" transform="translate(0,0)"/>
<path d="" fill="#FFFFFF" transform="translate(0,0)"/>
<path d="" fill="#FFFFFF" transform="translate(0,0)"/>
<path d="" fill="#FFFFFF" transform="translate(0,0)"/>
<path d="" fill="#FFFFFF" transform="translate(0,0)"/>
<path d="" fill="#FFFFFF" transform="translate(0,0)"/>
<path d="" fill="#FFFFFF" transform="translate(0,0)"/>
<path d="" fill="#FFFFFF" transform="translate(0,0)"/>
<path d="" fill="#FFFFFF" transform="translate(0,0)"/>
<path d="" fill="#FFFFFF" transform="translate(0,0)"/>
<path d="" fill="#FFFFFF" transform="translate(0,0)"/>
<path d="" fill="#FFFFFF" transform="translate(0,0)"/>
<path d="" fill="#FEFEFE" transform="translate(0,0)"/>
<path d="" fill="#FFFFFF" transform="translate(0,0)"/>
<path d="" fill="#FFFFFF" transform="translate(0,0)"/>
<path d="" fill="#FFFFFF" transform="translate(0,0)"/>
<path d="" fill="#FFFFFF" transform="translate(0,0)"/>
<path d="" fill="#FFFFFF" transform="translate(0,0)"/>
<path d="" fill="#FFFFFF" transform="translate(0,0)"/>
<path d="" fill="#FFFFFF" transform="translate(0,0)"/>
<path d="" fill="#FFFFFF" transform="translate(0,0)"/>
<path d="" fill="#FFFFFF" transform="translate(0,0)"/>
<path d="" fill="#FFFFFF" transform="translate(0,0)"/>
<path d="" fill="#FFFFFF" transform="translate(0,0)"/>
<path d="" fill="#FEFEFE" transform="translate(0,0)"/>
<path d="" fill="#FFFFFF" transform="translate(0,0)"/>
<path d="" fill="#FFFFFF" transform="translate(0,0)"/>
<path d="" fill="#FFFFFF" transform="translate(0,0)"/>
<path d="" fill="#FFFFFF" transform="translate(0,0)"/>
<path d="" fill="#FFFFFF" transform="translate(0,0)"/>
<path d="" fill="#FFFFFF" transform="translate(0,0)"/>
<path d="" fill="#FFFFFF" transform="translate(0,0)"/>
<path d="" fill="#FEFEFE" transform="translate(0,0)"/>
<path d="" fill="#FFFFFF" transform="translate(0,0)"/>
<path d="" fill="#FFFFFF" transform="translate(0,0)"/>
<path d="" fill="#FFFFFF" transform="translate(0,0)"/>
<path d="" fill="#FEFEFE" transform="translate(0,0)"/>
<path d="" fill="#FEFEFE" transform="translate(0,0)"/>
<path d="" fill="#FFFFFF" transform="translate(0,0)"/>
<path d="" fill="#FFFFFF" transform="translate(0,0)"/>
<path d="" fill="#FFFFFF" transform="translate(0,0)"/>
<path d="" fill="#FFFFFF" transform="translate(0,0)"/>
<path d="" fill="#FFFFFF" transform="translate(0,0)"/>
<path d="" fill="#FFFFFF" transform="translate(0,0)"/>
<path d="" fill="#FFFFFF" transform="translate(0,0)"/>
<path d="" fill="#FFFFFF" transform="translate(0,0)"/>
<path d="" fill="#FFFFFF" transform="translate(0,0)"/>
<path d="" fill="#FFFFFF" transform="translate(0,0)"/>
<path d="" fill="#FFFFFF" transform="translate(0,0)"/>
<path d="" fill="#FFFFFF" transform="translate(0,0)"/>
<path d="" fill="#FFFFFF" transform="translate(0,0)"/>
<path d="" fill="#FFFFFF" transform="translate(0,0)"/>
</svg>
