<?xml version="1.0" encoding="UTF-8"?>
<svg version="1.1" xmlns="http://www.w3.org/2000/svg" width="263" height="348">
<path d="M0 0 C0.495 0.99 0.495 0.99 1 2 C1.79696289 1.99476318 2.59392578 1.98952637 3.41503906 1.98413086 C7.02668469 1.963341 10.63831771 1.95033339 14.25 1.9375 C16.13138672 1.92493164 16.13138672 1.92493164 18.05078125 1.91210938 C19.85869141 1.90727539 19.85869141 1.90727539 21.703125 1.90234375 C23.36843262 1.89448853 23.36843262 1.89448853 25.06738281 1.88647461 C27.57157379 1.98341507 29.6181156 2.26769724 32 3 C32 2.34 32 1.68 32 1 C32.96333252 1.16298584 33.92666504 1.32597168 34.91918945 1.49389648 C39.38394596 2.12848081 43.79067341 2.12577965 48.29296875 2.09765625 C49.16141922 2.0962413 50.02986969 2.09482635 50.92463684 2.09336853 C53.67896082 2.08780931 56.433201 2.07527705 59.1875 2.0625 C61.04882693 2.05747858 62.91015516 2.0529168 64.77148438 2.04882812 C68.86352376 2.0390396 72.95552052 2.02486363 77.04753113 2.00672913 C79.0316769 1.99989083 81.01584244 2 83 2 C84.42699219 1.96519531 84.42699219 1.96519531 85.8828125 1.9296875 C94.212601 1.78918504 103.51223477 1.81566061 111 6 C115 10.32432432 115 10.32432432 115 13 C115.99 13 116.98 13 118 13 C118.99 15.475 118.99 15.475 120 18 C120.66 18 121.32 18 122 18 C123.19921875 19.22265625 123.19921875 19.22265625 124.6875 21.0625 C129.04047172 26.2287658 133.87776607 30.87927157 138.7565918 35.54321289 C145.6082545 42.23592052 147.82097983 48.17501035 148.07080078 57.69921875 C148.09802696 60.63370572 148.08753171 63.56551334 148.0625 66.5 C148.05798828 67.51320313 148.05347656 68.52640625 148.04882812 69.5703125 C148.03714593 72.04693827 148.02076582 74.52343657 148 77 C148.66 77.33 149.32 77.66 150 78 C149.34 78 148.68 78 148 78 C148.0721875 78.8559375 148.144375 79.711875 148.21875 80.59375 C149.76693665 102.09634233 149.15104291 123.75337266 148.68060303 145.29168701 C148.6439174 146.99609862 148.60988391 148.70056966 148.57867432 150.40509033 C148.09326694 175.9738765 148.09326694 175.9738765 140.58203125 183.40234375 C134.95648419 188.39158214 130.14438577 189.29802936 122.81225586 189.31884766 C121.5890822 189.33391184 121.5890822 189.33391184 120.34119797 189.34928036 C117.63241997 189.38022123 114.92374325 189.39721968 112.21484375 189.4140625 C110.29872356 189.43287962 108.38261114 189.45250317 106.46650696 189.47288513 C101.3462171 189.52475388 96.22590146 189.56427557 91.10548401 189.60109329 C86.89429908 189.63287236 82.68319372 189.67183628 78.47207069 189.71086216 C47.98172612 189.99238764 17.49157004 190.14603242 -13 190 C-13 189.34 -13 188.68 -13 188 C-13.721875 188.103125 -14.44375 188.20625 -15.1875 188.3125 C-20.08179695 187.76868923 -22.24860992 183.87323712 -25.3125 180.3125 C-27 178 -27 178 -27 176 C-27.99 176 -28.98 176 -30 176 C-29.67 175.01 -29.34 174.02 -29 173 C-29.27769908 170.6593935 -29.60539977 168.32375692 -30 166 C-30.33 166 -30.66 166 -31 166 C-30.979375 164.88625 -30.95875 163.7725 -30.9375 162.625 C-30.73619282 159.16784079 -30.73619282 159.16784079 -32 157 C-31.70241581 154.6618385 -31.36760731 152.32817964 -31 150 C-30.7763932 147.0745356 -30.7763932 147.0745356 -32 145 C-31.34 145 -30.68 145 -30 145 C-30.144375 144.484375 -30.28875 143.96875 -30.4375 143.4375 C-32.546875 134.296875 -32.546875 134.296875 -31 130 C-31.66 129.67 -32.32 129.34 -33 129 C-32.34 129 -31.68 129 -31 129 C-31 127.7625 -31 126.525 -31 125.25 C-31 122.5 -31 119.75 -31 117 C-31.185625 116.278125 -31.37125 115.55625 -31.5625 114.8125 C-31.706875 114.214375 -31.85125 113.61625 -32 113 C-31.505 112.505 -31.505 112.505 -31 112 C-31.33 111.34 -31.66 110.68 -32 110 C-31.67926621 108.66357988 -31.34415253 107.3305818 -31 106 C-30.95192051 103.87289981 -30.95192051 103.87289981 -31.12109375 101.671875 C-31.16943359 100.87265625 -31.21777344 100.0734375 -31.26757812 99.25 C-31.32365234 98.425 -31.37972656 97.6 -31.4375 96.75 C-31.48970703 95.90953125 -31.54191406 95.0690625 -31.59570312 94.203125 C-31.72495689 92.1350648 -31.86174274 90.0674778 -32 88 C-31.01 87.505 -31.01 87.505 -30 87 C-30.495 84.03 -30.495 84.03 -31 81 C-30.34 81 -29.68 81 -29 81 C-29 80.01 -29 79.02 -29 78 C-29.66 78 -30.32 78 -31 78 C-31 75.33333333 -31 72.66666667 -31 70 C-31.020625 69.21625 -31.04125 68.4325 -31.0625 67.625 C-31 65 -31 65 -30 62 C-30.66 61.34 -31.32 60.68 -32 60 C-31.34 59.01 -30.68 58.02 -30 57 C-30.495 55.515 -30.495 55.515 -31 54 C-31.06937062 51.77181559 -31.08457084 49.54165476 -31.0625 47.3125 C-31.05347656 46.13300781 -31.04445312 44.95351562 -31.03515625 43.73828125 C-31.02355469 42.83464844 -31.01195312 41.93101563 -31 41 C-30.67 41 -30.34 41 -30 41 C-29.94608007 39.20866022 -29.90724429 37.41686101 -29.875 35.625 C-29.85179687 34.62726563 -29.82859375 33.62953125 -29.8046875 32.6015625 C-29.72783152 29.83737827 -29.72783152 29.83737827 -32 28 C-31.01 28 -30.02 28 -29 28 C-29.04640625 27.443125 -29.0928125 26.88625 -29.140625 26.3125 C-29.47880079 19.16249749 -27.96373185 14.46906861 -23.3046875 9.015625 C-17.30720116 3.13954527 -11.06184694 1.95769542 -2.875 1.875 C-1.92625 1.91625 -0.9775 1.9575 0 2 C0 1.34 0 0.68 0 0 Z M-12 21 C-14.28781542 24.43172313 -14.25270233 25.67463742 -14.26069641 29.71125793 C-14.26778122 30.90152084 -14.27486603 32.09178375 -14.28216553 33.31811523 C-14.27968811 34.62570801 -14.27721069 35.93330078 -14.2746582 37.28051758 C-14.27900502 38.67022476 -14.28418807 40.05992953 -14.29014587 41.44963074 C-14.30355305 45.22662194 -14.30411246 49.00351317 -14.30158257 52.78052354 C-14.30051365 55.93399827 -14.30539442 59.08745271 -14.310188 62.24092311 C-14.32128993 69.68252208 -14.32171727 77.12407058 -14.31567383 84.56567383 C-14.30963763 92.23930362 -14.32193441 99.91274988 -14.3432439 107.58634835 C-14.36086917 114.17584426 -14.36685965 120.7652818 -14.36360615 127.3548004 C-14.36179402 131.28974912 -14.36442204 135.22456704 -14.37832069 139.1594944 C-14.39090891 142.8621692 -14.38894572 146.56455859 -14.37590981 150.26722908 C-14.37242136 152.26992666 -14.38371577 154.27263299 -14.39547729 156.27529907 C-14.38846298 157.47402145 -14.38144867 158.67274384 -14.3742218 159.90779114 C-14.37438954 160.94552075 -14.37455729 161.98325037 -14.37473011 163.05242634 C-13.92862576 166.56141963 -12.80665434 168.97493882 -11 172 C-8.40865377 173.29567312 -6.5262626 173.13471393 -3.62332153 173.14717102 C-2.48202789 173.15432632 -1.34073425 173.16148163 -0.16485596 173.16885376 C1.09336975 173.17154266 2.35159546 173.17423157 3.64794922 173.17700195 C4.9816404 173.18326592 6.31532983 173.18991266 7.64901733 173.19691467 C11.27714486 173.21432873 14.90525921 173.2248772 18.53341818 173.2331202 C20.79919889 173.23826878 23.06497551 173.24434453 25.33075333 173.25063133 C32.41714958 173.26968328 39.5035354 173.28391524 46.58995235 173.2922433 C54.77530752 173.30202127 62.96039266 173.3283551 71.14565265 173.36874419 C77.4692724 173.39887879 83.79281462 173.41370957 90.11650479 173.41702431 C93.89497991 173.41937757 97.67316656 173.42837338 101.45156479 173.45348549 C105.00570411 173.47672563 108.55936419 173.48101625 112.11355972 173.47072411 C114.04034773 173.46999084 115.96711118 173.48911004 117.89379883 173.50878906 C119.04073212 173.50184525 120.18766541 173.49490143 121.36935425 173.48774719 C122.36598021 173.49013555 123.36260616 173.4925239 124.38943291 173.49498463 C127.72186049 172.86312941 128.88444401 171.5903807 131 169 C132.37518964 166.24962071 132.09537 164.00171431 132.0625 160.9375 C132.05347656 159.85339844 132.04445312 158.76929688 132.03515625 157.65234375 C132.02355469 156.77707031 132.01195312 155.90179688 132 155 C132 98 132 98 132.03173828 94.61352539 C132.06777103 90.62690414 132.09084804 86.64030038 132.10986328 82.65356445 C132.11994411 80.9279538 132.13360871 79.20236032 132.15087891 77.47680664 C132.17507518 74.99621369 132.18646947 72.51584545 132.1953125 70.03515625 C132.20563507 69.26115982 132.21595764 68.48716339 132.22659302 67.68971252 C132.22699271 65.79163831 132.12232065 63.8941287 132 62 C130.14120977 59.70393694 130.14120977 59.70393694 127.21484375 59.8046875 C126.13332031 59.82789063 125.05179688 59.85109375 123.9375 59.875 C122.85339844 59.89304688 121.76929688 59.91109375 120.65234375 59.9296875 C119.33943359 59.96449219 119.33943359 59.96449219 118 60 C109.88587407 60 102.54354035 57.44510867 96.75 51.8125 C92.18320148 44.47300238 91.50899558 36.92049492 91.3125 28.4375 C91.27833984 27.42880859 91.24417969 26.42011719 91.20898438 25.38085938 C91.12736719 22.92068432 91.05794324 20.46082691 91 18 C90.34 19.32 89.68 20.64 89 22 C88.34 22 87.68 22 87 22 C86.505 21.01 86.505 21.01 86 20 C85.01 19.505 85.01 19.505 84 19 C84 19.66 84 20.32 84 21 C82.35 20.67 80.7 20.34 79 20 C79 19.34 79 18.68 79 18 C78.21753906 18 77.43507813 18 76.62890625 18 C73.41927083 18 70.20963542 18 67 18 C66.34 18.185625 65.68 18.37125 65 18.5625 C64.34 18.706875 63.68 18.85125 63 19 C62.505 18.505 62.505 18.505 62 18 C60.02206391 17.92717467 58.04166299 17.9163199 56.0625 17.9375 C54.98097656 17.94652344 53.89945312 17.95554687 52.78515625 17.96484375 C51.40650391 17.98224609 51.40650391 17.98224609 50 18 C47.60090402 18 45.20246461 17.9750626 42.8034668 17.95239258 C36.74410689 17.89830848 30.68477425 17.86371068 24.62524414 17.83520508 C22.00541576 17.82009912 19.38561273 17.79961324 16.76586914 17.77368164 C12.99358912 17.73730226 9.22164213 17.72027675 5.44921875 17.70703125 C4.27824142 17.69154739 3.1072641 17.67606354 1.90080261 17.66011047 C0.80649429 17.65988388 -0.28781403 17.65965729 -1.4152832 17.65942383 C-2.37521683 17.65276199 -3.33515045 17.64610016 -4.32417297 17.63923645 C-7.5473363 18.07379363 -9.38741784 19.08734331 -12 21 Z M87 18 C88 20 88 20 88 20 Z M107 27 C107 27.66 107 28.32 107 29 C107.66 28.67 108.32 28.34 109 28 C108.34 27.67 107.68 27.34 107 27 Z M109 29 C108.35804383 32.68648099 107.88122036 36.2530424 108 40 C110.46829524 43.14146666 112.19091361 43.78087244 116 44.8125 C118.91286007 44.99455375 121.19020883 44.74376825 124 44 C119.60831493 38.72997792 115.0573621 33.64697949 110 29 C109.67 29 109.34 29 109 29 Z M107 30 C107 32.31 107 34.62 107 37 C107.33 37 107.66 37 108 37 C108 34.69 108 32.38 108 30 C107.67 30 107.34 30 107 30 Z M-30 48 C-29 52 -29 52 -29 52 Z M-30 102 C-29 106 -29 106 -29 106 Z M-30 108 C-29 110 -29 110 -29 110 Z M-30 115 C-29 117 -29 117 -29 117 Z M-30 126 C-30 127.65 -30 129.3 -30 131 C-29.67 131 -29.34 131 -29 131 C-29 129.35 -29 127.7 -29 126 C-29.33 126 -29.66 126 -30 126 Z " fill="#E3E3E3" transform="translate(72,38)"/>
<path d="M0 0 C1.670625 0.2475 1.670625 0.2475 3.375 0.5 C6.72032033 1.0455458 6.72032033 1.0455458 9 1 C9.09920868 6.99563827 9.17162945 12.990794 9.21972656 18.98706055 C9.23978632 21.02490568 9.26704099 23.06269366 9.30175781 25.1003418 C9.35052434 28.03709047 9.37302541 30.97307518 9.390625 33.91015625 C9.41127014 34.81459976 9.43191528 35.71904327 9.45318604 36.65089417 C9.4552881 42.63696841 8.49179524 46.09848615 5 51 C0.47223103 54.6685839 -4.36997068 57.12538876 -10.27734375 56.84375 C-15.52868998 55.64937706 -20.40192784 54.17840638 -24 50 C-25.21208435 47.69505272 -26.10183927 45.4581241 -27 43 C-25.515 42.505 -25.515 42.505 -24 42 C-23.67 41.34 -23.34 40.68 -23 40 C-23 40.66 -23 41.32 -23 42 C-21.515 41.505 -21.515 41.505 -20 41 C-17 41 -17 41 -14 42 C-14.66 42 -15.32 42 -16 42 C-14.33428029 45.18927792 -14.33428029 45.18927792 -11.5 45.75 C-9.00370828 46.22435122 -9.00370828 46.22435122 -7 45 C-6.34 44.9175 -5.68 44.835 -5 44.75 C-2.71114717 44.15311231 -2.71114717 44.15311231 -1.75 41.4375 C-1.5025 40.633125 -1.255 39.82875 -1 39 C-1.70125 39.144375 -2.4025 39.28875 -3.125 39.4375 C-4.07375 39.623125 -5.0225 39.80875 -6 40 C-6.9075 40.2475 -7.815 40.495 -8.75 40.75 C-13.83485042 41.14114234 -18.61453185 39.95908012 -22.6171875 36.671875 C-27.70489028 30.95197246 -28.40976831 25.04292152 -28.25 17.68359375 C-27.65533594 11.30024676 -24.88513881 7.17024045 -20 3 C-15.75268696 0.47981011 -11.83022062 0.4069658 -7 1 C-3.9375 2.5 -3.9375 2.5 -2 4 C-1.34 2.68 -0.68 1.36 0 0 Z M-15.0625 11.375 C-17.95124047 15.28877741 -18.21768128 19.20323759 -18 24 C-16.65293704 27.07900106 -15.35343805 28.64656195 -13 31 C-7.32106904 31.70463784 -7.32106904 31.70463784 -2.5 29.125 C0.07154067 23.76762361 -0.1304728 18.50628428 -2.0625 12.9375 C-4.82173776 10.17826224 -7.19004757 10.20781559 -11 10 C-13.13578599 9.81509993 -13.13578599 9.81509993 -15.0625 11.375 Z M-2 36 C-2.33 36.66 -2.66 37.32 -3 38 C-2.34 38 -1.68 38 -1 38 C-1.33 37.34 -1.66 36.68 -2 36 Z " fill="#DFDFDF" transform="translate(160,273)"/>
<path d="M0 0 C0.6770549 -0.00365067 1.3541098 -0.00730133 2.05168152 -0.01106262 C4.27812182 -0.01913458 6.50382665 -0.0055882 8.73022461 0.0090332 C10.2829132 0.00955216 11.83560246 0.00903309 13.38829041 0.00752258 C16.63721568 0.00761215 19.88589201 0.01801115 23.13476562 0.03613281 C27.29661764 0.05883845 31.45810676 0.05935904 35.6200037 0.05261517 C38.82420572 0.04927223 42.02832517 0.05591107 45.23251152 0.0657444 C46.7670899 0.06958966 48.30167747 0.07074741 49.83625984 0.06915855 C51.98086143 0.06878723 54.1249994 0.08142567 56.26953125 0.09765625 C57.48911026 0.10226364 58.70868927 0.10687103 59.96522522 0.11161804 C62.96608489 0.36358354 64.61285441 0.68065712 67.07006836 2.37231445 C69.55843801 6.10486893 69.61233388 7.9567238 69.07006836 12.37231445 C65.60747864 16.35953898 62.1007892 16.97112621 57.07006836 17.37231445 C53.11768996 17.50955273 49.16906299 17.51250095 45.21459961 17.50512695 C43.50756111 17.50656204 43.50756111 17.50656204 41.76603699 17.50802612 C39.36306706 17.50870492 36.96009528 17.50687162 34.55712891 17.50268555 C30.91231066 17.49735793 27.26761704 17.50262799 23.62280273 17.5090332 C21.27840142 17.50837189 18.93400019 17.50708962 16.58959961 17.50512695 C15.51418411 17.50715118 14.43876862 17.50917542 13.33076477 17.51126099 C8.07885994 17.49530604 2.84285573 17.37077249 -2.39990234 17.05151367 C-3.34267532 16.99470428 -4.2854483 16.9378949 -5.25679016 16.87936401 C-8.39214102 16.28464118 -10.37335721 15.26944278 -12.92993164 13.37231445 C-14.2792467 9.32436927 -13.47343917 7.30124272 -11.92993164 3.37231445 C-8.00394573 0.28035045 -4.91612838 -0.00253556 0 0 Z " fill="#E3E3E3" transform="translate(92.929931640625,102.627685546875)"/>
<path d="M0 0 C1.29585916 0.42492126 2.5866044 0.86545882 3.875 1.3125 C4.95394531 1.67794922 4.95394531 1.67794922 6.0546875 2.05078125 C8 3 8 3 10 6 C10.67092652 12.15015974 10.67092652 12.15015974 8.125 15.375 C4.41537112 18.21177503 2.07914559 18.13958307 -2.57348633 18.17700195 C-3.24849686 18.18357315 -3.92350739 18.19014435 -4.61897278 18.19691467 C-6.85666004 18.21665263 -9.09428015 18.22831158 -11.33203125 18.23828125 C-12.47833795 18.24439454 -12.47833795 18.24439454 -13.64780235 18.25063133 C-17.69301458 18.27149468 -21.73819286 18.28579495 -25.78344727 18.29516602 C-29.9599945 18.30622824 -34.13600862 18.34062461 -38.31236744 18.38033772 C-41.52517176 18.40649503 -44.73784892 18.41485705 -47.95075035 18.41844749 C-49.49012539 18.42331617 -51.02949464 18.4349383 -52.56876564 18.45348549 C-54.72571547 18.47785868 -56.88128444 18.47691619 -59.03833008 18.4699707 C-60.8779406 18.47877007 -60.8779406 18.47877007 -62.75471497 18.48774719 C-66.63967502 17.90386062 -68.27997613 16.79427675 -71 14 C-72.1659741 9.99196403 -72.43240501 7.94717289 -70.6875 4.125 C-69 2 -69 2 -67 1 C-64.91161392 0.91345358 -62.82038212 0.89294844 -60.73022461 0.90234375 C-59.41223373 0.90564697 -58.09424286 0.9089502 -56.73631287 0.91235352 C-56.03006712 0.91647247 -55.32382137 0.92059143 -54.59617424 0.92483521 C-52.39040537 0.93756892 -50.18469642 0.94410647 -47.97889709 0.94897461 C-43.29840454 0.9604169 -38.61796126 0.97966629 -33.9375 1 C-28.51200786 1.02355115 -23.08654374 1.04395451 -17.66101265 1.05593872 C-15.48221738 1.06244809 -13.3035074 1.07495523 -11.1247406 1.08764648 C-9.80990189 1.09094971 -8.49506317 1.09425293 -7.14038086 1.09765625 C-5.39403603 1.10551147 -5.39403603 1.10551147 -3.6124115 1.11352539 C-1.07268619 1.29793315 -1.07268619 1.29793315 0 0 Z " fill="#E1E1E1" transform="translate(152,145)"/>
<path d="M0 0 C0.33 0.66 0.66 1.32 1 2 C2.216875 1.731875 3.43375 1.46375 4.6875 1.1875 C8.24998682 0.74768681 8.7089416 0.7817062 11.75 3.0625 C12.4925 4.031875 13.235 5.00125 14 6 C15.11375 7.423125 15.11375 7.423125 16.25 8.875 C18.91522328 13.63432729 19.4256877 17.75854766 18.375 23.0625 C17.12329268 27.2839443 15.28524311 29.99435205 12 33 C6.43488892 35.81441686 1.15414593 36.42442386 -5 36 C-5.99 35.67 -6.98 35.34 -8 35 C-8 40.94 -8 46.88 -8 53 C-8.99 53 -9.98 53 -11 53 C-11 53.66 -11 54.32 -11 55 C-14.07536854 54.34099246 -16.07735566 53.46132217 -19 52 C-19 35.5 -19 19 -19 2 C-15.70039859 0.3501993 -12.00872116 0.61741639 -8.375 0.4375 C-7.57320312 0.39431641 -6.77140625 0.35113281 -5.9453125 0.30664062 C-3.9637489 0.20048543 -1.98189729 0.09973145 0 0 Z M-8 11 C-8 16.28 -8 21.56 -8 27 C-2.39787767 27 0.95340107 26.9790584 6 25 C7.92290547 22.65907161 7.99836074 21.0131141 8.375 18 C8.2466271 14.95339711 8.2466271 14.95339711 6.3671875 12.828125 C3.30563613 10.4637586 1.56900833 10.58395616 -2.25 10.75 C-4.1475 10.8325 -6.045 10.915 -8 11 Z " fill="#DFDFDF" transform="translate(73,261)"/>
<path d="M0 0 C4.12476594 2.28211349 7.1561008 5.08464813 9.02734375 9.4453125 C9.89984891 13.22980364 10.0828144 16.90581659 10.15234375 20.78125 C10.18038086 21.87421387 10.18038086 21.87421387 10.20898438 22.98925781 C10.14810855 28.12858212 9.04685677 31.10550424 5.65234375 35.15625 C3.6171875 36.80078125 3.6171875 36.80078125 1.58984375 37.96875 C0.91824219 38.36707031 0.24664062 38.76539063 -0.4453125 39.17578125 C-5.38815466 41.72332413 -8.41714937 40.73982611 -13.55078125 39.21875 C-17.70569412 37.64034735 -20.72778043 35.78954483 -23.34765625 32.15625 C-24.38672372 29.52872306 -25.12819997 26.98723157 -25.7421875 24.23046875 C-25.94199219 23.54597656 -26.14179688 22.86148437 -26.34765625 22.15625 C-27.00765625 21.82625 -27.66765625 21.49625 -28.34765625 21.15625 C-26.22078389 12.45182794 -24.32807703 5.71369342 -16.72265625 0.28125 C-11.16210406 -1.5722674 -5.59277837 -2.01005013 0 0 Z M-13.78515625 9.96875 C-15.63827535 12.11507896 -15.63827535 12.11507896 -15.34765625 15.15625 C-14.02765625 14.82625 -12.70765625 14.49625 -11.34765625 14.15625 C-12.00765625 13.82625 -12.66765625 13.49625 -13.34765625 13.15625 C-13.34765625 12.49625 -13.34765625 11.83625 -13.34765625 11.15625 C-12.68765625 11.15625 -12.02765625 11.15625 -11.34765625 11.15625 C-11.01765625 11.81625 -10.68765625 12.47625 -10.34765625 13.15625 C-7.33849116 14.23095182 -4.51872064 14.24433512 -1.34765625 14.15625 C-1.69210506 11.68358235 -1.69210506 11.68358235 -2.34765625 9.15625 C-6.3559644 7.15209592 -10.21576835 7.31458977 -13.78515625 9.96875 Z M-14.34765625 22.15625 C-14.34765625 22.48625 -14.34765625 22.81625 -14.34765625 23.15625 C-12.36765625 23.15625 -10.38765625 23.15625 -8.34765625 23.15625 C-8.34765625 22.82625 -8.34765625 22.49625 -8.34765625 22.15625 C-10.32765625 22.15625 -12.30765625 22.15625 -14.34765625 22.15625 Z M-15.34765625 24.15625 C-15.01765625 25.14625 -14.68765625 26.13625 -14.34765625 27.15625 C-12.69765625 26.82625 -11.04765625 26.49625 -9.34765625 26.15625 C-9.01765625 27.80625 -8.68765625 29.45625 -8.34765625 31.15625 C-5.52328427 31.11923724 -5.52328427 31.11923724 -2.34765625 30.15625 C-0.69765625 28.17625 0.95234375 26.19625 2.65234375 24.15625 C-3.28765625 24.15625 -9.22765625 24.15625 -15.34765625 24.15625 Z M5.65234375 24.15625 C5.65234375 24.81625 5.65234375 25.47625 5.65234375 26.15625 C6.31234375 26.15625 6.97234375 26.15625 7.65234375 26.15625 C7.65234375 25.49625 7.65234375 24.83625 7.65234375 24.15625 C6.99234375 24.15625 6.33234375 24.15625 5.65234375 24.15625 Z M-13.34765625 27.15625 C-12.35765625 28.64125 -12.35765625 28.64125 -11.34765625 30.15625 C-10.68765625 29.82625 -10.02765625 29.49625 -9.34765625 29.15625 C-9.67765625 28.49625 -10.00765625 27.83625 -10.34765625 27.15625 C-11.33765625 27.15625 -12.32765625 27.15625 -13.34765625 27.15625 Z " fill="#DDDDDD" transform="translate(200.34765625,274.84375)"/>
<path d="M0 0 C4.01455569 2.21210211 5.61278503 3.3383551 7.0625 7.6875 C9.66679539 29.99073175 9.66679539 29.99073175 7.0625 38.6875 C4.82399551 40.22390736 3.65363693 40.72227276 0.9375 40.5625 C-1.512637 39.41910273 -1.98182617 38.15632406 -2.9375 35.6875 C-3.2675 36.3475 -3.5975 37.0075 -3.9375 37.6875 C-6.27083333 38.02083333 -8.60416667 38.35416667 -10.9375 38.6875 C-11.2675 39.3475 -11.5975 40.0075 -11.9375 40.6875 C-15.267581 41.06808069 -16.65686804 40.87230641 -19.5 39 C-20.304375 38.236875 -21.10875 37.47375 -21.9375 36.6875 C-22.700625 35.965625 -23.46375 35.24375 -24.25 34.5 C-26.61647414 30.55587643 -26.76619994 27.18035359 -25.9375 22.6875 C-24.0625 19.625 -24.0625 19.625 -21.9375 17.6875 C-21.2775 17.6875 -20.6175 17.6875 -19.9375 17.6875 C-19.6075 17.0275 -19.2775 16.3675 -18.9375 15.6875 C-16.06640625 15.08984375 -16.06640625 15.08984375 -12.5 14.625 C-8.07046298 14.14691296 -8.07046298 14.14691296 -3.9375 12.6875 C-4.2675 11.3675 -4.5975 10.0475 -4.9375 8.6875 C-8.95880715 8.41114839 -8.95880715 8.41114839 -12.9375 8.6875 C-14.99020463 10.52938612 -14.99020463 10.52938612 -15.9375 12.6875 C-20.3925 11.6975 -20.3925 11.6975 -24.9375 10.6875 C-23.61521571 5.00167757 -21.53494698 2.9713907 -16.9375 -0.3125 C-11.47643672 -2.13285443 -5.37715896 -2.18984512 0 0 Z M-7.9375 21.6875 C-6.6175 22.0175 -5.2975 22.3475 -3.9375 22.6875 C-4.2675 23.6775 -4.5975 24.6675 -4.9375 25.6875 C-4.2775 26.0175 -3.6175 26.3475 -2.9375 26.6875 C-2.9375 25.0375 -2.9375 23.3875 -2.9375 21.6875 C-4.5875 21.6875 -6.2375 21.6875 -7.9375 21.6875 Z M-15.9375 24.6875 C-15.61708603 27.29030568 -15.61708603 27.29030568 -14.9375 29.6875 C-14.15375 29.48125 -13.37 29.275 -12.5625 29.0625 C-11.263125 28.876875 -11.263125 28.876875 -9.9375 28.6875 C-9.2775 29.3475 -8.6175 30.0075 -7.9375 30.6875 C-6.6175 30.0275 -5.2975 29.3675 -3.9375 28.6875 C-5.24306798 26.07636404 -6.69317018 24.55777485 -8.9375 22.6875 C-12.44850054 22.18592849 -13.38648017 22.13648017 -15.9375 24.6875 Z " fill="#DFDFDF" transform="translate(119.9375,275.3125)"/>
<path d="M0 0 C1.95609885 3.91219769 2.24163531 5.25282176 2.1953125 9.421875 C2.18886719 10.44667969 2.18242187 11.47148438 2.17578125 12.52734375 C2.15902344 13.59082031 2.14226562 14.65429688 2.125 15.75 C2.11597656 16.82894531 2.10695312 17.90789062 2.09765625 19.01953125 C2.07411305 21.67991278 2.04122799 24.33984336 2 27 C2.66 27.33 3.32 27.66 4 28 C3.34 28 2.68 28 2 28 C2.0721875 28.8559375 2.144375 29.711875 2.21875 30.59375 C3.83648659 53.06231368 3.10480299 75.68585566 2.5625 98.1875 C2.5429425 99.04377991 2.52338501 99.90005981 2.50323486 100.7822876 C2.44603572 103.22350945 2.38239467 105.66447037 2.31640625 108.10546875 C2.29968369 108.83117569 2.28296112 109.55688263 2.26573181 110.30458069 C2.15789552 113.97387462 1.85518875 117.42664143 1 121 C0.67 121 0.34 121 0 121 C0 81.07 0 41.14 0 0 Z " fill="#DADBDB" transform="translate(218,88)"/>
<path d="M0 0 C33.66 0 67.32 0 102 0 C102 8.25 102 16.5 102 25 C99.08520867 22.08520867 99.57778933 18.91441455 99.4375 15 C99.43198027 9.84255203 99.43198027 9.84255203 98 5 C95.65092125 4.31068656 95.65092125 4.31068656 92.9375 3.875 C92.01839844 3.70742188 91.09929687 3.53984375 90.15234375 3.3671875 C89.44207031 3.24601562 88.73179687 3.12484375 88 3 C88 2.34 88 1.68 88 1 C84.37 1 80.74 1 77 1 C76.67 1.99 76.34 2.98 76 4 C75.01 3.01 75.01 3.01 74 2 C73.01 2 72.02 2 71 2 C70.06027344 1.98839844 69.12054688 1.97679687 68.15234375 1.96484375 C67.09144531 1.95582031 66.03054687 1.94679687 64.9375 1.9375 C63.87402344 1.92589844 62.81054688 1.91429687 61.71484375 1.90234375 C59.03252964 1.81091364 59.03252964 1.81091364 57 3 C57 2.34 57 1.68 57 1 C38.19 1 19.38 1 0 1 C0 0.67 0 0.34 0 0 Z M96 1 C97 3 97 3 97 3 Z " fill="#D1D1D1" transform="translate(63,55)"/>
<path d="M0 0 C1.97230911 1.18323231 1.97230911 1.18323231 4 3 C4.47657394 5.30569744 4.47657394 5.30569744 4.4430542 8.06828308 C4.4401387 9.11576218 4.43722321 10.16324127 4.43421936 11.24246216 C4.41048752 12.39116791 4.38675568 13.53987366 4.36230469 14.72338867 C4.35313522 15.9332695 4.34396576 17.14315033 4.33451843 18.38969421 C4.30543192 21.70810391 4.25848452 25.0253651 4.20364666 28.34338927 C4.15054732 31.81059279 4.1202035 35.27799286 4.08746338 38.74543762 C4.02199644 45.31171737 3.93601524 51.87756242 3.84269357 58.44349891 C3.7374484 65.91847191 3.65502605 73.39364174 3.5745368 80.86891592 C3.40845008 96.24630498 3.21364988 111.62319379 3 127 C2.67 127 2.34 127 2 127 C1.99576806 126.38192915 1.99153612 125.7638583 1.98717594 125.12705803 C1.88380959 110.07851233 1.77516296 95.03001477 1.66066074 79.98155022 C1.60541499 72.70418752 1.55194739 65.42681993 1.50268555 58.14941406 C1.45973757 51.80541929 1.41343318 45.46145935 1.36312145 39.11751854 C1.3366058 35.75938602 1.31175527 32.40126002 1.29092598 29.04308701 C1.26681254 25.29153393 1.23676722 21.54007201 1.20532227 17.78857422 C1.1995668 16.67870651 1.19381134 15.56883881 1.18788147 14.42533875 C1.14103155 9.51311003 1.03887836 4.82627607 0 0 Z " fill="#F3F2F2" transform="translate(215,82)"/>
<path d="M0 0 C0.33 0 0.66 0 1 0 C1 6.27 1 12.54 1 19 C2.98 19 4.96 19 7 19 C7 15.37 7 11.74 7 8 C7.33 8 7.66 8 8 8 C8.33 12.62 8.66 17.24 9 22 C8.01 22 7.02 22 6 22 C6 22.66 6 23.32 6 24 C2.92463146 23.34099246 0.92264434 22.46132217 -2 21 C-2 16.38 -2 11.76 -2 7 C-1.34 7 -0.68 7 0 7 C0 4.69 0 2.38 0 0 Z " fill="#E5E5E5" transform="translate(56,292)"/>
<path d="M0 0 C2.23940505 4.4788101 1.18584417 10.61859443 1.18530273 15.60302734 C1.18748476 17.85924259 1.20563167 20.11496534 1.22460938 22.37109375 C1.22754431 23.80729 1.22952844 25.24348856 1.23046875 26.6796875 C1.23457764 27.98663574 1.23868652 29.29358398 1.24291992 30.64013672 C1.01891033 33.73844825 0.64796546 35.42089528 -1 38 C-1.33 38 -1.66 38 -2 38 C-2.04966189 33.55258682 -2.08584293 29.1053232 -2.10986328 24.65771484 C-2.11988339 23.14661851 -2.13350321 21.63554138 -2.15087891 20.12451172 C-2.17530392 17.94493858 -2.18652307 15.76562316 -2.1953125 13.5859375 C-2.20578613 12.2767334 -2.21625977 10.9675293 -2.22705078 9.61865234 C-2.00366763 6.0584534 -1.2935223 3.30765738 0 0 Z " fill="#E9E9E9" transform="translate(57,59)"/>
<path d="M0 0 C1.670625 0.2475 1.670625 0.2475 3.375 0.5 C6.72032033 1.0455458 6.72032033 1.0455458 9 1 C9 14.2 9 27.4 9 41 C8.67 41 8.34 41 8 41 C8 28.46 8 15.92 8 3 C5.69 3 3.38 3 1 3 C1 4.65 1 6.3 1 8 C-2.33333333 6.33333333 -5.66666667 4.66666667 -9 3 C-7.1875 2.375 -7.1875 2.375 -5 2 C-4.01 2.66 -3.02 3.32 -2 4 C-1.34 2.68 -0.68 1.36 0 0 Z " fill="#CACACB" transform="translate(160,273)"/>
<path d="M0 0 C5.94 0 11.88 0 18 0 C18 0.66 18 1.32 18 2 C20.64 2 23.28 2 26 2 C26 3.98 26 5.96 26 8 C20.125 5.125 20.125 5.125 19 4 C17.58429877 3.91348389 16.164405 3.89295096 14.74609375 3.90234375 C13.46508789 3.90717773 13.46508789 3.90717773 12.15820312 3.91210938 C10.81145508 3.92467773 10.81145508 3.92467773 9.4375 3.9375 C8.53580078 3.94201172 7.63410156 3.94652344 6.70507812 3.95117188 C4.46998686 3.96299775 2.23502563 3.9794778 0 4 C0 2.68 0 1.36 0 0 Z M2 1 C2 1.33 2 1.66 2 2 C3.98 2 5.96 2 8 2 C8 1.67 8 1.34 8 1 C6.02 1 4.04 1 2 1 Z M22 3 C22 3.66 22 4.32 22 5 C22.66 5 23.32 5 24 5 C24 4.34 24 3.68 24 3 C23.34 3 22.68 3 22 3 Z " fill="#FBFBFB" transform="translate(184,296)"/>
<path d="M0 0 C0.33 0 0.66 0 1 0 C1.33 2.31 1.66 4.62 2 7 C-6.91 6.67 -15.82 6.34 -25 6 C-25.33 6.66 -25.66 7.32 -26 8 C-26 6.68 -26 5.36 -26 4 C-17.42 4 -8.84 4 0 4 C0 2.68 0 1.36 0 0 Z " fill="#E6E5E5" transform="translate(208,290)"/>
<path d="M0 0 C0.33 0.66 0.66 1.32 1 2 C1.99 1.67 2.98 1.34 4 1 C7 1 7 1 10 2 C9.34 2 8.68 2 8 2 C10.24173286 5.36259929 11.73749001 6.70639303 15.6875 7.625 C16.450625 7.74875 17.21375 7.8725 18 8 C18 8.33 18 8.66 18 9 C9.42857143 9.28571429 9.42857143 9.28571429 6 7 C6 6.34 6 5.68 6 5 C4.35 4.67 2.7 4.34 1 4 C0.67 4.99 0.34 5.98 0 7 C-0.33 6.01 -0.66 5.02 -1 4 C-1.66 3.67 -2.32 3.34 -3 3 C-2.01 2.67 -1.02 2.34 0 2 C0 1.34 0 0.68 0 0 Z " fill="#E6E6E6" transform="translate(136,313)"/>
<path d="M0 0 C0.66 0 1.32 0 2 0 C2.37769531 0.66386719 2.75539062 1.32773437 3.14453125 2.01171875 C5.75060832 6.20887446 9.16504529 9.37555773 12.6875 12.8125 C13.7403418 13.85180664 13.7403418 13.85180664 14.81445312 14.91210938 C16.53851041 16.61271009 18.26707278 18.30844661 20 20 C19.67 20.66 19.34 21.32 19 22 C15.37 22 11.74 22 8 22 C10.92264434 20.53867783 12.92463146 19.65900754 16 19 C15.55084229 18.56655273 15.10168457 18.13310547 14.63891602 17.68652344 C12.60558505 15.71560659 10.58401695 13.73302932 8.5625 11.75 C7.85544922 11.06808594 7.14839844 10.38617188 6.41992188 9.68359375 C5.74638672 9.01972656 5.07285156 8.35585937 4.37890625 7.671875 C3.7557251 7.0644043 3.13254395 6.45693359 2.49047852 5.83105469 C0.89006867 3.86494923 0.40415941 2.4775689 0 0 Z " fill="#D8D8D8" transform="translate(179,62)"/>
<path d="M0 0 C0.70840222 2.20391801 1.10628992 3.59439767 0.51171875 5.86328125 C-0.64502393 10.6933442 0.25425495 15.65192241 2.625 19.9375 C3.07875 20.618125 3.5325 21.29875 4 22 C3.67 22.66 3.34 23.32 3 24 C-1.26215922 20.06569918 -2.767827 18.03610849 -3.203125 12.34375 C-3.22632813 10.93609375 -3.22632813 10.93609375 -3.25 9.5 C-3.27578125 8.5615625 -3.3015625 7.623125 -3.328125 6.65625 C-2.95038744 3.59837454 -2.0306824 2.26581405 0 0 Z " fill="#E6E5E5" transform="translate(135,284)"/>
<path d="M0 0 C3.465 1.485 3.465 1.485 7 3 C6.75 5.375 6.75 5.375 6 8 C3.9375 9.3125 3.9375 9.3125 2 10 C2.66 8.68 3.32 7.36 4 6 C1.03 6 -1.94 6 -5 6 C-3.35 4.02 -1.7 2.04 0 0 Z " fill="#DBDBDB" transform="translate(202,300)"/>
<path d="M0 0 C0.33 0 0.66 0 1 0 C1.77546747 8.84032918 2.19354532 17.16776465 1 26 C0.01 25.34 -0.98 24.68 -2 24 C-2.38834565 18.41753135 -1.75765308 13.02881974 -1 7.5 C-0.90460938 6.77296875 -0.80921875 6.0459375 -0.7109375 5.296875 C-0.47853833 3.53064133 -0.23993362 1.76522594 0 0 Z " fill="#D8D8D8" transform="translate(126,287)"/>
<path d="M0 0 C3.67071613 0.20975521 4.9512345 0.95463674 7.6875 3.5 C10.48931687 7.17073476 11.85741745 11.38703518 12 16 C11.03515625 18.2734375 11.03515625 18.2734375 10 20 C10 17.36 10 14.72 10 12 C9.34 12 8.68 12 8 12 C7.75765625 11.38511719 7.5153125 10.77023437 7.265625 10.13671875 C4.89368596 4.07080031 4.89368596 4.07080031 0 0 Z " fill="#D5D5D5" transform="translate(80,264)"/>
<path d="M0 0 C1.11375 0.226875 2.2275 0.45375 3.375 0.6875 C5.92419036 0.69556706 8.46065709 0.62653204 11.0078125 0.52734375 C13.59706352 0.7025241 15.15541763 1.3833675 17.375 2.6875 C12.12418443 3.83452282 7.30983462 3.61838566 2 3.25 C1.16855469 3.19779297 0.33710938 3.14558594 -0.51953125 3.09179688 C-2.55508108 2.96311269 -4.59010441 2.82614593 -6.625 2.6875 C-2.953125 -0.3515625 -2.953125 -0.3515625 0 0 Z " fill="#D6D7D7" transform="translate(154.625,39.3125)"/>
<path d="M0 0 C0.33 0.66 0.66 1.32 1 2 C2.918125 1.938125 2.918125 1.938125 4.875 1.875 C7.0546875 1.8046875 7.0546875 1.8046875 9 2 C9.66 2.66 10.32 3.32 11 4 C3.41 4 -4.18 4 -12 4 C-12 3.67 -12 3.34 -12 3 C-10.37512529 2.83211627 -8.75009558 2.66573213 -7.125 2.5 C-5.76761719 2.36078125 -5.76761719 2.36078125 -4.3828125 2.21875 C-2 2 -2 2 0 2 C0 1.34 0 0.68 0 0 Z " fill="#D8D8D8" transform="translate(72,38)"/>
<path d="M0 0 C0.33 0 0.66 0 1 0 C1.33 1.98 1.66 3.96 2 6 C-0.35438733 7.42944945 -1.48032433 8.08661261 -4.25 7.625 C-4.8275 7.41875 -5.405 7.2125 -6 7 C-6.33 5.35 -6.66 3.7 -7 2 C-4.69 2.33 -2.38 2.66 0 3 C0 2.01 0 1.02 0 0 Z " fill="#EDECEC" transform="translate(125,308)"/>
<path d="M0 0 C6.27 0 12.54 0 19 0 C18.67 0.99 18.34 1.98 18 3 C16.93072266 2.89171875 16.93072266 2.89171875 15.83984375 2.78125 C10.53206573 2.26690274 5.33208571 1.88150921 0 2 C0 1.34 0 0.68 0 0 Z " fill="#E9E8E9" transform="translate(187,95)"/>
<path d="M0 0 C0.66 0.33 1.32 0.66 2 1 C1.67 2.32 1.34 3.64 1 5 C1.66 5 2.32 5 3 5 C3.29296875 11.0546875 3.29296875 11.0546875 3 13 C2.01 13.66 1.02 14.32 0 15 C-0.91740621 11.87645029 -1.13460306 9.06313562 -1.125 5.8125 C-1.12757813 4.93207031 -1.13015625 4.05164063 -1.1328125 3.14453125 C-1 1 -1 1 0 0 Z " fill="#E8E8E8" transform="translate(178,62)"/>
<path d="M0 0 C-0.06006078 1.45947705 -0.1488689 2.91779272 -0.25 4.375 C-0.31960937 5.59316406 -0.31960937 5.59316406 -0.390625 6.8359375 C-1 9 -1 9 -3.046875 10.2890625 C-4.01367188 10.64097656 -4.01367188 10.64097656 -5 11 C-5 10.34 -5 9.68 -5 9 C-4.34 9 -3.68 9 -3 9 C-2.67 6.69 -2.34 4.38 -2 2 C-4.97 2 -7.94 2 -11 2 C-11 1.67 -11 1.34 -11 1 C-7.26562152 0.12132271 -3.83225427 -0.08912219 0 0 Z " fill="#CFCFCF" transform="translate(119,295)"/>
<path d="M0 0 C0.33 0 0.66 0 1 0 C2.06584597 7.4451315 1.93902231 14.56234873 1.5625 22.0625 C1.51029297 23.21427734 1.45808594 24.36605469 1.40429688 25.55273438 C1.27576087 28.36884135 1.1408555 31.18448692 1 34 C0.67 34 0.34 34 0 34 C0 22.78 0 11.56 0 0 Z " fill="#FEFEFE" transform="translate(59,93)"/>
<path d="M0 0 C0.33 0 0.66 0 1 0 C1 4.29 1 8.58 1 13 C0.01 12.67 -0.98 12.34 -2 12 C-2 11.34 -2 10.68 -2 10 C-2.66 9.67 -3.32 9.34 -4 9 C-2.40909091 2.40909091 -2.40909091 2.40909091 0 0 Z " fill="#F3F3F3" transform="translate(176,287)"/>
<path d="M0 0 C0.66 0.66 1.32 1.32 2 2 C1 5 1 5 0 6 C-1.78837622 6.12524459 -3.58228214 6.17573676 -5.375 6.1875 C-6.35210937 6.20167969 -7.32921875 6.21585937 -8.3359375 6.23046875 C-11 6 -11 6 -14 4 C-13.67 3.34 -13.34 2.68 -13 2 C-12.21625 2.350625 -11.4325 2.70125 -10.625 3.0625 C-9.75875 3.371875 -8.8925 3.68125 -8 4 C-7.34 3.67 -6.68 3.34 -6 3 C-6 3.66 -6 4.32 -6 5 C-2.83884224 3.63016497 -2.0072908 3.0109362 0 0 Z " fill="#F6F6F6" transform="translate(200,284)"/>
<path d="M0 0 C0.9590625 0.0103125 1.918125 0.020625 2.90625 0.03125 C4.34484375 0.01578125 4.34484375 0.01578125 5.8125 0 C8.40625 0.53125 8.40625 0.53125 10.25 2.5625 C10.6315625 3.2121875 11.013125 3.861875 11.40625 4.53125 C10.76558594 4.44746094 10.12492188 4.36367188 9.46484375 4.27734375 C4.17549686 3.65460395 -0.36420499 3.50807815 -5.59375 4.53125 C-3.95622056 1.74302419 -3.23832752 0.6632719 0 0 Z " fill="#ECECEB" transform="translate(189.59375,273.46875)"/>
<path d="M0 0 C0.33 0 0.66 0 1 0 C1 9.57 1 19.14 1 29 C0.67 29 0.34 29 0 29 C0 19.43 0 9.86 0 0 Z " fill="#FEFEFE" transform="translate(59,135)"/>
<path d="M0 0 C1.98 0.66 3.96 1.32 6 2 C6 2.99 6 3.98 6 5 C1.05 4.67 -3.9 4.34 -9 4 C-9 3.67 -9 3.34 -9 3 C-6.36 3 -3.72 3 -1 3 C-0.67 2.01 -0.34 1.02 0 0 Z " fill="#EAEAEA" transform="translate(152,145)"/>
<path d="M0 0 C3.625 0.375 3.625 0.375 7 1 C7 1.33 7 1.66 7 2 C9.31 2.33 11.62 2.66 14 3 C14 3.33 14 3.66 14 4 C12.08364783 4.05423638 10.16685075 4.09289963 8.25 4.125 C6.64898437 4.15980469 6.64898437 4.15980469 5.015625 4.1953125 C2.07529894 4.00487687 0.47638122 3.52670104 -2 2 C-1.34 1.34 -0.68 0.68 0 0 Z " fill="#ECECEC" transform="translate(183,81)"/>
<path d="M0 0 C3.5 0.25 3.5 0.25 5.5 2.25 C2.97946405 3.51026798 1.6457902 3.16874445 -1.125 2.8125 C-2.35089844 2.65974609 -2.35089844 2.65974609 -3.6015625 2.50390625 C-4.22804687 2.42011719 -4.85453125 2.33632813 -5.5 2.25 C-3.5 0.25 -3.5 0.25 0 0 Z " fill="#E6E5E6" transform="translate(192.5,279.75)"/>
<path d="M0 0 C0.33 1.32 0.66 2.64 1 4 C1.66 4 2.32 4 3 4 C3 6.97 3 9.94 3 13 C2.01 12.01 1.02 11.02 0 10 C0.66 10 1.32 10 2 10 C2 9.01 2 8.02 2 7 C1.34 7 0.68 7 0 7 C0 4.69 0 2.38 0 0 Z " fill="#E8E8E8" transform="translate(41,109)"/>
<path d="M0 0 C0 2.31 0 4.62 0 7 C-0.66 5.68 -1.32 4.36 -2 3 C-2.99 3.99 -3.98 4.98 -5 6 C-5.99 5.67 -6.98 5.34 -8 5 C-3.375 0 -3.375 0 0 0 Z " fill="#CACACA" transform="translate(161,306)"/>
<path d="M0 0 C4.60209225 -0.17700355 6.78370866 -0.10814567 11 2 C5.06 2.495 5.06 2.495 -1 3 C-0.67 2.01 -0.34 1.02 0 0 Z " fill="#ECECEC" transform="translate(106,290)"/>
<path d="M0 0 C2 2 2 2 2.125 5.625 C2.08375 6.73875 2.0425 7.8525 2 9 C1.01 9 0.02 9 -1 9 C-1 7.35 -1 5.7 -1 4 C-1.66 3.67 -2.32 3.34 -3 3 C-2.01 2.01 -1.02 1.02 0 0 Z " fill="#F0EFEF" transform="translate(160,288)"/>
<path d="M0 0 C0.33 0.99 0.66 1.98 1 3 C-0.4375 5.1875 -0.4375 5.1875 -2 7 C-2.66 6.67 -3.32 6.34 -4 6 C-3.34 5.01 -2.68 4.02 -2 3 C-2.99 2.67 -3.98 2.34 -5 2 C-3.35 1.34 -1.7 0.68 0 0 Z " fill="#D2D2D1" transform="translate(208,303)"/>
<path d="M0 0 C2.64 0.33 5.28 0.66 8 1 C7.67 2.65 7.34 4.3 7 6 C6.401875 5.38125 5.80375 4.7625 5.1875 4.125 C2.99188856 1.86323046 2.99188856 1.86323046 0 0 Z " fill="#FDFDFD" transform="translate(108,297)"/>
<path d="M0 0 C3.3 0 6.6 0 10 0 C8.515 1.485 8.515 1.485 7 3 C4.69 2.34 2.38 1.68 0 1 C0 0.67 0 0.34 0 0 Z " fill="#D3D4D4" transform="translate(146,327)"/>
<path d="M0 0 C0.66 0 1.32 0 2 0 C2.33 2.97 2.66 5.94 3 9 C2.01 8.67 1.02 8.34 0 8 C0 5.33333333 0 2.66666667 0 0 Z " fill="#FEFEFE" transform="translate(129,291)"/>
<path d="M0 0 C4.875 1.75 4.875 1.75 6 4 C3.69 3.67 1.38 3.34 -1 3 C-0.67 2.01 -0.34 1.02 0 0 Z " fill="#FEFEFE" transform="translate(187,286)"/>
<path d="M0 0 C2.64 0 5.28 0 8 0 C8 0.99 8 1.98 8 3 C7.01 2.67 6.02 2.34 5 2 C3.00038436 1.96079185 0.99950636 1.95556653 -1 2 C-0.67 1.34 -0.34 0.68 0 0 Z " fill="#FEFEFE" transform="translate(101,57)"/>
<path d="M0 0 C3.63 0 7.26 0 11 0 C11 0.33 11 0.66 11 1 C7.7 1.33 4.4 1.66 1 2 C0.67 1.34 0.34 0.68 0 0 Z " fill="#FFFFFF" transform="translate(86,57)"/>
<path d="M0 0 C0.99 0.495 0.99 0.495 2 1 C1.67 3.64 1.34 6.28 1 9 C0.67 9 0.34 9 0 9 C0 6.03 0 3.06 0 0 Z " fill="#FEFEFE" transform="translate(59,65)"/>
<path d="M0 0 C0.66 0.33 1.32 0.66 2 1 C1.01 2.485 1.01 2.485 0 4 C-0.99 3.67 -1.98 3.34 -3 3 C-2.01 2.01 -1.02 1.02 0 0 Z " fill="#FEFEFE" transform="translate(156,314)"/>
<path d="M0 0 C2.64 0.33 5.28 0.66 8 1 C8 1.33 8 1.66 8 2 C5.125 2.125 5.125 2.125 2 2 C1.34 1.34 0.68 0.68 0 0 Z " fill="#FFFFFF" transform="translate(177,98)"/>
<path d="M0 0 C0.99 0.495 0.99 0.495 2 1 C1.67 3.64 1.34 6.28 1 9 C0.67 9 0.34 9 0 9 C0 6.03 0 3.06 0 0 Z " fill="#FEFEFE" transform="translate(59,75)"/>
<path d="M0 0 C0.66 0.33 1.32 0.66 2 1 C1.67 2.32 1.34 3.64 1 5 C0.34 4.34 -0.32 3.68 -1 3 C-0.67 2.01 -0.34 1.02 0 0 Z " fill="#FFFFFF" transform="translate(40,120)"/>
<path d="M0 0 C0.33 0 0.66 0 1 0 C1.33 2.31 1.66 4.62 2 7 C1.34 7 0.68 7 0 7 C0 4.69 0 2.38 0 0 Z " fill="#FEFEFE" transform="translate(59,181)"/>
<path d="M0 0 C0.99 0.495 0.99 0.495 2 1 C1.67 2.98 1.34 4.96 1 7 C0.67 7 0.34 7 0 7 C0 4.69 0 2.38 0 0 Z " fill="#FEFEFE" transform="translate(59,85)"/>
<path d="M0 0 C1.65 0 3.3 0 5 0 C5 0.66 5 1.32 5 2 C3.35 1.67 1.7 1.34 0 1 C0 0.67 0 0.34 0 0 Z " fill="#FFFEFE" transform="translate(79,57)"/>
<path d="M0 0 C1.98 0.495 1.98 0.495 4 1 C2.35 1.33 0.7 1.66 -1 2 C-0.67 1.34 -0.34 0.68 0 0 Z " fill="#FEFEFE" transform="translate(151,314)"/>
<path d="M0 0 C0.33 0 0.66 0 1 0 C1 2.31 1 4.62 1 7 C0.67 7 0.34 7 0 7 C0 4.69 0 2.38 0 0 Z " fill="#FEFEFE" transform="translate(59,197)"/>
<path d="M0 0 C0.33 0 0.66 0 1 0 C1 2.31 1 4.62 1 7 C0.67 7 0.34 7 0 7 C0 4.69 0 2.38 0 0 Z " fill="#FEFEFE" transform="translate(59,173)"/>
<path d="M0 0 C0.33 0 0.66 0 1 0 C1 2.31 1 4.62 1 7 C0.67 7 0.34 7 0 7 C0 4.69 0 2.38 0 0 Z " fill="#FEFEFE" transform="translate(59,165)"/>
<path d="M0 0 C2.31 0 4.62 0 7 0 C7 0.33 7 0.66 7 1 C4.69 1 2.38 1 0 1 C0 0.67 0 0.34 0 0 Z " fill="#FFFFFF" transform="translate(105,101)"/>
<path d="M0 0 C2.475 0.495 2.475 0.495 5 1 C3.68 1.33 2.36 1.66 1 2 C0.67 1.34 0.34 0.68 0 0 Z " fill="#FFFFFF" transform="translate(129,57)"/>
<path d="M0 0 C1.98 0 3.96 0 6 0 C6 0.33 6 0.66 6 1 C4.02 1 2.04 1 0 1 C0 0.67 0 0.34 0 0 Z " fill="#FEFEFE" transform="translate(100,289)"/>
<path d="M0 0 C0 0.66 0 1.32 0 2 C-1.32 1.67 -2.64 1.34 -4 1 C-2 0 -2 0 0 0 Z " fill="#FEFEFE" transform="translate(207,226)"/>
<path d="M0 0 C0.33 0 0.66 0 1 0 C1 1.65 1 3.3 1 5 C0.34 4.67 -0.32 4.34 -1 4 C-0.67 2.68 -0.34 1.36 0 0 Z " fill="#FEFEFE" transform="translate(41,205)"/>
<path d="M0 0 C1.98 0 3.96 0 6 0 C6 0.33 6 0.66 6 1 C4.02 1 2.04 1 0 1 C0 0.67 0 0.34 0 0 Z " fill="#FEFEFE" transform="translate(137,101)"/>
<path d="M0 0 C1.98 0 3.96 0 6 0 C6 0.33 6 0.66 6 1 C4.02 1 2.04 1 0 1 C0 0.67 0 0.34 0 0 Z " fill="#FFFFFF" transform="translate(98,101)"/>
<path d="M0 0 C1.98 0.495 1.98 0.495 4 1 C2.35 1.33 0.7 1.66 -1 2 C-0.67 1.34 -0.34 0.68 0 0 Z " fill="#FFFFFF" transform="translate(184,74)"/>
<path d="M0 0 C0.99 0 1.98 0 3 0 C3 0.66 3 1.32 3 2 C2.01 2 1.02 2 0 2 C0 1.34 0 0.68 0 0 Z " fill="#FEFEFE" transform="translate(114,57)"/>
<path d="M0 0 C1.32 0 2.64 0 4 0 C3.67 0.66 3.34 1.32 3 2 C2.01 1.34 1.02 0.68 0 0 Z " fill="#FEFEFE" transform="translate(144,329)"/>
<path d="M0 0 C1.485 0.99 1.485 0.99 3 2 C2.01 2 1.02 2 0 2 C0 1.34 0 0.68 0 0 Z " fill="#FEFEFE" transform="translate(95,287)"/>
<path d="M0 0 C0.66 0.66 1.32 1.32 2 2 C0.68 1.67 -0.64 1.34 -2 1 C-1.34 0.67 -0.68 0.34 0 0 Z " fill="#FEFEFE" transform="translate(110,287)"/>
<path d="M0 0 C0.33 0 0.66 0 1 0 C1 1.65 1 3.3 1 5 C0.67 5 0.34 5 0 5 C0 3.35 0 1.7 0 0 Z " fill="#FEFEFE" transform="translate(79,277)"/>
<path d="M0 0 C0.33 0 0.66 0 1 0 C1 1.65 1 3.3 1 5 C0.67 5 0.34 5 0 5 C0 3.35 0 1.7 0 0 Z " fill="#FEFEFE" transform="translate(59,191)"/>
<path d="M0 0 C0.66 0 1.32 0 2 0 C1.67 1.32 1.34 2.64 1 4 C0.67 2.68 0.34 1.36 0 0 Z " fill="#FEFEFE" transform="translate(201,183)"/>
<path d="M0 0 C0.33 0 0.66 0 1 0 C1 1.65 1 3.3 1 5 C0.67 5 0.34 5 0 5 C0 3.35 0 1.7 0 0 Z " fill="#FFFFFF" transform="translate(202,120)"/>
<path d="M0 0 C0.33 0 0.66 0 1 0 C1 1.65 1 3.3 1 5 C0.67 5 0.34 5 0 5 C0 3.35 0 1.7 0 0 Z " fill="#FEFEFE" transform="translate(202,112)"/>
<path d="M0 0 C0.66 1.32 1.32 2.64 2 4 C1.34 3.67 0.68 3.34 0 3 C0 2.01 0 1.02 0 0 Z " fill="#FFFFFF" transform="translate(163,113)"/>
<path d="M0 0 C0.33 0 0.66 0 1 0 C1 1.65 1 3.3 1 5 C0.67 5 0.34 5 0 5 C0 3.35 0 1.7 0 0 Z " fill="#FFFFFF" transform="translate(161,63)"/>
<path d="M0 0 C0.66 0 1.32 0 2 0 C2 0.66 2 1.32 2 2 C1.01 1.67 0.02 1.34 -1 1 C-0.67 0.67 -0.34 0.34 0 0 Z " fill="#FEFEFE" transform="translate(62,58)"/>
<path d="M0 0 C0.66 0.66 1.32 1.32 2 2 C1.01 1.67 0.02 1.34 -1 1 C-0.67 0.67 -0.34 0.34 0 0 Z " fill="#FFFFFF" transform="translate(147,315)"/>
<path d="M0 0 C4 1 4 1 4 1 Z " fill="#FEFEFE" transform="translate(107,299)"/>
<path d="M0 0 C0.99 0 1.98 0 3 0 C2.67 0.66 2.34 1.32 2 2 C1.34 1.34 0.68 0.68 0 0 Z " fill="#FFFFFF" transform="translate(151,284)"/>
<path d="M0 0 C0.99 0 1.98 0 3 0 C2.67 0.66 2.34 1.32 2 2 C1.34 1.34 0.68 0.68 0 0 Z " fill="#FFFFFF" transform="translate(84,262)"/>
<path d="M0 0 C1 4 1 4 1 4 Z " fill="#FFFFFF" transform="translate(202,177)"/>
<path d="M0 0 C4 1 4 1 4 1 Z " fill="#FEFEFE" transform="translate(153,120)"/>
<path d="M0 0 C0.33 0.66 0.66 1.32 1 2 C0.01 1.67 -0.98 1.34 -2 1 C-1.34 0.67 -0.68 0.34 0 0 Z " fill="#FFFFFF" transform="translate(155,100)"/>
<path d="M0 0 C0.99 0.33 1.98 0.66 3 1 C2.01 1 1.02 1 0 1 C0 0.67 0 0.34 0 0 Z " fill="#FFFFFF" transform="translate(60,62)"/>
<path d="M0 0 C0.66 0 1.32 0 2 0 C2 0.66 2 1.32 2 2 C1.34 2 0.68 2 0 2 C0 1.34 0 0.68 0 0 Z " fill="#FFFFFF" transform="translate(123,57)"/>
<path d="M0 0 C0.99 0.33 1.98 0.66 3 1 C2.01 1.33 1.02 1.66 0 2 C0 1.34 0 0.68 0 0 Z " fill="#FFFFFF" transform="translate(65,57)"/>
<path d="M0 0 C0.66 0 1.32 0 2 0 C1.67 0.66 1.34 1.32 1 2 C0.67 1.34 0.34 0.68 0 0 Z " fill="#FFFFFF" transform="translate(114,314)"/>
<path d="M0 0 C0.66 0 1.32 0 2 0 C1.67 0.66 1.34 1.32 1 2 C0.67 1.34 0.34 0.68 0 0 Z " fill="#FFFFFF" transform="translate(66,309)"/>
<path d="" fill="#FFFFFF" transform="translate(0,0)"/>
<path d="M0 0 C0.99 0.495 0.99 0.495 2 1 C1.01 1.495 1.01 1.495 0 2 C0 1.34 0 0.68 0 0 Z " fill="#FEFEFE" transform="translate(68,298)"/>
<path d="" fill="#FFFFFF" transform="translate(0,0)"/>
<path d="M0 0 C0.99 0.495 0.99 0.495 2 1 C1.01 1.495 1.01 1.495 0 2 C0 1.34 0 0.68 0 0 Z " fill="#FFFFFF" transform="translate(128,289)"/>
<path d="M0 0 C0.99 0.495 0.99 0.495 2 1 C1.01 1.495 1.01 1.495 0 2 C0 1.34 0 0.68 0 0 Z " fill="#FEFEFE" transform="translate(91,287)"/>
<path d="M0 0 C0.66 0.66 1.32 1.32 2 2 C1.34 2 0.68 2 0 2 C0 1.34 0 0.68 0 0 Z " fill="#FFFFFF" transform="translate(92,282)"/>
<path d="M0 0 C0.99 0.495 0.99 0.495 2 1 C1.01 1.495 1.01 1.495 0 2 C0 1.34 0 0.68 0 0 Z " fill="#FFFFFF" transform="translate(73,273)"/>
<path d="" fill="#FFFFFF" transform="translate(0,0)"/>
<path d="" fill="#FFFFFF" transform="translate(0,0)"/>
<path d="" fill="#FFFFFF" transform="translate(0,0)"/>
<path d="" fill="#FFFFFF" transform="translate(0,0)"/>
<path d="M0 0 C3 1 3 1 3 1 Z " fill="#FFFFFF" transform="translate(91,120)"/>
<path d="" fill="#FFFFFF" transform="translate(0,0)"/>
<path d="M0 0 C3 1 3 1 3 1 Z " fill="#FFFFFF" transform="translate(89,101)"/>
<path d="M0 0 C0.33 0.66 0.66 1.32 1 2 C0.34 1.67 -0.32 1.34 -1 1 C-0.67 0.67 -0.34 0.34 0 0 Z " fill="#FFFFFF" transform="translate(41,100)"/>
<path d="M0 0 C0.99 0.495 0.99 0.495 2 1 C1.01 1.495 1.01 1.495 0 2 C0 1.34 0 0.68 0 0 Z " fill="#FFFFFF" transform="translate(141,58)"/>
<path d="M0 0 C3 1 3 1 3 1 Z " fill="#FFFFFF" transform="translate(143,57)"/>
<path d="M0 0 C0.99 0.495 0.99 0.495 2 1 C1.01 1.495 1.01 1.495 0 2 C0 1.34 0 0.68 0 0 Z " fill="#FFFFFF" transform="translate(98,57)"/>
<path d="M0 0 C0.66 0 1.32 0 2 0 C1.67 0.66 1.34 1.32 1 2 C0.67 1.34 0.34 0.68 0 0 Z " fill="#FFFEFE" transform="translate(74,57)"/>
<path d="M0 0 C0.66 0 1.32 0 2 0 C1.67 0.66 1.34 1.32 1 2 C0.67 1.34 0.34 0.68 0 0 Z " fill="#FFFFFF" transform="translate(40,57)"/>
<path d="M0 0 C2 1 2 1 2 1 Z " fill="#FEFEFE" transform="translate(155,329)"/>
<path d="M0 0 C2 1 2 1 2 1 Z " fill="#FEFEFE" transform="translate(55,315)"/>
<path d="" fill="#FFFFFF" transform="translate(0,0)"/>
<path d="M0 0 C2 1 2 1 2 1 Z " fill="#FFFFFF" transform="translate(132,306)"/>
<path d="" fill="#FFFFFF" transform="translate(0,0)"/>
<path d="M0 0 C2 1 2 1 2 1 Z " fill="#FFFFFF" transform="translate(155,300)"/>
<path d="M0 0 C2 1 2 1 2 1 Z " fill="#FEFEFE" transform="translate(151,300)"/>
<path d="M0 0 C2 1 2 1 2 1 Z " fill="#FFFFFF" transform="translate(145,300)"/>
<path d="M0 0 C2 1 2 1 2 1 Z " fill="#FFFFFF" transform="translate(171,292)"/>
<path d="" fill="#FFFFFF" transform="translate(0,0)"/>
<path d="" fill="#FEFEFE" transform="translate(0,0)"/>
<path d="M0 0 C2 1 2 1 2 1 Z " fill="#FFFFFF" transform="translate(128,284)"/>
<path d="" fill="#FEFEFE" transform="translate(0,0)"/>
<path d="M0 0 C2 1 2 1 2 1 Z " fill="#FFFFFF" transform="translate(135,276)"/>
<path d="" fill="#FEFEFE" transform="translate(0,0)"/>
<path d="M0 0 C2 1 2 1 2 1 Z " fill="#FFFFFF" transform="translate(165,272)"/>
<path d="M0 0 C2 1 2 1 2 1 Z " fill="#FFFFFF" transform="translate(115,272)"/>
<path d="" fill="#FFFFFF" transform="translate(0,0)"/>
<path d="M0 0 C2 1 2 1 2 1 Z " fill="#FFFFFF" transform="translate(59,260)"/>
<path d="M0 0 C2 1 2 1 2 1 Z " fill="#FFFFFF" transform="translate(48,225)"/>
<path d="" fill="#FEFEFF" transform="translate(0,0)"/>
<path d="" fill="#FFFFFF" transform="translate(0,0)"/>
<path d="" fill="#FFFFFF" transform="translate(0,0)"/>
<path d="M0 0 C2 1 2 1 2 1 Z " fill="#FFFFFF" transform="translate(156,163)"/>
<path d="" fill="#FFFFFF" transform="translate(0,0)"/>
<path d="M0 0 C2 1 2 1 2 1 Z " fill="#FFFFFF" transform="translate(128,145)"/>
<path d="M0 0 C2 1 2 1 2 1 Z " fill="#FFFFFF" transform="translate(118,145)"/>
<path d="M0 0 C2 1 2 1 2 1 Z " fill="#FFFFFF" transform="translate(104,145)"/>
<path d="" fill="#FEFEFE" transform="translate(0,0)"/>
<path d="" fill="#FFFFFF" transform="translate(0,0)"/>
<path d="M0 0 C2 1 2 1 2 1 Z " fill="#FFFFFF" transform="translate(129,120)"/>
<path d="M0 0 C2 1 2 1 2 1 Z " fill="#FFFFFF" transform="translate(84,120)"/>
<path d="" fill="#FFFFFF" transform="translate(0,0)"/>
<path d="M0 0 C2 1 2 1 2 1 Z " fill="#FFFFFF" transform="translate(83,101)"/>
<path d="M0 0 C2 1 2 1 2 1 Z " fill="#FEFEFF" transform="translate(175,99)"/>
<path d="M0 0 C2 1 2 1 2 1 Z " fill="#FEFEFE" transform="translate(175,97)"/>
<path d="" fill="#FFFFFF" transform="translate(0,0)"/>
<path d="" fill="#FFFFFF" transform="translate(0,0)"/>
<path d="" fill="#FFFFFF" transform="translate(0,0)"/>
<path d="M0 0 C2 1 2 1 2 1 Z " fill="#FFFFFF" transform="translate(110,57)"/>
<path d="M0 0 C2 1 2 1 2 1 Z " fill="#FFFFFF" transform="translate(195,56)"/>
<path d="M0 0 C2 1 2 1 2 1 Z " fill="#FFFFFF" transform="translate(192,53)"/>
<path d="M0 0 C2 1 2 1 2 1 Z " fill="#FFFFFF" transform="translate(174,39)"/>
<path d="M0 0 C2 1 2 1 2 1 Z " fill="#FFFFFF" transform="translate(61,39)"/>
<path d="" fill="#FEFEFE" transform="translate(0,0)"/>
<path d="" fill="#FFFFFF" transform="translate(0,0)"/>
<path d="" fill="#FFFFFF" transform="translate(0,0)"/>
<path d="" fill="#FFFFFF" transform="translate(0,0)"/>
<path d="" fill="#FFFFFF" transform="translate(0,0)"/>
<path d="" fill="#FFFFFF" transform="translate(0,0)"/>
<path d="" fill="#FEFEFE" transform="translate(0,0)"/>
<path d="" fill="#FFFFFF" transform="translate(0,0)"/>
<path d="" fill="#FEFEFE" transform="translate(0,0)"/>
<path d="" fill="#FFFFFF" transform="translate(0,0)"/>
<path d="" fill="#FFFFFF" transform="translate(0,0)"/>
<path d="" fill="#FFFFFF" transform="translate(0,0)"/>
<path d="" fill="#FFFFFF" transform="translate(0,0)"/>
<path d="" fill="#FFFFFF" transform="translate(0,0)"/>
<path d="" fill="#FFFFFF" transform="translate(0,0)"/>
<path d="" fill="#FDFEFE" transform="translate(0,0)"/>
<path d="" fill="#FFFFFF" transform="translate(0,0)"/>
<path d="" fill="#FEFEFE" transform="translate(0,0)"/>
<path d="" fill="#FEFEFE" transform="translate(0,0)"/>
<path d="" fill="#FFFFFF" transform="translate(0,0)"/>
<path d="" fill="#FFFFFF" transform="translate(0,0)"/>
<path d="" fill="#FEFEFE" transform="translate(0,0)"/>
<path d="" fill="#FEFEFE" transform="translate(0,0)"/>
<path d="" fill="#FEFEFE" transform="translate(0,0)"/>
<path d="" fill="#FEFEFE" transform="translate(0,0)"/>
<path d="" fill="#FFFEFF" transform="translate(0,0)"/>
<path d="" fill="#FFFFFF" transform="translate(0,0)"/>
<path d="" fill="#FFFFFF" transform="translate(0,0)"/>
<path d="" fill="#FFFFFF" transform="translate(0,0)"/>
<path d="" fill="#FEFEFE" transform="translate(0,0)"/>
<path d="" fill="#FEFEFE" transform="translate(0,0)"/>
<path d="" fill="#FFFFFF" transform="translate(0,0)"/>
<path d="" fill="#FFFFFF" transform="translate(0,0)"/>
<path d="" fill="#FFFFFF" transform="translate(0,0)"/>
<path d="" fill="#FFFFFF" transform="translate(0,0)"/>
<path d="" fill="#FFFFFF" transform="translate(0,0)"/>
<path d="" fill="#FEFEFE" transform="translate(0,0)"/>
<path d="" fill="#FFFFFF" transform="translate(0,0)"/>
<path d="" fill="#FFFFFF" transform="translate(0,0)"/>
<path d="" fill="#FFFFFF" transform="translate(0,0)"/>
<path d="" fill="#FFFFFF" transform="translate(0,0)"/>
<path d="" fill="#FFFFFF" transform="translate(0,0)"/>
<path d="" fill="#FFFFFF" transform="translate(0,0)"/>
<path d="" fill="#FFFFFF" transform="translate(0,0)"/>
<path d="" fill="#FEFEFE" transform="translate(0,0)"/>
<path d="" fill="#FFFFFF" transform="translate(0,0)"/>
<path d="" fill="#FFFFFF" transform="translate(0,0)"/>
<path d="" fill="#FFFFFF" transform="translate(0,0)"/>
<path d="" fill="#FFFFFF" transform="translate(0,0)"/>
<path d="" fill="#FFFFFF" transform="translate(0,0)"/>
<path d="" fill="#FFFFFF" transform="translate(0,0)"/>
<path d="" fill="#FEFEFE" transform="translate(0,0)"/>
<path d="" fill="#FFFFFF" transform="translate(0,0)"/>
<path d="" fill="#FEFEFE" transform="translate(0,0)"/>
<path d="" fill="#FEFEFE" transform="translate(0,0)"/>
<path d="" fill="#FEFEFE" transform="translate(0,0)"/>
<path d="" fill="#FFFFFF" transform="translate(0,0)"/>
<path d="" fill="#FEFEFE" transform="translate(0,0)"/>
<path d="" fill="#FFFFFF" transform="translate(0,0)"/>
<path d="" fill="#FEFEFE" transform="translate(0,0)"/>
<path d="" fill="#FFFFFF" transform="translate(0,0)"/>
<path d="" fill="#FFFFFF" transform="translate(0,0)"/>
<path d="" fill="#FFFFFF" transform="translate(0,0)"/>
<path d="" fill="#FFFFFF" transform="translate(0,0)"/>
<path d="" fill="#FFFFFF" transform="translate(0,0)"/>
<path d="" fill="#FFFFFF" transform="translate(0,0)"/>
<path d="" fill="#FFFFFF" transform="translate(0,0)"/>
<path d="" fill="#FEFEFE" transform="translate(0,0)"/>
<path d="" fill="#FFFFFF" transform="translate(0,0)"/>
<path d="" fill="#FFFFFF" transform="translate(0,0)"/>
<path d="" fill="#FFFFFF" transform="translate(0,0)"/>
<path d="" fill="#FFFFFF" transform="translate(0,0)"/>
<path d="" fill="#FFFFFF" transform="translate(0,0)"/>
<path d="" fill="#FFFFFF" transform="translate(0,0)"/>
<path d="" fill="#FFFFFF" transform="translate(0,0)"/>
<path d="" fill="#FEFFFE" transform="translate(0,0)"/>
<path d="" fill="#FFFFFF" transform="translate(0,0)"/>
<path d="" fill="#FFFFFF" transform="translate(0,0)"/>
<path d="" fill="#FFFFFF" transform="translate(0,0)"/>
<path d="" fill="#FFFFFF" transform="translate(0,0)"/>
<path d="" fill="#FFFFFF" transform="translate(0,0)"/>
<path d="" fill="#FFFFFF" transform="translate(0,0)"/>
<path d="" fill="#FFFFFF" transform="translate(0,0)"/>
<path d="" fill="#FFFFFF" transform="translate(0,0)"/>
<path d="" fill="#FFFFFF" transform="translate(0,0)"/>
<path d="" fill="#FFFFFF" transform="translate(0,0)"/>
<path d="" fill="#FFFFFF" transform="translate(0,0)"/>
<path d="" fill="#FFFFFF" transform="translate(0,0)"/>
<path d="" fill="#FFFFFF" transform="translate(0,0)"/>
<path d="" fill="#FEFEFE" transform="translate(0,0)"/>
<path d="" fill="#FFFFFF" transform="translate(0,0)"/>
<path d="" fill="#FFFFFF" transform="translate(0,0)"/>
<path d="" fill="#FFFFFF" transform="translate(0,0)"/>
<path d="" fill="#FFFFFF" transform="translate(0,0)"/>
<path d="" fill="#FFFFFF" transform="translate(0,0)"/>
<path d="" fill="#FFFFFF" transform="translate(0,0)"/>
<path d="" fill="#FFFFFF" transform="translate(0,0)"/>
<path d="" fill="#FFFFFF" transform="translate(0,0)"/>
<path d="" fill="#FFFFFF" transform="translate(0,0)"/>
<path d="" fill="#FFFFFF" transform="translate(0,0)"/>
<path d="" fill="#FFFFFF" transform="translate(0,0)"/>
<path d="" fill="#FFFFFF" transform="translate(0,0)"/>
<path d="" fill="#FFFFFF" transform="translate(0,0)"/>
<path d="" fill="#FFFFFF" transform="translate(0,0)"/>
<path d="" fill="#FFFFFF" transform="translate(0,0)"/>
<path d="" fill="#FFFFFF" transform="translate(0,0)"/>
<path d="" fill="#FFFFFF" transform="translate(0,0)"/>
<path d="" fill="#FFFFFF" transform="translate(0,0)"/>
<path d="" fill="#FFFFFF" transform="translate(0,0)"/>
<path d="" fill="#FFFFFF" transform="translate(0,0)"/>
<path d="" fill="#FFFFFF" transform="translate(0,0)"/>
<path d="" fill="#FFFFFF" transform="translate(0,0)"/>
<path d="" fill="#FEFEFE" transform="translate(0,0)"/>
<path d="" fill="#FFFFFF" transform="translate(0,0)"/>
<path d="" fill="#FFFFFF" transform="translate(0,0)"/>
<path d="" fill="#FFFFFF" transform="translate(0,0)"/>
<path d="" fill="#FFFFFF" transform="translate(0,0)"/>
<path d="" fill="#FFFFFF" transform="translate(0,0)"/>
<path d="" fill="#FFFFFF" transform="translate(0,0)"/>
<path d="" fill="#FFFFFF" transform="translate(0,0)"/>
<path d="" fill="#FFFFFF" transform="translate(0,0)"/>
<path d="" fill="#FFFFFF" transform="translate(0,0)"/>
<path d="" fill="#FEFEFE" transform="translate(0,0)"/>
<path d="" fill="#FFFFFF" transform="translate(0,0)"/>
<path d="" fill="#FFFFFF" transform="translate(0,0)"/>
<path d="" fill="#FFFFFF" transform="translate(0,0)"/>
<path d="" fill="#FFFFFF" transform="translate(0,0)"/>
<path d="" fill="#FFFFFF" transform="translate(0,0)"/>
<path d="" fill="#FFFFFF" transform="translate(0,0)"/>
<path d="" fill="#FFFFFF" transform="translate(0,0)"/>
<path d="" fill="#FFFFFF" transform="translate(0,0)"/>
<path d="" fill="#FFFFFF" transform="translate(0,0)"/>
<path d="" fill="#FFFFFF" transform="translate(0,0)"/>
<path d="" fill="#FFFFFF" transform="translate(0,0)"/>
<path d="" fill="#FFFFFF" transform="translate(0,0)"/>
<path d="" fill="#FFFFFF" transform="translate(0,0)"/>
<path d="" fill="#FFFFFF" transform="translate(0,0)"/>
<path d="" fill="#FFFFFF" transform="translate(0,0)"/>
<path d="" fill="#FFFFFF" transform="translate(0,0)"/>
<path d="" fill="#FFFFFF" transform="translate(0,0)"/>
<path d="" fill="#FFFFFF" transform="translate(0,0)"/>
<path d="" fill="#FFFFFF" transform="translate(0,0)"/>
<path d="" fill="#FFFFFF" transform="translate(0,0)"/>
<path d="" fill="#FFFFFF" transform="translate(0,0)"/>
<path d="" fill="#FFFFFF" transform="translate(0,0)"/>
<path d="" fill="#FFFFFF" transform="translate(0,0)"/>
<path d="" fill="#FFFFFF" transform="translate(0,0)"/>
<path d="" fill="#FFFFFF" transform="translate(0,0)"/>
<path d="" fill="#FFFFFF" transform="translate(0,0)"/>
<path d="" fill="#FEFEFE" transform="translate(0,0)"/>
<path d="" fill="#FFFFFF" transform="translate(0,0)"/>
<path d="" fill="#FFFFFF" transform="translate(0,0)"/>
<path d="" fill="#FFFFFF" transform="translate(0,0)"/>
<path d="" fill="#FFFFFF" transform="translate(0,0)"/>
<path d="" fill="#FFFFFF" transform="translate(0,0)"/>
<path d="" fill="#FFFFFF" transform="translate(0,0)"/>
<path d="" fill="#FFFFFF" transform="translate(0,0)"/>
<path d="" fill="#FFFFFF" transform="translate(0,0)"/>
<path d="" fill="#FFFFFF" transform="translate(0,0)"/>
<path d="" fill="#FFFFFF" transform="translate(0,0)"/>
<path d="" fill="#FFFFFF" transform="translate(0,0)"/>
<path d="" fill="#FFFFFF" transform="translate(0,0)"/>
<path d="" fill="#FFFFFF" transform="translate(0,0)"/>
<path d="" fill="#FFFFFF" transform="translate(0,0)"/>
<path d="" fill="#FFFFFF" transform="translate(0,0)"/>
<path d="" fill="#FFFFFF" transform="translate(0,0)"/>
<path d="" fill="#FFFFFF" transform="translate(0,0)"/>
<path d="" fill="#FFFFFF" transform="translate(0,0)"/>
<path d="" fill="#FFFFFF" transform="translate(0,0)"/>
<path d="" fill="#FFFFFF" transform="translate(0,0)"/>
<path d="" fill="#FFFFFF" transform="translate(0,0)"/>
<path d="" fill="#FFFFFF" transform="translate(0,0)"/>
<path d="" fill="#FFFFFF" transform="translate(0,0)"/>
<path d="" fill="#FFFFFF" transform="translate(0,0)"/>
<path d="" fill="#FFFFFF" transform="translate(0,0)"/>
<path d="" fill="#FFFFFF" transform="translate(0,0)"/>
<path d="" fill="#FFFFFF" transform="translate(0,0)"/>
<path d="" fill="#FFFFFF" transform="translate(0,0)"/>
<path d="" fill="#FFFFFF" transform="translate(0,0)"/>
<path d="" fill="#FFFFFF" transform="translate(0,0)"/>
<path d="" fill="#FFFFFF" transform="translate(0,0)"/>
<path d="" fill="#FFFFFF" transform="translate(0,0)"/>
<path d="" fill="#FFFFFF" transform="translate(0,0)"/>
<path d="" fill="#FFFFFF" transform="translate(0,0)"/>
<path d="" fill="#FFFFFF" transform="translate(0,0)"/>
<path d="" fill="#FFFFFF" transform="translate(0,0)"/>
<path d="" fill="#FFFFFF" transform="translate(0,0)"/>
<path d="" fill="#FFFFFF" transform="translate(0,0)"/>
<path d="" fill="#FFFFFF" transform="translate(0,0)"/>
<path d="" fill="#FFFFFF" transform="translate(0,0)"/>
<path d="" fill="#FFFFFF" transform="translate(0,0)"/>
<path d="" fill="#FFFFFF" transform="translate(0,0)"/>
<path d="" fill="#FFFFFF" transform="translate(0,0)"/>
<path d="" fill="#FFFFFF" transform="translate(0,0)"/>
<path d="" fill="#FFFFFF" transform="translate(0,0)"/>
<path d="" fill="#FFFFFF" transform="translate(0,0)"/>
<path d="" fill="#FFFFFF" transform="translate(0,0)"/>
<path d="" fill="#FFFFFF" transform="translate(0,0)"/>
<path d="" fill="#FFFFFF" transform="translate(0,0)"/>
<path d="" fill="#FFFFFF" transform="translate(0,0)"/>
<path d="" fill="#FFFFFF" transform="translate(0,0)"/>
<path d="" fill="#FFFFFF" transform="translate(0,0)"/>
<path d="" fill="#FFFFFF" transform="translate(0,0)"/>
<path d="" fill="#FFFFFF" transform="translate(0,0)"/>
<path d="" fill="#FFFFFF" transform="translate(0,0)"/>
<path d="" fill="#FFFFFF" transform="translate(0,0)"/>
<path d="" fill="#FFFFFF" transform="translate(0,0)"/>
<path d="" fill="#FFFFFF" transform="translate(0,0)"/>
<path d="" fill="#FFFFFF" transform="translate(0,0)"/>
<path d="" fill="#FFFFFF" transform="translate(0,0)"/>
<path d="" fill="#FFFFFF" transform="translate(0,0)"/>
<path d="" fill="#FFFFFF" transform="translate(0,0)"/>
<path d="" fill="#FFFFFF" transform="translate(0,0)"/>
<path d="" fill="#FFFFFF" transform="translate(0,0)"/>
<path d="" fill="#FFFFFF" transform="translate(0,0)"/>
<path d="" fill="#FFFFFF" transform="translate(0,0)"/>
<path d="" fill="#FFFFFF" transform="translate(0,0)"/>
<path d="" fill="#FFFFFF" transform="translate(0,0)"/>
<path d="" fill="#FFFFFF" transform="translate(0,0)"/>
<path d="" fill="#FFFFFF" transform="translate(0,0)"/>
<path d="" fill="#FFFFFF" transform="translate(0,0)"/>
<path d="" fill="#FFFFFF" transform="translate(0,0)"/>
<path d="" fill="#FFFFFF" transform="translate(0,0)"/>
<path d="" fill="#FFFFFF" transform="translate(0,0)"/>
<path d="" fill="#FFFFFF" transform="translate(0,0)"/>
<path d="" fill="#FFFFFF" transform="translate(0,0)"/>
<path d="" fill="#FFFFFF" transform="translate(0,0)"/>
<path d="" fill="#FFFFFF" transform="translate(0,0)"/>
<path d="" fill="#FFFFFF" transform="translate(0,0)"/>
<path d="" fill="#FFFFFF" transform="translate(0,0)"/>
<path d="" fill="#FFFFFF" transform="translate(0,0)"/>
<path d="" fill="#FFFFFF" transform="translate(0,0)"/>
<path d="" fill="#FFFFFF" transform="translate(0,0)"/>
<path d="" fill="#FFFFFF" transform="translate(0,0)"/>
<path d="" fill="#FFFFFF" transform="translate(0,0)"/>
<path d="" fill="#FFFFFF" transform="translate(0,0)"/>
<path d="" fill="#FFFFFF" transform="translate(0,0)"/>
<path d="" fill="#FFFFFF" transform="translate(0,0)"/>
<path d="" fill="#FFFFFF" transform="translate(0,0)"/>
<path d="" fill="#FEFEFE" transform="translate(0,0)"/>
<path d="" fill="#FFFFFF" transform="translate(0,0)"/>
<path d="" fill="#FFFFFF" transform="translate(0,0)"/>
<path d="" fill="#FFFFFF" transform="translate(0,0)"/>
<path d="" fill="#FFFFFF" transform="translate(0,0)"/>
<path d="" fill="#FFFFFF" transform="translate(0,0)"/>
<path d="" fill="#FFFFFF" transform="translate(0,0)"/>
<path d="" fill="#FFFFFF" transform="translate(0,0)"/>
<path d="" fill="#FFFFFF" transform="translate(0,0)"/>
<path d="" fill="#FFFFFF" transform="translate(0,0)"/>
<path d="" fill="#FFFFFF" transform="translate(0,0)"/>
<path d="" fill="#FFFFFF" transform="translate(0,0)"/>
<path d="" fill="#FFFFFF" transform="translate(0,0)"/>
<path d="" fill="#FFFFFF" transform="translate(0,0)"/>
<path d="" fill="#FFFFFF" transform="translate(0,0)"/>
<path d="" fill="#FFFFFF" transform="translate(0,0)"/>
<path d="" fill="#FFFFFF" transform="translate(0,0)"/>
<path d="" fill="#FFFFFF" transform="translate(0,0)"/>
<path d="" fill="#FFFFFF" transform="translate(0,0)"/>
<path d="" fill="#FFFFFF" transform="translate(0,0)"/>
<path d="" fill="#FFFFFF" transform="translate(0,0)"/>
<path d="" fill="#FFFFFF" transform="translate(0,0)"/>
<path d="" fill="#FFFFFF" transform="translate(0,0)"/>
<path d="" fill="#FFFFFF" transform="translate(0,0)"/>
<path d="" fill="#FFFFFF" transform="translate(0,0)"/>
<path d="" fill="#FFFFFF" transform="translate(0,0)"/>
<path d="" fill="#FFFFFF" transform="translate(0,0)"/>
<path d="" fill="#FFFFFF" transform="translate(0,0)"/>
<path d="" fill="#FFFFFF" transform="translate(0,0)"/>
<path d="" fill="#FFFFFF" transform="translate(0,0)"/>
<path d="" fill="#FFFFFF" transform="translate(0,0)"/>
<path d="" fill="#FEFEFE" transform="translate(0,0)"/>
<path d="" fill="#FFFFFF" transform="translate(0,0)"/>
<path d="" fill="#FFFFFF" transform="translate(0,0)"/>
<path d="" fill="#FFFFFF" transform="translate(0,0)"/>
<path d="" fill="#FFFFFF" transform="translate(0,0)"/>
<path d="" fill="#FFFFFF" transform="translate(0,0)"/>
<path d="" fill="#FFFFFF" transform="translate(0,0)"/>
<path d="" fill="#FFFFFF" transform="translate(0,0)"/>
<path d="" fill="#FFFFFF" transform="translate(0,0)"/>
<path d="" fill="#FFFFFF" transform="translate(0,0)"/>
</svg>
