<?xml version="1.0" encoding="UTF-8"?>
<svg version="1.1" xmlns="http://www.w3.org/2000/svg" width="270" height="386">
<path d="M0 0 C1.6396875 -0.00193359 1.6396875 -0.00193359 3.3125 -0.00390625 C4.46492188 -0.00003906 5.61734375 0.00382812 6.8046875 0.0078125 C8.49851563 0.00201172 8.49851563 0.00201172 10.2265625 -0.00390625 C24.43953565 0.01273658 24.43953565 0.01273658 28.6796875 2.1328125 C29.44796875 2.27976562 30.21625 2.42671875 31.0078125 2.578125 C33.67173311 3.13116115 35.92679407 3.95267115 38.4296875 5.0078125 C43.1170647 6.93625297 47.85201457 8.59355447 52.6796875 10.1328125 C52.6796875 11.1228125 52.6796875 12.1128125 52.6796875 13.1328125 C53.41832031 13.4009375 54.15695313 13.6690625 54.91796875 13.9453125 C62.72639978 17.3028274 68.71098015 23.9795333 74.515625 29.99609375 C76.6855639 32.27386414 76.6855639 32.27386414 79.6796875 34.1328125 C79.3496875 34.7928125 79.0196875 35.4528125 78.6796875 36.1328125 C79.9996875 36.4628125 81.3196875 36.7928125 82.6796875 37.1328125 C82.6796875 37.7928125 82.6796875 38.4528125 82.6796875 39.1328125 C84.13208509 41.68228106 85.70324796 44.14412576 87.26953125 46.625 C88.6796875 49.1328125 88.6796875 49.1328125 89.18359375 51.390625 C89.34730469 51.96554688 89.51101562 52.54046875 89.6796875 53.1328125 C90.6696875 53.4628125 91.6596875 53.7928125 92.6796875 54.1328125 C92.3496875 55.1228125 92.0196875 56.1128125 91.6796875 57.1328125 C91.87644986 59.17401448 91.87644986 59.17401448 92.4296875 61.2578125 C92.66945312 62.31355469 92.66945312 62.31355469 92.9140625 63.390625 C93.16671875 63.96554688 93.419375 64.54046875 93.6796875 65.1328125 C94.6696875 65.4628125 95.6596875 65.7928125 96.6796875 66.1328125 C96.0196875 66.1328125 95.3596875 66.1328125 94.6796875 66.1328125 C94.6796875 67.4528125 94.6796875 68.7728125 94.6796875 70.1328125 C95.6696875 70.4628125 96.6596875 70.7928125 97.6796875 71.1328125 C98.6796875 72.46614583 99.6796875 73.79947917 100.6796875 75.1328125 C103.73376035 76.26210242 103.73376035 76.26210242 107.3046875 76.5703125 C108.4184375 76.7559375 109.5321875 76.9415625 110.6796875 77.1328125 C112.38940725 80.55225199 112.59828806 83.49374104 111.6796875 87.1328125 C109.04353559 91.13288649 105.89773295 94.5945374 102.6796875 98.1328125 C101.53022671 99.52566016 100.38374689 100.92098163 99.2421875 102.3203125 C98.3965625 103.2484375 97.5509375 104.1765625 96.6796875 105.1328125 C96.0196875 105.1328125 95.3596875 105.1328125 94.6796875 105.1328125 C94.4734375 106.0609375 94.2671875 106.9890625 94.0546875 107.9453125 C92.6796875 111.1328125 92.6796875 111.1328125 89.9296875 113.0703125 C86.08535416 114.32711379 84.54363281 114.29716054 80.6796875 113.1328125 C78.19645198 111.21995087 76.11464889 108.99485062 73.9921875 106.6953125 C72.86538409 105.50711685 71.73655138 104.32084159 70.60546875 103.13671875 C69.86937378 102.34503296 69.86937378 102.34503296 69.1184082 101.53735352 C67.5285171 99.89891587 67.5285171 99.89891587 64.6796875 98.1328125 C63.66617086 96.47433073 62.66847955 94.80615289 61.6796875 93.1328125 C60.1173181 90.96285501 58.51326027 89.10390323 56.6796875 87.1328125 C55.6896875 87.1328125 54.6996875 87.1328125 53.6796875 87.1328125 C53.6796875 85.8128125 53.6796875 84.4928125 53.6796875 83.1328125 C54.6696875 83.1328125 55.6596875 83.1328125 56.6796875 83.1328125 C56.3496875 81.4828125 56.0196875 79.8328125 55.6796875 78.1328125 C56.9996875 78.1328125 58.3196875 78.1328125 59.6796875 78.1328125 C60.0096875 77.4728125 60.3396875 76.8128125 60.6796875 76.1328125 C63.6796875 75.4453125 63.6796875 75.4453125 66.6796875 75.1328125 C67.0096875 75.4628125 67.3396875 75.7928125 67.6796875 76.1328125 C67.6796875 75.1428125 67.6796875 74.1528125 67.6796875 73.1328125 C68.6696875 72.4728125 69.6596875 71.8128125 70.6796875 71.1328125 C70.0196875 70.8028125 69.3596875 70.4728125 68.6796875 70.1328125 C68.7415625 69.2665625 68.8034375 68.4003125 68.8671875 67.5078125 C68.65448772 63.67921651 67.49733174 61.46516027 65.6796875 58.1328125 C65.6796875 57.4728125 65.6796875 56.8128125 65.6796875 56.1328125 C64.0296875 56.1328125 62.3796875 56.1328125 60.6796875 56.1328125 C59.6796875 51.3828125 59.6796875 51.3828125 59.6796875 49.1328125 C58.04903986 48.07509511 56.37687877 47.08008204 54.6796875 46.1328125 C53.6896875 45.4728125 52.6996875 44.8128125 51.6796875 44.1328125 C51.6796875 43.1428125 51.6796875 42.1528125 51.6796875 41.1328125 C48.7096875 40.6378125 48.7096875 40.6378125 45.6796875 40.1328125 C45.6796875 39.4728125 45.6796875 38.8128125 45.6796875 38.1328125 C45.0196875 38.1328125 44.3596875 38.1328125 43.6796875 38.1328125 C43.586875 37.235625 43.586875 37.235625 43.4921875 36.3203125 C42.33391555 33.20188803 40.61137135 32.56456508 37.6796875 31.1328125 C35.5414909 30.3455447 35.5414909 30.3455447 33.6796875 30.1328125 C33.1846875 30.6278125 33.1846875 30.6278125 32.6796875 31.1328125 C31.00425774 30.84676352 29.33583407 30.51500017 27.6796875 30.1328125 C27.6796875 29.4728125 27.6796875 28.8128125 27.6796875 28.1328125 C16.42541512 22.50567631 1.69886745 23.08404135 -10.0078125 26.6953125 C-10.77480469 26.96472656 -11.54179688 27.23414062 -12.33203125 27.51171875 C-14.3203125 28.1328125 -14.3203125 28.1328125 -17.3203125 28.1328125 C-16.0003125 29.1228125 -14.6803125 30.1128125 -13.3203125 31.1328125 C-16.3203125 32.1328125 -16.3203125 32.1328125 -19.6328125 31.9453125 C-25.03096198 32.21979468 -27.83557972 34.64807972 -31.5703125 38.3828125 C-32.1478125 38.9603125 -32.7253125 39.5378125 -33.3203125 40.1328125 C-33.9803125 40.1328125 -34.6403125 40.1328125 -35.3203125 40.1328125 C-41.29300574 45.79334407 -46.05441627 51.55593326 -49.3203125 59.1328125 C-49.805 59.90753906 -50.2896875 60.68226563 -50.7890625 61.48046875 C-55.5579307 69.74082975 -57.04231402 79.80006044 -58.3203125 89.1328125 C-57.6603125 89.4628125 -57.0003125 89.7928125 -56.3203125 90.1328125 C-56.3203125 90.7928125 -56.3203125 91.4528125 -56.3203125 92.1328125 C-56.9803125 92.1328125 -57.6403125 92.1328125 -58.3203125 92.1328125 C-57.97803678 95.10346759 -57.97803678 95.10346759 -57.3203125 98.1328125 C-56.6603125 98.4628125 -56.0003125 98.7928125 -55.3203125 99.1328125 C-55.9803125 99.1328125 -56.6403125 99.1328125 -57.3203125 99.1328125 C-57.3203125 100.1228125 -57.3203125 101.1128125 -57.3203125 102.1328125 C-56.6603125 102.1328125 -56.0003125 102.1328125 -55.3203125 102.1328125 C-55.09244792 104.11848958 -54.86458333 106.10416667 -54.63671875 108.08984375 C-54.15299795 111.21312744 -53.57634724 112.87677776 -51.3203125 115.1328125 C-51.3203125 116.79947917 -51.3203125 118.46614583 -51.3203125 120.1328125 C-50.3303125 120.6278125 -50.3303125 120.6278125 -49.3203125 121.1328125 C-48.07261412 123.28162638 -47.3203125 124.62960847 -47.3203125 127.1328125 C-46.3303125 127.4628125 -45.3403125 127.7928125 -44.3203125 128.1328125 C-44.3203125 128.7928125 -44.3203125 129.4528125 -44.3203125 130.1328125 C-42.86850579 132.09124239 -42.86850579 132.09124239 -41.0078125 134.1328125 C-40.39292969 134.8340625 -39.77804688 135.5353125 -39.14453125 136.2578125 C-37.2640392 138.32167502 -37.2640392 138.32167502 -34.3203125 140.1328125 C-31.95374588 142.01392956 -29.59757783 143.90595904 -27.2578125 145.8203125 C-25.2555849 147.17666023 -23.68482562 147.71057801 -21.3203125 148.1328125 C-21.3203125 148.7928125 -21.3203125 149.4528125 -21.3203125 150.1328125 C-20.65644531 150.26558594 -19.99257812 150.39835938 -19.30859375 150.53515625 C-16.64583333 151.06770833 -13.98307292 151.60026042 -11.3203125 152.1328125 C-10.04220703 152.35130859 -10.04220703 152.35130859 -8.73828125 152.57421875 C-6.3203125 153.1328125 -6.3203125 153.1328125 -4.46313477 154.15112305 C-2.00599272 155.27681157 -0.30967087 155.3909196 2.3828125 155.3984375 C3.73052734 155.40230469 3.73052734 155.40230469 5.10546875 155.40625 C6.03746094 155.39851562 6.96945313 155.39078125 7.9296875 155.3828125 C8.84621094 155.39054688 9.76273437 155.39828125 10.70703125 155.40625 C16.37125632 155.39008959 21.24636772 154.73985074 26.6796875 153.1328125 C26.6796875 152.8028125 26.6796875 152.4728125 26.6796875 152.1328125 C27.25976562 152.01164063 27.83984375 151.89046875 28.4375 151.765625 C35.19578674 150.39287554 35.19578674 150.39287554 41.6796875 148.1328125 C41.93234375 147.49085938 42.185 146.84890625 42.4453125 146.1875 C43.6796875 144.1328125 43.6796875 144.1328125 46.54296875 142.9453125 C48.25033203 142.543125 48.25033203 142.543125 49.9921875 142.1328125 C51.12269531 141.8440625 52.25320312 141.5553125 53.41796875 141.2578125 C56.6796875 141.1328125 56.6796875 141.1328125 59.48828125 142.94921875 C63.11573579 146.56374119 64.96381568 148.9785354 65.6796875 154.1328125 C65.0196875 154.1328125 64.3596875 154.1328125 63.6796875 154.1328125 C63.6384375 154.8134375 63.5971875 155.4940625 63.5546875 156.1953125 C61.98751306 161.45654099 58.17529897 165.13573819 53.6796875 168.1328125 C51.7955099 169.03263682 49.89838615 169.90562957 47.9921875 170.7578125 C46.99832031 171.20382813 46.00445312 171.64984375 44.98046875 172.109375 C43.84158203 172.61597656 43.84158203 172.61597656 42.6796875 173.1328125 C43.0096875 174.1228125 43.3396875 175.1128125 43.6796875 176.1328125 C42.82697266 176.11541016 42.82697266 176.11541016 41.95703125 176.09765625 C37.07298266 176.04058056 32.49464785 176.31324478 27.6796875 177.1328125 C27.6796875 178.1228125 27.6796875 179.1128125 27.6796875 180.1328125 C26.0296875 180.1328125 24.3796875 180.1328125 22.6796875 180.1328125 C22.6796875 180.7928125 22.6796875 181.4528125 22.6796875 182.1328125 C20.6796875 181.1328125 20.6796875 181.1328125 19.6796875 180.1328125 C17.78143235 180.34096814 15.88612925 180.57600522 13.9921875 180.8203125 C4.43487352 181.61593679 -4.50428375 179.53580612 -13.82714844 177.59863281 C-16.193138 177.15657366 -18.52828715 176.86680883 -20.921875 176.625 C-22.60410156 176.38136719 -22.60410156 176.38136719 -24.3203125 176.1328125 C-24.6503125 175.4728125 -24.9803125 174.8128125 -25.3203125 174.1328125 C-27.64187847 173.72552022 -29.9771912 173.38842573 -32.3203125 173.1328125 C-32.3203125 172.4728125 -32.3203125 171.8128125 -32.3203125 171.1328125 C-32.9390625 170.8440625 -33.5578125 170.5553125 -34.1953125 170.2578125 C-36.3203125 169.1328125 -36.3203125 169.1328125 -38.3203125 167.1328125 C-39.3103125 167.4628125 -40.3003125 167.7928125 -41.3203125 168.1328125 C-41.57167969 167.54886719 -41.82304688 166.96492187 -42.08203125 166.36328125 C-43.47608847 163.85221918 -44.98252494 162.34069025 -47.1328125 160.4453125 C-47.79925781 159.84332031 -48.46570313 159.24132812 -49.15234375 158.62109375 C-51.56814532 156.96267861 -53.43835065 156.51003264 -56.3203125 156.1328125 C-56.3615625 155.4521875 -56.4028125 154.7715625 -56.4453125 154.0703125 C-57.67865196 149.92981574 -60.16696498 147.05083558 -63.3203125 144.1328125 C-64.3103125 143.8028125 -65.3003125 143.4728125 -66.3203125 143.1328125 C-67.55898411 140.51783911 -68.40535233 137.87769301 -69.3203125 135.1328125 C-71.31696564 133.44742649 -71.31696564 133.44742649 -73.3203125 132.1328125 C-72.6603125 131.8028125 -72.0003125 131.4728125 -71.3203125 131.1328125 C-71.7534375 130.14539063 -72.1865625 129.15796875 -72.6328125 128.140625 C-73.19550295 126.84643696 -73.75799255 125.55216157 -74.3203125 124.2578125 C-74.60648438 123.60683594 -74.89265625 122.95585937 -75.1875 122.28515625 C-77.3203125 117.359375 -77.3203125 117.359375 -77.3203125 115.1328125 C-77.9803125 115.1328125 -78.6403125 115.1328125 -79.3203125 115.1328125 C-78.9903125 113.1528125 -78.6603125 111.1728125 -78.3203125 109.1328125 C-79.3103125 108.8028125 -80.3003125 108.4728125 -81.3203125 108.1328125 C-80.6603125 108.1328125 -80.0003125 108.1328125 -79.3203125 108.1328125 C-79.3203125 107.4728125 -79.3203125 106.8128125 -79.3203125 106.1328125 C-79.9803125 106.1328125 -80.6403125 106.1328125 -81.3203125 106.1328125 C-81.3203125 105.4728125 -81.3203125 104.8128125 -81.3203125 104.1328125 C-81.9803125 103.4728125 -82.6403125 102.8128125 -83.3203125 102.1328125 C-83.02661423 100.79019185 -82.6924167 99.45584967 -82.3203125 98.1328125 C-82.6503125 97.4728125 -82.9803125 96.8128125 -83.3203125 96.1328125 C-82.8253125 95.6378125 -82.8253125 95.6378125 -82.3203125 95.1328125 C-81.65851403 93.15235691 -81.65851403 93.15235691 -81.3203125 91.1328125 C-81.6503125 90.8028125 -81.9803125 90.4728125 -82.3203125 90.1328125 C-81.9903125 89.1428125 -81.6603125 88.1528125 -81.3203125 87.1328125 C-81.9803125 86.8028125 -82.6403125 86.4728125 -83.3203125 86.1328125 C-82.8253125 85.1428125 -82.8253125 85.1428125 -82.3203125 84.1328125 C-81.9903125 84.1328125 -81.6603125 84.1328125 -81.3203125 84.1328125 C-80.9903125 82.4828125 -80.6603125 80.8328125 -80.3203125 79.1328125 C-80.9803125 78.8028125 -81.6403125 78.4728125 -82.3203125 78.1328125 C-81.6603125 78.1328125 -81.0003125 78.1328125 -80.3203125 78.1328125 C-80.24554688 77.4521875 -80.17078125 76.7715625 -80.09375 76.0703125 C-78.22165133 62.26817329 -73.12299176 49.13201951 -64.69921875 37.98828125 C-63.2675483 36.19956753 -63.2675483 36.19956753 -62.4453125 34.1953125 C-59.50389836 28.8027199 -53.78417173 24.86228002 -49.2109375 20.90234375 C-47.24123247 19.26417262 -47.24123247 19.26417262 -46.3203125 17.1328125 C-45.3303125 16.8234375 -44.3403125 16.5140625 -43.3203125 16.1953125 C-42.3303125 15.8446875 -41.3403125 15.4940625 -40.3203125 15.1328125 C-39.9903125 14.1428125 -39.6603125 13.1528125 -39.3203125 12.1328125 C-36.2578125 10.9453125 -36.2578125 10.9453125 -33.3203125 10.1328125 C-33.3203125 9.4728125 -33.3203125 8.8128125 -33.3203125 8.1328125 C-32.4334375 7.9884375 -31.5465625 7.8440625 -30.6328125 7.6953125 C-29.5396875 7.5096875 -28.4465625 7.3240625 -27.3203125 7.1328125 C-25.928125 6.91625 -25.928125 6.91625 -24.5078125 6.6953125 C-23.7859375 6.5096875 -23.0640625 6.3240625 -22.3203125 6.1328125 C-21.9903125 5.4728125 -21.6603125 4.8128125 -21.3203125 4.1328125 C-17.52084793 2.81463091 -13.93589705 2.03048802 -9.9453125 1.5703125 C-6.06734513 1.10228196 -4.07205169 0.00460416 0 0 Z M21.6796875 178.1328125 C21.6796875 178.4628125 21.6796875 178.7928125 21.6796875 179.1328125 C23.3296875 179.1328125 24.9796875 179.1328125 26.6796875 179.1328125 C26.6796875 178.8028125 26.6796875 178.4728125 26.6796875 178.1328125 C25.0296875 178.1328125 23.3796875 178.1328125 21.6796875 178.1328125 Z " fill="#E5E5E5" transform="translate(129.3203125,67.8671875)"/>
<path d="M0 0 C4.77684539 0.41451964 8.2579101 1.39705196 12 4.4375 C15.19504152 8.53114695 15.11931154 11.63462481 15.09765625 16.68701172 C15.09619598 17.36216827 15.09473572 18.03732483 15.0932312 18.73294067 C15.08942797 20.19799404 15.0833143 21.66304282 15.07516479 23.12807846 C15.0623968 25.44844227 15.05588413 27.76874886 15.05102539 30.08914185 C15.03765515 35.85352523 15.01347959 41.61785436 14.98962402 47.38220215 C14.96987615 52.25136129 14.95424058 57.12050004 14.94406128 61.98968887 C14.93759137 64.27244981 14.92508168 66.55512675 14.91235352 68.83786011 C14.90871936 70.24330574 14.90536783 71.64875214 14.90234375 73.05419922 C14.89710693 74.27759003 14.89187012 75.50098083 14.88647461 76.76144409 C14.98744325 79.64179181 15.33156082 82.20402929 16 85 C13 87 13 87 10 87 C9.01 87.99 9.01 87.99 8 89 C6.01643517 89.71408334 4.01684563 90.38617742 2 91 C1.67 90.34 1.34 89.68 1 89 C0.071875 88.731875 -0.85625 88.46375 -1.8125 88.1875 C-5.5293311 86.80279822 -6.79393487 85.22424903 -9 82 C-8.34 82 -7.68 82 -7 82 C-7 80.68 -7 79.36 -7 78 C-7.66 77.67 -8.32 77.34 -9 77 C-8.34 74.36 -7.68 71.72 -7 69 C-7.66 68.67 -8.32 68.34 -9 68 C-8.34 68 -7.68 68 -7 68 C-7 65.03 -7 62.06 -7 59 C-7.66 59 -8.32 59 -9 59 C-8.34 57.68 -7.68 56.36 -7 55 C-7.66 54.67 -8.32 54.34 -9 54 C-8.34 54 -7.68 54 -7 54 C-7.350625 53.278125 -7.70125 52.55625 -8.0625 51.8125 C-9.12001893 48.6399432 -8.75462572 47.18619748 -8 44 C-8.495 42.515 -8.495 42.515 -9 41 C-8.505 40.505 -8.505 40.505 -8 40 C-8.495 38.515 -8.495 38.515 -9 37 C-9.0396713 35.33380554 -9.04384447 33.66608987 -9 32 C-9 31.67 -9 31.34 -9 31 C-8.505 29.515 -8.505 29.515 -8 28 C-8.33 27.67 -8.66 27.34 -9 27 C-9.04165365 25.33385392 -9.04165365 23.66614608 -9 22 C-9 21.67 -9 21.34 -9 21 C-9 20.01 -9 19.02 -9 18 C-8.34 18 -7.68 18 -7 18 C-7.66 17.34 -8.32 16.68 -9 16 C-9.125 12.875 -9.125 12.875 -9 10 C-8.34 10 -7.68 10 -7 10 C-6.9071875 8.6078125 -6.9071875 8.6078125 -6.8125 7.1875 C-6 4 -6 4 -3.5 2.1875 C-2.675 1.795625 -1.85 1.40375 -1 1 C-0.67 0.67 -0.34 0.34 0 0 Z " fill="#E8E8E8" transform="translate(134,113)"/>
<path d="M0 0 C1.02544922 -0.020625 2.05089844 -0.04125 3.10742188 -0.0625 C10.76167551 -0.10167724 16.14240378 1.02244352 22.8125 4.9375 C27.20637216 9.71906676 27.48332737 16.70829745 27.40625 22.98046875 C26.5963329 26.90181737 24.16939539 28.09540307 20.9375 30.25 C20.9375 30.91 20.9375 31.57 20.9375 32.25 C19.9475 32.58 18.9575 32.91 17.9375 33.25 C18.27595947 33.73879639 18.61441895 34.22759277 18.96313477 34.73120117 C20.49108704 36.95633602 21.99555675 39.19641097 23.5 41.4375 C24.03302734 42.20642578 24.56605469 42.97535156 25.11523438 43.76757812 C25.86450195 44.89389648 25.86450195 44.89389648 26.62890625 46.04296875 C27.09498291 46.7289917 27.56105957 47.41501465 28.04125977 48.12182617 C29.19240847 50.85529478 28.74406798 52.44947616 27.9375 55.25 C24.16795632 56.50651456 21.34782017 56.29657429 17.71875 54.609375 C14.00618784 51.77610388 11.88888451 47.41724237 9.9375 43.25 C9.9375 42.59 9.9375 41.93 9.9375 41.25 C8.2875 41.25 6.6375 41.25 4.9375 41.25 C5.2675 39.93 5.5975 38.61 5.9375 37.25 C5.2775 37.25 4.6175 37.25 3.9375 37.25 C3.9375 36.59 3.9375 35.93 3.9375 35.25 C3.2775 35.91 2.6175 36.57 1.9375 37.25 C1.9375 37.91 1.9375 38.57 1.9375 39.25 C1.2775 39.25 0.6175 39.25 -0.0625 39.25 C0.05259661 40.66750563 0.18003658 42.08401169 0.3125 43.5 C0.38210937 44.28890625 0.45171875 45.0778125 0.5234375 45.890625 C0.95257113 48.335877 1.72350638 50.09836903 2.9375 52.25 C2.339375 52.518125 1.74125 52.78625 1.125 53.0625 C-1.13638692 54.08343516 -1.13638692 54.08343516 -2.3125 56 C-4.0625 57.25 -4.0625 57.25 -6.02734375 56.99609375 C-8.05840764 56.48565063 -10.06302308 55.87278789 -12.0625 55.25 C-10.7425 54.59 -9.4225 53.93 -8.0625 53.25 C-9.3825 52.92 -10.7025 52.59 -12.0625 52.25 C-13.35140823 23.27148509 -13.35140823 23.27148509 -12.6875 9.9375 C-12.64439697 9.06198486 -12.60129395 8.18646973 -12.55688477 7.28442383 C-12.00841095 -1.92337337 -8.20927606 0.04021691 0 0 Z M-0.0625 11.25 C0.5975 11.91 1.2575 12.57 1.9375 13.25 C1.6075 13.8275 1.2775 14.405 0.9375 15 C-0.33325898 17.44883862 -0.33325898 17.44883862 -0.0625 21.25 C0.5975 21.25 1.2575 21.25 1.9375 21.25 C1.2775 22.57 0.6175 23.89 -0.0625 25.25 C4.22456385 25.50218023 7.87647316 25.64788506 11.9375 24.125 C14.61411449 21.61567391 14.7870143 19.86165676 14.9375 16.25 C14.18599977 12.97226496 14.18599977 12.97226496 10.9375 11.25 C8.19231679 11.00812349 8.19231679 11.00812349 5.25 11.125 C4.25613281 11.14304687 3.26226562 11.16109375 2.23828125 11.1796875 C1.47902344 11.20289063 0.71976563 11.22609375 -0.0625 11.25 Z " fill="#DFDFDF" transform="translate(73.0625,282.75)"/>
<path d="M0 0 C3.3 0 6.6 0 10 0 C10.87867729 3.73437848 11.08912219 7.16774573 11 11 C11.66 11.33 12.32 11.66 13 12 C12.34 12.66 11.68 13.32 11 14 C11.30300475 16.33746522 11.63858045 18.67085177 12 21 C11.5625 23.4375 11.5625 23.4375 11 25 C11.66 25 12.32 25 13 25 C13.26039063 24.42636719 13.52078125 23.85273438 13.7890625 23.26171875 C15.09338587 20.8255793 16.57528158 18.90693214 18.375 16.8125 C18.96023437 16.11769531 19.54546875 15.42289062 20.1484375 14.70703125 C22.13451225 12.87598765 23.36234076 12.38925808 26 12 C26 12.66 26 13.32 26 14 C30.455 13.505 30.455 13.505 35 13 C34.67 13.99 34.34 14.98 34 16 C34.66 16.33 35.32 16.66 36 17 C35.29875 17.350625 34.5975 17.70125 33.875 18.0625 C30.68257321 20.21391805 28.68989629 22.56934061 26.33203125 25.57421875 C25.89246094 26.04472656 25.45289063 26.51523437 25 27 C24.34 27 23.68 27 23 27 C22.0406843 29.19514873 22.0406843 29.19514873 22 32 C23.8775384 34.60258454 23.8775384 34.60258454 25.453125 36.25 C27.27027363 38.3057641 28.78079033 40.47431706 30.3125 42.75 C30.82425781 43.50796875 31.33601563 44.2659375 31.86328125 45.046875 C33 47 33 47 33 49 C33.99 49.33 34.98 49.66 36 50 C36 50.99 36 51.98 36 53 C35.01 53.495 35.01 53.495 34 54 C34.66 54.66 35.32 55.32 36 56 C31.545 56.495 31.545 56.495 27 57 C26.34 56.01 25.68 55.02 25 54 C23.515 53.505 23.515 53.505 22 53 C21.34 52.01 20.68 51.02 20 50 C17.94996045 48.80767387 17.94996045 48.80767387 16 48 C16 47.01 16 46.02 16 45 C15.34 45 14.68 45 14 45 C14 44.34 14 43.68 14 43 C13.01 42.67 12.02 42.34 11 42 C10.91087781 45.83225427 11.12132271 49.26562152 12 53 C10.515 53.495 10.515 53.495 9 54 C8.34 54.66 7.68 55.32 7 56 C5.515 56.495 5.515 56.495 4 57 C4 56.34 4 55.68 4 55 C3.360625 54.896875 2.72125 54.79375 2.0625 54.6875 C1.381875 54.460625 0.70125 54.23375 0 54 C-1.09658936 50.71023192 -0.79953138 49.28696233 0 46 C-0.66 46 -1.32 46 -2 46 C-1.855625 45.05125 -1.71125 44.1025 -1.5625 43.125 C-0.88802722 38.43259653 -0.44623104 33.71865588 0 29 C-0.66 28.67 -1.32 28.34 -2 28 C-2 27.34 -2 26.68 -2 26 C-1.34 26 -0.68 26 0 26 C-0.0721875 24.85402344 -0.144375 23.70804687 -0.21875 22.52734375 C-0.31261142 20.99740266 -0.40635515 19.46745436 -0.5 17.9375 C-0.54769531 17.18533203 -0.59539062 16.43316406 -0.64453125 15.65820312 C-1.42124155 2.84248311 -1.42124155 2.84248311 0 0 Z M12 39 C12 39.66 12 40.32 12 41 C12.66 40.67 13.32 40.34 14 40 C13.34 39.67 12.68 39.34 12 39 Z " fill="#E2E2E2" transform="translate(145,283)"/>
<path d="M0 0 C0.99 0.66 1.98 1.32 3 2 C2.34 2 1.68 2 1 2 C1 2.66 1 3.32 1 4 C1.66 4.33 2.32 4.66 3 5 C2.91621094 5.96421875 2.83242187 6.9284375 2.74609375 7.921875 C2.64425781 9.18515625 2.54242188 10.4484375 2.4375 11.75 C2.33308594 13.00296875 2.22867188 14.2559375 2.12109375 15.546875 C2.02123277 18.39452364 2.09415705 20.34286067 3 23 C2.34 23 1.68 23 1 23 C1 23.66 1 24.32 1 25 C1.66 25.33 2.32 25.66 3 26 C2.67 26.33 2.34 26.66 2 27 C5.91063224 28.47047336 5.91063224 28.47047336 10 29 C10 28.34 10 27.68 10 27 C10.66 26.67 11.32 26.34 12 26 C12.01981934 25.25314941 12.03963867 24.50629883 12.06005859 23.73681641 C12.15508211 20.36584395 12.26485259 16.99551071 12.375 13.625 C12.4059375 12.449375 12.436875 11.27375 12.46875 10.0625 C12.50742188 8.94101562 12.54609375 7.81953125 12.5859375 6.6640625 C12.6173584 5.62717285 12.6487793 4.5902832 12.68115234 3.52197266 C13 1 13 1 15 -1 C18.79877599 -1.35173852 21.14360153 -1.52701444 24.4375 0.5 C24.953125 0.995 25.46875 1.49 26 2 C25.67 2.66 25.34 3.32 25 4 C25.66 4.33 26.32 4.66 27 5 C26.34 5 25.68 5 25 5 C25.495 6.6396875 25.495 6.6396875 26 8.3125 C26.91081244 11.67112087 27.34769597 13.72511478 26.4375 17.0625 C25.76986497 19.0674281 25.76986497 19.0674281 27 21 C26.34 21 25.68 21 25 21 C25.165 21.639375 25.33 22.27875 25.5 22.9375 C26.05666627 26.34708087 25.94168665 29.47563592 25.7421875 32.9140625 C26.06803453 35.55046116 27.03383478 36.30148031 29 38 C29 38.33 29 38.66 29 39 C28.236875 39.103125 27.47375 39.20625 26.6875 39.3125 C23.757381 40.06206532 23.02209812 40.88598833 21 43 C20.01 43 19.02 43 18 43 C17.34 42.01 16.68 41.02 16 40 C15.34 40 14.68 40 14 40 C13.67 39.01 13.34 38.02 13 37 C10.69 38.32 8.38 39.64 6 41 C6 41.33 6 41.66 6 42 C3.03 41.67 0.06 41.34 -3 41 C-3 40.34 -3 39.68 -3 39 C-4.175625 38.071875 -4.175625 38.071875 -5.375 37.125 C-8.00554055 34.99551479 -8.82629819 34.07176075 -10 31 C-10.22705078 28.34277344 -10.22705078 28.34277344 -10.1953125 25.359375 C-10.18886719 24.28945313 -10.18242187 23.21953125 -10.17578125 22.1171875 C-10.15902344 21.00601562 -10.14226562 19.89484375 -10.125 18.75 C-10.11597656 17.62335938 -10.10695312 16.49671875 -10.09765625 15.3359375 C-10.07410658 12.55707635 -10.0412168 9.7786461 -10 7 C-10.66 6.67 -11.32 6.34 -12 6 C-11.34 6 -10.68 6 -10 6 C-10.33 4.35 -10.66 2.7 -11 1 C-7.22301161 -1.56835211 -4.3286606 -0.94443504 0 0 Z " fill="#E0E0E0" transform="translate(192,297)"/>
<path d="M0 0 C0.495 1.485 0.495 1.485 1 3 C0.67 3.33 0.34 3.66 0 4 C-0.23427778 6.01594582 -0.41336124 8.038474 -0.5625 10.0625 C-0.64628906 11.16722656 -0.73007813 12.27195312 -0.81640625 13.41015625 C-0.90728516 14.69212891 -0.90728516 14.69212891 -1 16 C-0.34 16.33 0.32 16.66 1 17 C0.34 17 -0.32 17 -1 17 C-0.91621094 18.19238281 -0.83242187 19.38476562 -0.74609375 20.61328125 C-0.64291864 22.17966708 -0.54007111 23.74607451 -0.4375 25.3125 C-0.35338867 26.49102539 -0.35338867 26.49102539 -0.26757812 27.69335938 C-0.21923828 28.45068359 -0.17089844 29.20800781 -0.12109375 29.98828125 C-0.0739624 30.68477783 -0.02683105 31.38127441 0.02172852 32.09887695 C0 34 0 34 -1 37 C-0.01 37.495 -0.01 37.495 1 38 C0.0625 39.9375 0.0625 39.9375 -2 42 C-4.9858081 42.66174825 -7.94861869 42.87205948 -11 43 C-11.66 41.68 -12.32 40.36 -13 39 C-14.65 39.66 -16.3 40.32 -18 41 C-18 41.66 -18 42.32 -18 43 C-24.75 44.125 -24.75 44.125 -27 43 C-27.495 41.515 -27.495 41.515 -28 40 C-29.60447356 38.91807467 -29.60447356 38.91807467 -31.5 38.0625 C-34.87978509 36.24794325 -34.87978509 36.24794325 -36 33.9375 C-36 32 -36 32 -35 29 C-35.66 29 -36.32 29 -37 29 C-37 28.01 -37 27.02 -37 26 C-36.34 26 -35.68 26 -35 26 C-35 23.36 -35 20.72 -35 18 C-36.32 17.67 -37.64 17.34 -39 17 C-38.01 16.67 -37.02 16.34 -36 16 C-35.67 15.01 -35.34 14.02 -35 13 C-35.66 12.67 -36.32 12.34 -37 12 C-37 10.35 -37 8.7 -37 7 C-36.34 7 -35.68 7 -35 7 C-35.020625 6.030625 -35.04125 5.06125 -35.0625 4.0625 C-35 1 -35 1 -34 0 C-25.61832061 -0.41221374 -25.61832061 -0.41221374 -22 2 C-22 4.31 -22 6.62 -22 9 C-22.66 9 -23.32 9 -24 9 C-23.67 9.99 -23.34 10.98 -23 12 C-22.82809946 17.15701618 -23.15280366 21.91682196 -24 27 C-23.34 27.33 -22.68 27.66 -22 28 C-22.33 28.66 -22.66 29.32 -23 30 C-18.7890245 30.38428348 -18.7890245 30.38428348 -15.125 28.625 C-13.81026334 27.05533986 -13.81026334 27.05533986 -14 25 C-13.34 25 -12.68 25 -12 25 C-12 24.34 -12 23.68 -12 23 C-12.66 22.67 -13.32 22.34 -14 22 C-13.34 22 -12.68 22 -12 22 C-12 20.68 -12 19.36 -12 18 C-12.66 18 -13.32 18 -14 18 C-14 15.69 -14 13.38 -14 11 C-13.34 11 -12.68 11 -12 11 C-12 10.34 -12 9.68 -12 9 C-12.66 8.67 -13.32 8.34 -14 8 C-13.34 8 -12.68 8 -12 8 C-12 6.68 -12 5.36 -12 4 C-12.66 4 -13.32 4 -14 4 C-14 3.34 -14 2.68 -14 2 C-8.79666866 -0.24281523 -5.65735415 -1.55577239 0 0 Z M-25 41 C-24.67 41.66 -24.34 42.32 -24 43 C-23.34 42.67 -22.68 42.34 -22 42 C-22.99 41.67 -23.98 41.34 -25 41 Z " fill="#E1E1E1" transform="translate(139,296)"/>
<path d="M0 0 C1.02544922 -0.020625 2.05089844 -0.04125 3.10742188 -0.0625 C11.84034355 -0.10719826 18.2558706 1.19477336 24.9375 7.25 C24.6075 7.91 24.2775 8.57 23.9375 9.25 C21.4625 8.755 21.4625 8.755 18.9375 8.25 C18.9375 7.26 18.9375 6.27 18.9375 5.25 C17.2875 4.59 15.6375 3.93 13.9375 3.25 C13.9375 3.58 13.9375 3.91 13.9375 4.25 C6.6775 4.25 -0.5825 4.25 -8.0625 4.25 C-8.0625 19.76 -8.0625 35.27 -8.0625 51.25 C-5.7525 51.25 -3.4425 51.25 -1.0625 51.25 C-1.0625 45.64 -1.0625 40.03 -1.0625 34.25 C1.2475 34.25 3.5575 34.25 5.9375 34.25 C5.9375 35.24 5.9375 36.23 5.9375 37.25 C5.2775 37.25 4.6175 37.25 3.9375 37.25 C3.9375 36.59 3.9375 35.93 3.9375 35.25 C3.2775 35.91 2.6175 36.57 1.9375 37.25 C1.9375 37.91 1.9375 38.57 1.9375 39.25 C1.2775 39.25 0.6175 39.25 -0.0625 39.25 C0.05259661 40.66750563 0.18003658 42.08401169 0.3125 43.5 C0.38210937 44.28890625 0.45171875 45.0778125 0.5234375 45.890625 C0.95257113 48.335877 1.72350638 50.09836903 2.9375 52.25 C2.339375 52.518125 1.74125 52.78625 1.125 53.0625 C-1.13638692 54.08343516 -1.13638692 54.08343516 -2.3125 56 C-4.0625 57.25 -4.0625 57.25 -6.02734375 56.99609375 C-8.05840764 56.48565063 -10.06302308 55.87278789 -12.0625 55.25 C-10.7425 54.59 -9.4225 53.93 -8.0625 53.25 C-9.3825 52.92 -10.7025 52.59 -12.0625 52.25 C-13.35140823 23.27148509 -13.35140823 23.27148509 -12.6875 9.9375 C-12.64439697 9.06198486 -12.60129395 8.18646973 -12.55688477 7.28442383 C-12.00841095 -1.92337337 -8.20927606 0.04021691 0 0 Z " fill="#E4E4E5" transform="translate(73.0625,282.75)"/>
<path d="M0 0 C3.7109611 0.31991044 4.99743948 0.7900419 7.625 3.3125 C7.295 3.9725 6.965 4.6325 6.625 5.3125 C7.285 5.6425 7.945 5.9725 8.625 6.3125 C7.965 6.3125 7.305 6.3125 6.625 6.3125 C6.955 7.405625 7.285 8.49875 7.625 9.625 C8.53581244 12.98362087 8.97269597 15.03761478 8.0625 18.375 C7.39486497 20.3799281 7.39486497 20.3799281 8.625 22.3125 C7.965 22.3125 7.305 22.3125 6.625 22.3125 C6.79 22.951875 6.955 23.59125 7.125 24.25 C7.68465496 27.67788664 7.61024693 30.86362305 7.46484375 34.32421875 C7.42776895 36.54730247 7.42776895 36.54730247 9.625 38.3125 C8.305 38.3125 6.985 38.3125 5.625 38.3125 C5.295 28.7425 4.965 19.1725 4.625 9.3125 C4.295 9.3125 3.965 9.3125 3.625 9.3125 C3.625 7.6625 3.625 6.0125 3.625 4.3125 C1.975 4.3125 0.325 4.3125 -1.375 4.3125 C-1.375 11.9025 -1.375 19.4925 -1.375 27.3125 C-2.035 27.6425 -2.695 27.9725 -3.375 28.3125 C-3.375 25.6725 -3.375 23.0325 -3.375 20.3125 C-3.705 22.2925 -4.035 24.2725 -4.375 26.3125 C-4.705 26.3125 -5.035 26.3125 -5.375 26.3125 C-5.43285647 22.35422765 -5.46854717 18.3960633 -5.5 14.4375 C-5.51675781 13.30957031 -5.53351563 12.18164062 -5.55078125 11.01953125 C-5.55722656 9.94316406 -5.56367188 8.86679687 -5.5703125 7.7578125 C-5.58078613 6.76281738 -5.59125977 5.76782227 -5.60205078 4.74267578 C-5.22543814 0.71170564 -3.89349993 0.36050925 0 0 Z " fill="#E8E8E9" transform="translate(210.375,295.6875)"/>
<path d="M0 0 C1.02544922 -0.020625 2.05089844 -0.04125 3.10742188 -0.0625 C11.84034355 -0.10719826 18.2558706 1.19477336 24.9375 7.25 C24.6075 7.91 24.2775 8.57 23.9375 9.25 C21.4625 8.755 21.4625 8.755 18.9375 8.25 C18.9375 7.26 18.9375 6.27 18.9375 5.25 C17.2875 4.59 15.6375 3.93 13.9375 3.25 C13.9375 3.58 13.9375 3.91 13.9375 4.25 C6.0175 4.25 -1.9025 4.25 -10.0625 4.25 C-10.3925 20.09 -10.7225 35.93 -11.0625 52.25 C-11.3925 52.25 -11.7225 52.25 -12.0625 52.25 C-13.35140823 23.27148509 -13.35140823 23.27148509 -12.6875 9.9375 C-12.64439697 9.06198486 -12.60129395 8.18646973 -12.55688477 7.28442383 C-12.00841095 -1.92337337 -8.20927606 0.04021691 0 0 Z " fill="#EFEFEF" transform="translate(73.0625,282.75)"/>
<path d="M0 0 C1.6396875 -0.00193359 1.6396875 -0.00193359 3.3125 -0.00390625 C4.46492188 -0.00003906 5.61734375 0.00382812 6.8046875 0.0078125 C8.49851562 0.00201172 8.49851562 0.00201172 10.2265625 -0.00390625 C24.43953565 0.01273658 24.43953565 0.01273658 28.6796875 2.1328125 C29.5253125 2.2771875 30.3709375 2.4215625 31.2421875 2.5703125 C32.0465625 2.7559375 32.8509375 2.9415625 33.6796875 3.1328125 C34.1746875 4.1228125 34.1746875 4.1228125 34.6796875 5.1328125 C33.3184375 5.101875 33.3184375 5.101875 31.9296875 5.0703125 C28.8550178 4.99278926 28.8550178 4.99278926 26.6796875 5.6953125 C23.85997419 6.31212479 21.47718947 5.70502881 18.6796875 5.1328125 C19.3396875 4.4728125 19.9996875 3.8128125 20.6796875 3.1328125 C12.4296875 3.1328125 4.1796875 3.1328125 -4.3203125 3.1328125 C-4.3203125 3.7928125 -4.3203125 4.4528125 -4.3203125 5.1328125 C-5.79862471 5.32693431 -7.27800566 5.51293381 -8.7578125 5.6953125 C-9.58152344 5.79972656 -10.40523437 5.90414062 -11.25390625 6.01171875 C-11.93582031 6.05167969 -12.61773437 6.09164062 -13.3203125 6.1328125 C-13.6503125 5.8028125 -13.9803125 5.4728125 -14.3203125 5.1328125 C-15.00738281 5.36097656 -15.69445312 5.58914062 -16.40234375 5.82421875 C-17.75392578 6.25541016 -17.75392578 6.25541016 -19.1328125 6.6953125 C-20.02613281 6.98535156 -20.91945313 7.27539062 -21.83984375 7.57421875 C-24.3203125 8.1328125 -24.3203125 8.1328125 -27.3203125 7.1328125 C-26.5159375 7.0090625 -25.7115625 6.8853125 -24.8828125 6.7578125 C-24.0371875 6.5515625 -23.1915625 6.3453125 -22.3203125 6.1328125 C-21.9903125 5.4728125 -21.6603125 4.8128125 -21.3203125 4.1328125 C-17.52084793 2.81463091 -13.93589705 2.03048802 -9.9453125 1.5703125 C-6.06734513 1.10228196 -4.07205169 0.00460416 0 0 Z " fill="#F8F8F8" transform="translate(129.3203125,67.8671875)"/>
<path d="M0 0 C0.66 0 1.32 0 2 0 C2.00410889 0.85231201 2.00821777 1.70462402 2.01245117 2.58276367 C2.0395042 5.76095348 2.0886643 8.93783292 2.15258789 12.11547852 C2.17570978 13.48775431 2.19015003 14.86020609 2.19555664 16.23266602 C2.20488665 18.21134471 2.24857019 20.18976624 2.29296875 22.16796875 C2.3086792 23.35672607 2.32438965 24.5454834 2.34057617 25.77026367 C3.18246789 29.89369409 4.76624633 31.39025669 8 34 C10.67790896 34.87238858 10.67790896 34.87238858 13 35 C13.33 35.99 13.66 36.98 14 38 C11.525 38.495 11.525 38.495 9 39 C8.67 38.34 8.34 37.68 8 37 C7.071875 36.731875 6.14375 36.46375 5.1875 36.1875 C1.4706689 34.80279822 0.20606513 33.22424903 -2 30 C-1.34 30 -0.68 30 0 30 C0 28.68 0 27.36 0 26 C-0.66 25.67 -1.32 25.34 -2 25 C-1.34 22.36 -0.68 19.72 0 17 C-0.66 16.67 -1.32 16.34 -2 16 C-1.34 16 -0.68 16 0 16 C0 13.03 0 10.06 0 7 C-0.66 7 -1.32 7 -2 7 C-1.34 5.68 -0.68 4.36 0 3 C-0.66 2.67 -1.32 2.34 -2 2 C-1.34 2 -0.68 2 0 2 C0 1.34 0 0.68 0 0 Z " fill="#E4E3E3" transform="translate(127,165)"/>
<path d="M0 0 C0.103125 0.94875 0.20625 1.8975 0.3125 2.875 C0.68539295 6.29107501 0.68539295 6.29107501 4 8 C2.00383446 9.99616554 -1.81701963 9.40983427 -4.5625 9.5625 C-5.27341797 9.60568359 -5.98433594 9.64886719 -6.71679688 9.69335938 C-8.47761912 9.79971777 -10.2387832 9.90038846 -12 10 C-12 11.98 -12 13.96 -12 16 C-12.99 15.34 -13.98 14.68 -15 14 C-17.15274948 14.30840599 -17.15274948 14.30840599 -19 15 C-19 13.68 -19 12.36 -19 11 C-18.01 11 -17.02 11 -16 11 C-16.33 9.35 -16.66 7.7 -17 6 C-15.68 6 -14.36 6 -13 6 C-12.67 5.34 -12.34 4.68 -12 4 C-9 3.3125 -9 3.3125 -6 3 C-5.67 3.33 -5.34 3.66 -5 4 C-5 3.01 -5 2.02 -5 1 C-3 0 -3 0 0 0 Z " fill="#E9EAE9" transform="translate(202,140)"/>
<path d="M0 0 C0.99 0 1.98 0 3 0 C3.33 11.22 3.66 22.44 4 34 C5.32 34.66 6.64 35.32 8 36 C4.04 35.67 0.08 35.34 -4 35 C-4 34.67 -4 34.34 -4 34 C-1.525 33.505 -1.525 33.505 1 33 C0.67 32.67 0.34 32.34 0 32 C-0.0883967 29.6243148 -0.11530305 27.27791326 -0.09765625 24.90234375 C-0.09553383 23.83905602 -0.09553383 23.83905602 -0.09336853 22.75428772 C-0.08775443 20.48198288 -0.07519963 18.20977525 -0.0625 15.9375 C-0.05748681 14.40039204 -0.05292359 12.86328255 -0.04882812 11.32617188 C-0.03778042 7.55074358 -0.02050641 3.77538829 0 0 Z " fill="#E5E5E5" transform="translate(213,300)"/>
<path d="M0 0 C0.59167969 0.13277344 1.18335937 0.26554688 1.79296875 0.40234375 C2.58316406 0.57894531 3.37335938 0.75554687 4.1875 0.9375 C5.42113281 1.21400391 5.42113281 1.21400391 6.6796875 1.49609375 C8.38333079 1.86607689 10.09605765 2.19485469 11.8125 2.5 C14 3 14 3 15.84277344 4.01464844 C18.30758143 5.14049328 20.00389498 5.25808826 22.703125 5.265625 C23.60160156 5.26820313 24.50007813 5.27078125 25.42578125 5.2734375 C26.35777344 5.26570312 27.28976563 5.25796875 28.25 5.25 C29.16652344 5.25773438 30.08304688 5.26546875 31.02734375 5.2734375 C36.69156882 5.25727709 41.56668022 4.60703824 47 3 C47 2.67 47 2.34 47 2 C51.455 1.505 51.455 1.505 56 1 C55 3 55 3 52.46484375 4.0703125 C35.0321338 9.28275069 16.85532932 8.94042972 0 2 C0 1.34 0 0.68 0 0 Z " fill="#FBFBFB" transform="translate(109,218)"/>
<path d="M0 0 C1.70884005 1.62339805 3.37446717 3.29319053 5 5 C5 5.66 5 6.32 5 7 C5.99 7.33 6.98 7.66 8 8 C8 8.99 8 9.98 8 11 C7.01 11.495 7.01 11.495 6 12 C6.66 12.66 7.32 13.32 8 14 C4.9898122 14.5805813 2.07124245 15.04348662 -1 15 C-3.125 13.25 -3.125 13.25 -4 11 C-3.67 10.01 -3.34 9.02 -3 8 C-1.35 8.33 0.3 8.66 2 9 C0.68 7.02 -0.64 5.04 -2 3 C-1 1 -1 1 0 0 Z " fill="#E6E6E6" transform="translate(173,325)"/>
<path d="M0 0 C2.97 0 5.94 0 9 0 C9 0.33 9 0.66 9 1 C6.69 1 4.38 1 2 1 C2 9.91 2 18.82 2 28 C0.68 27.67 -0.64 27.34 -2 27 C-2 26.01 -2 25.02 -2 24 C-1.34 24 -0.68 24 0 24 C0 21.36 0 18.72 0 16 C-1.32 15.67 -2.64 15.34 -4 15 C-3.01 14.67 -2.02 14.34 -1 14 C-0.67 13.01 -0.34 12.02 0 11 C-0.66 10.67 -1.32 10.34 -2 10 C-2 8.35 -2 6.7 -2 5 C-1.34 5 -0.68 5 0 5 C0 3.35 0 1.7 0 0 Z " fill="#DADADB" transform="translate(104,298)"/>
<path d="M0 0 C0.99 0.33 1.98 0.66 3 1 C3.6875 3.0625 3.6875 3.0625 4 5 C6.64 5.33 9.28 5.66 12 6 C11.34 4.35 10.68 2.7 10 1 C13 1 13 1 15.25 3.1875 C17 6 17 6 16.75 8.8125 C16.5025 9.534375 16.255 10.25625 16 11 C12.61524427 12.12825191 10.92632132 11.97931827 7.4375 11 C3.06268275 8.45465178 2.06761671 6.54875676 0 2 C0 1.34 0 0.68 0 0 Z " fill="#E6E5E6" transform="translate(85,327)"/>
<path d="M0 0 C0.33 0 0.66 0 1 0 C1 16.17 1 32.34 1 49 C3.64 49 6.28 49 9 49 C9.33 49.99 9.66 50.98 10 52 C6.67438135 53.76062164 5.40826005 54.10784228 1.6875 53.125 C0.800625 52.75375 -0.08625 52.3825 -1 52 C0.32 51.34 1.64 50.68 3 50 C2.01 50 1.02 50 0 50 C0 33.5 0 17 0 0 Z " fill="#D9D9D9" transform="translate(62,286)"/>
<path d="M0 0 C8.57142857 -0.28571429 8.57142857 -0.28571429 12 2 C12 4.31 12 6.62 12 9 C11.34 9 10.68 9 10 9 C10.33 9.99 10.66 10.98 11 12 C11.15895578 16.84815131 10.95503889 21.22480555 10 26 C7.96887319 22.95330979 7.72169935 22.09302718 7.55078125 18.62109375 C7.48600586 17.36329102 7.48600586 17.36329102 7.41992188 16.08007812 C7.38447266 15.20802734 7.34902344 14.33597656 7.3125 13.4375 C7.26544922 12.56158203 7.21839844 11.68566406 7.16992188 10.78320312 C6.86414717 4.27170567 6.86414717 4.27170567 8 2 C5.03 2 2.06 2 -1 2 C-0.67 1.34 -0.34 0.68 0 0 Z " fill="#ECEDED" transform="translate(105,296)"/>
<path d="M0 0 C0.33 0 0.66 0 1 0 C1 3.96 1 7.92 1 12 C1.66 12.33 2.32 12.66 3 13 C2.34 13 1.68 13 1 13 C1.09539062 14.18078125 1.19078125 15.3615625 1.2890625 16.578125 C1.40163471 18.13537391 1.51358114 19.69266815 1.625 21.25 C1.68945312 22.02730469 1.75390625 22.80460937 1.8203125 23.60546875 C2.30707097 30.72431144 2.30707097 30.72431144 0 34 C-1.48125044 31.03749913 -1.12990684 28.36087105 -1.1328125 25.05859375 C-1.13376923 24.37571793 -1.13472595 23.6928421 -1.13571167 22.98927307 C-1.13639223 21.54598905 -1.1345466 20.10270197 -1.13037109 18.65942383 C-1.12501282 16.44280172 -1.13032443 14.22638148 -1.13671875 12.00976562 C-1.13605811 10.60937455 -1.13477723 9.2089836 -1.1328125 7.80859375 C-1.13168457 6.52782959 -1.13055664 5.24706543 -1.12939453 3.92749023 C-1 1 -1 1 0 0 Z " fill="#CCCCCC" transform="translate(137,300)"/>
<path d="M0 0 C0 0.99 0 1.98 0 3 C0.66 3 1.32 3 2 3 C1.51398601 8.46765734 1.51398601 8.46765734 -0.75 10.8125 C-5.0650127 13.08986782 -8.30869835 13.20633471 -13 12 C-13 11.67 -13 11.34 -13 11 C-10.03 11 -7.06 11 -4 11 C-4 9.68 -4 8.36 -4 7 C-4.61875 6.9175 -5.2375 6.835 -5.875 6.75 C-8 6 -8 6 -9.25 3.9375 C-9.62125 2.9784375 -9.62125 2.9784375 -10 2 C-7.36 2.33 -4.72 2.66 -2 3 C-2 2.34 -2 1.68 -2 1 C-1.34 0.67 -0.68 0.34 0 0 Z " fill="#E9E8E9" transform="translate(204,323)"/>
<path d="M0 0 C4.554787 3.80014774 8.95279259 7.65665546 13 12 C13 12.66 13 13.32 13 14 C13.5775 14.2475 14.155 14.495 14.75 14.75 C17 16 17 16 19 18.0625 C21.07852616 20.07607222 22.18768658 20.59824094 25 21 C25 21.66 25 22.32 25 23 C19.72611787 22.80053396 17.49142134 21.01218369 13.99804688 17.38867188 C13.44181641 16.78603516 12.88558594 16.18339844 12.3125 15.5625 C11.18569659 14.37430435 10.05686388 13.18802909 8.92578125 12.00390625 C8.43505127 11.47611572 7.94432129 10.9483252 7.4387207 10.40454102 C5.8488296 8.76610337 5.8488296 8.76610337 3 7 C0 2.55555556 0 2.55555556 0 0 Z " fill="#D8D8D9" transform="translate(191,159)"/>
<path d="M0 0 C4.48810593 1.76318447 6.99843126 4.70278489 8.91796875 9.10546875 C9.65304574 11.05532086 10.33101534 13.02649526 11 15 C9.35 15 7.7 15 6 15 C5.67 13.68 5.34 12.36 5 11 C4.34 11 3.68 11 3 11 C3 10.34 3 9.68 3 9 C1.68 8.67 0.36 8.34 -1 8 C-0.625 6.0625 -0.625 6.0625 0 4 C0.66 3.67 1.32 3.34 2 3 C1.34 2.67 0.68 2.34 0 2 C0 1.34 0 0.68 0 0 Z M1 5 C1 5.66 1 6.32 1 7 C1.66 6.67 2.32 6.34 3 6 C2.34 5.67 1.68 5.34 1 5 Z " fill="#EAE9EA" transform="translate(156,317)"/>
<path d="M0 0 C8.79264144 1.24439618 17.68653749 6.86692213 24 13 C24 13.33 24 13.66 24 14 C21.36 14 18.72 14 16 14 C16 13.34 16 12.68 16 12 C15.34 12 14.68 12 14 12 C13.938125 11.401875 13.87625 10.80375 13.8125 10.1875 C12.65422805 7.06907553 10.93168385 6.43175258 8 5 C6.9790625 4.7834375 6.9790625 4.7834375 5.9375 4.5625 C3.20587289 3.76944697 1.87338701 2.07410705 0 0 Z " fill="#CFD0D0" transform="translate(159,94)"/>
<path d="M0 0 C0.99 0.495 0.99 0.495 2 1 C1.67 1.66 1.34 2.32 1 3 C1.66 3.33 2.32 3.66 3 4 C2.34 4 1.68 4 1 4 C1.33 5.093125 1.66 6.18625 2 7.3125 C2.91081244 10.67112087 3.34769597 12.72511478 2.4375 16.0625 C1.76986497 18.0674281 1.76986497 18.0674281 3 20 C2.34 20 1.68 20 1 20 C1.165 20.639375 1.33 21.27875 1.5 21.9375 C2.05965496 25.36538664 1.98524693 28.55112305 1.83984375 32.01171875 C1.80276895 34.23480247 1.80276895 34.23480247 4 36 C2.68 36 1.36 36 0 36 C0 24.12 0 12.24 0 0 Z " fill="#FBFBFB" transform="translate(216,298)"/>
<path d="M0 0 C2.64 0 5.28 0 8 0 C8 0.33 8 0.66 8 1 C5.69 1 3.38 1 1 1 C1 9.25 1 17.5 1 26 C0.34 26 -0.32 26 -1 26 C-1 19.4 -1 12.8 -1 6 C-1.66 5.67 -2.32 5.34 -3 5 C-2.34 5 -1.68 5 -1 5 C-0.67 3.35 -0.34 1.7 0 0 Z " fill="#D2D2D2" transform="translate(183,298)"/>
<path d="M0 0 C0.66 0.33 1.32 0.66 2 1 C2.02948491 4.14581302 2.04695916 7.29158963 2.0625 10.4375 C2.07087891 11.31599609 2.07925781 12.19449219 2.08789062 13.09960938 C2.10899107 18.81783077 1.73280057 24.32800815 1 30 C0.67 30 0.34 30 0 30 C0 26.7 0 23.4 0 20 C-0.66 19.67 -1.32 19.34 -2 19 C-2 18.34 -2 17.68 -2 17 C-1.34 17 -0.68 17 0 17 C-0.08378906 16.35933594 -0.16757813 15.71867187 -0.25390625 15.05859375 C-0.87664605 9.76924686 -1.02317185 5.22954501 0 0 Z " fill="#CCCCCC" transform="translate(145,292)"/>
<path d="M0 0 C0 0.33 0 0.66 0 1 C-4.62 1.33 -9.24 1.66 -14 2 C-14 2.33 -14 2.66 -14 3 C-14.92941406 3.06058594 -15.85882813 3.12117188 -16.81640625 3.18359375 C-25.94146885 3.79571552 -25.94146885 3.79571552 -35 5 C-27.23362415 -2.76637585 -10.03934898 -0.27025167 0 0 Z " fill="#EDEEED" transform="translate(147,89)"/>
<path d="M0 0 C3.3 0 6.6 0 10 0 C10 0.33 10 0.66 10 1 C7.69 1.33 5.38 1.66 3 2 C3.33 3.32 3.66 4.64 4 6 C3.01 6.495 3.01 6.495 2 7 C1.34786708 9.02463255 1.34786708 9.02463255 1 11 C1.66 11 2.32 11 3 11 C2.67 11.99 2.34 12.98 2 14 C5.63 14 9.26 14 13 14 C11 16 11 16 8.3984375 16.1953125 C5.59895833 16.13020833 2.79947917 16.06510417 0 16 C0 10.72 0 5.44 0 0 Z " fill="#F8F8F8" transform="translate(72,293)"/>
<path d="M0 0 C3.66651247 -0.08796382 7.33274918 -0.14071247 11 -0.1875 C12.54494141 -0.22520508 12.54494141 -0.22520508 14.12109375 -0.26367188 C22.895397 -0.3475028 29.28151008 0.91136851 36 7 C35.67 7.66 35.34 8.32 35 9 C32.525 8.505 32.525 8.505 30 8 C30 7.01 30 6.02 30 5 C23.26740976 2.30633965 17.15460313 1.48828191 9.9375 1.3125 C8.97650391 1.27833984 8.01550781 1.24417969 7.02539062 1.20898438 C4.68371073 1.12743333 2.34236137 1.05799034 0 1 C0 0.67 0 0.34 0 0 Z " fill="#F7F7F7" transform="translate(62,283)"/>
<path d="M0 0 C2.31 0 4.62 0 7 0 C7 0.99 7 1.98 7 3 C6.34 3 5.68 3 5 3 C5 2.34 5 1.68 5 1 C4.34 1.66 3.68 2.32 3 3 C3 3.66 3 4.32 3 5 C2.34 5 1.68 5 1 5 C1.11509661 6.41750563 1.24253658 7.83401169 1.375 9.25 C1.44460937 10.03890625 1.51421875 10.8278125 1.5859375 11.640625 C2.01507113 14.085877 2.78600638 15.84836903 4 18 C-0.25566547 19.16063604 -3.6835078 18.76173392 -8 18 C-8 17.67 -8 17.34 -8 17 C-5.36 17 -2.72 17 0 17 C0 11.39 0 5.78 0 0 Z " fill="#F6F6F5" transform="translate(72,317)"/>
<path d="M0 0 C0.99 0 1.98 0 3 0 C3.05785647 3.95827235 3.09354717 7.9164367 3.125 11.875 C3.14175781 13.00292969 3.15851563 14.13085938 3.17578125 15.29296875 C3.18222656 16.36933594 3.18867188 17.44570313 3.1953125 18.5546875 C3.20578613 19.54968262 3.21625977 20.54467773 3.22705078 21.56982422 C3 24 3 24 1 26 C0.67 25.01 0.34 24.02 0 23 C0.66 23 1.32 23 2 23 C2 22.34 2 21.68 2 21 C1.34 20.67 0.68 20.34 0 20 C0.66 20 1.32 20 2 20 C2 18.68 2 17.36 2 16 C1.34 16 0.68 16 0 16 C0 13.69 0 11.38 0 9 C0.66 9 1.32 9 2 9 C2 8.34 2 7.68 2 7 C1.34 6.67 0.68 6.34 0 6 C0.66 6 1.32 6 2 6 C2 4.68 2 3.36 2 2 C1.34 2 0.68 2 0 2 C0 1.34 0 0.68 0 0 Z " fill="#F7F7F7" transform="translate(125,298)"/>
<path d="M0 0 C0.66 0 1.32 0 2 0 C2 6.93 2 13.86 2 21 C1.01 20.67 0.02 20.34 -1 20 C-0.67 19.01 -0.34 18.02 0 17 C-0.66 16.67 -1.32 16.34 -2 16 C-1.34 16 -0.68 16 0 16 C0 13.03 0 10.06 0 7 C-0.66 7 -1.32 7 -2 7 C-1.34 5.68 -0.68 4.36 0 3 C-0.66 2.67 -1.32 2.34 -2 2 C-1.34 2 -0.68 2 0 2 C0 1.34 0 0.68 0 0 Z " fill="#D7D7D7" transform="translate(127,165)"/>
<path d="M0 0 C0.33 1.98 0.66 3.96 1 6 C-1.62365356 6.38846807 -4.24790856 6.76124888 -6.875 7.125 C-7.62136719 7.23714844 -8.36773437 7.34929687 -9.13671875 7.46484375 C-11.08159197 7.72766446 -13.04165038 7.8716515 -15 8 C-15.66 7.34 -16.32 6.68 -17 6 C-15.68 6 -14.36 6 -13 6 C-12.67 5.34 -12.34 4.68 -12 4 C-9 3.3125 -9 3.3125 -6 3 C-5.67 3.33 -5.34 3.66 -5 4 C-5 3.01 -5 2.02 -5 1 C-3 0 -3 0 0 0 Z " fill="#FBFBFB" transform="translate(202,140)"/>
<path d="M0 0 C0.99 0.33 1.98 0.66 3 1 C-1.66666667 5.66666667 -6.33333333 10.33333333 -11 15 C-10.49353463 10.60543896 -9.04647166 8.46599839 -6.0625 5.25 C-4.99708984 4.08210938 -4.99708984 4.08210938 -3.91015625 2.890625 C-2 1 -2 1 0 0 Z " fill="#DCDCDC" transform="translate(79,90)"/>
<path d="M0 0 C1 3 1 3 0.328125 4.8671875 C-0.20554687 5.86105469 -0.20554687 5.86105469 -0.75 6.875 C-1.12382813 7.57882813 -1.49765625 8.28265625 -1.8828125 9.0078125 C-3.20696892 11.36907045 -4.58837565 13.69006924 -6 16 C-6.68096422 17.32608822 -7.35330586 18.65686601 -8 20 C-8.66 20 -9.32 20 -10 20 C-9.40077751 15.97351715 -8.10666692 12.98182467 -6.125 9.4375 C-5.61195312 8.50808594 -5.09890625 7.57867187 -4.5703125 6.62109375 C-3.16963227 4.28314243 -1.68235211 2.1407175 0 0 Z " fill="#D2D2D2" transform="translate(83,116)"/>
<path d="M0 0 C0.66 0 1.32 0 2 0 C1.34 6.27 0.68 12.54 0 19 C-0.33 19 -0.66 19 -1 19 C-1 17.35 -1 15.7 -1 14 C-1.66 14 -2.32 14 -3 14 C-3 13.01 -3 12.02 -3 11 C-2.34 11 -1.68 11 -1 11 C-1.66 10.34 -2.32 9.68 -3 9 C-3.125 5.875 -3.125 5.875 -3 3 C-2.34 3 -1.68 3 -1 3 C-0.67 2.01 -0.34 1.02 0 0 Z " fill="#DCDCDC" transform="translate(128,120)"/>
<path d="M0 0 C4.875 1.75 4.875 1.75 6 4 C8.12576782 4.46651207 8.12576782 4.46651207 10.5625 4.625 C11.38878906 4.69976562 12.21507812 4.77453125 13.06640625 4.8515625 C13.70449219 4.90054688 14.34257812 4.94953125 15 5 C15.33 5.99 15.66 6.98 16 8 C10.72 7.34 5.44 6.68 0 6 C0 4.02 0 2.04 0 0 Z " fill="#FBFBFB" transform="translate(225,140)"/>
<path d="M0 0 C0.99 0.33 1.98 0.66 3 1 C2.34 1 1.68 1 1 1 C1 1.66 1 2.32 1 3 C1.66 3.33 2.32 3.66 3 4 C2.87431641 5.44632812 2.87431641 5.44632812 2.74609375 6.921875 C2.64425781 8.18515625 2.54242188 9.4484375 2.4375 10.75 C2.33308594 12.00296875 2.22867188 13.2559375 2.12109375 14.546875 C2.02123277 17.39452364 2.09415705 19.34286067 3 22 C2.34 22 1.68 22 1 22 C0.67 22.66 0.34 23.32 0 24 C0 16.08 0 8.16 0 0 Z " fill="#F5F5F5" transform="translate(192,298)"/>
<path d="M0 0 C0.66 0.33 1.32 0.66 2 1 C2 3.31 2 5.62 2 8 C2.99 8.33 3.98 8.66 5 9 C5 10.32 5 11.64 5 13 C1.7 12.67 -1.6 12.34 -5 12 C-5 11.67 -5 11.34 -5 11 C-3.35 11 -1.7 11 0 11 C0 7.37 0 3.74 0 0 Z " fill="#E9E9E9" transform="translate(152,323)"/>
<path d="M0 0 C3.65316671 1.24976756 4.78065836 1.67098753 7 5 C7.375 8.4375 7.375 8.4375 7 12 C5 14.4375 5 14.4375 3 16 C2.34 15.67 1.68 15.34 1 15 C1.66 13.35 2.32 11.7 3 10 C3.66 10 4.32 10 5 10 C4.81870185 6.56206661 4.81870185 6.56206661 4 3 C2.06402968 1.48705712 2.06402968 1.48705712 0 1 C0 0.67 0 0.34 0 0 Z " fill="#DAD9D9" transform="translate(83,293)"/>
<path d="M0 0 C0.99 0 1.98 0 3 0 C3 2.31 3 4.62 3 7 C2.34 7 1.68 7 1 7 C1.33 7.99 1.66 8.98 2 10 C2.15895578 14.84815131 1.95503889 19.22480555 1 24 C0.67 24 0.34 24 0 24 C0 16.08 0 8.16 0 0 Z " fill="#F9F8F9" transform="translate(114,298)"/>
<path d="M0 0 C3.3 0 6.6 0 10 0 C9.01017506 3.95929975 8.27764773 5.23129285 5.6875 8.1875 C4.79611328 9.22970703 4.79611328 9.22970703 3.88671875 10.29296875 C1.88083896 12.10781237 0.64143106 12.60932477 -2 13 C-1.60167969 12.54109375 -1.20335937 12.0821875 -0.79296875 11.609375 C1.91142062 8.47728415 4.57991771 5.36122541 7 2 C4.69 1.67 2.38 1.34 0 1 C0 0.67 0 0.34 0 0 Z " fill="#CECFCF" transform="translate(168,298)"/>
<path d="M0 0 C1.32 0.33 2.64 0.66 4 1 C4 1.66 4 2.32 4 3 C5.51930845 4.82757393 7.14625706 6.52543542 8.78515625 8.24609375 C9.18605469 8.82488281 9.58695313 9.40367187 10 10 C9.67 10.99 9.34 11.98 9 13 C7.49106184 11.40423801 5.99308924 9.79810089 4.5 8.1875 C3.6646875 7.29417969 2.829375 6.40085938 1.96875 5.48046875 C0 3 0 3 0 0 Z " fill="#DADADA" transform="translate(81,195)"/>
<path d="M0 0 C2 2 2 2 2.1953125 4.3828125 C2.17210938 5.28773438 2.14890625 6.19265625 2.125 7.125 C2.10695313 8.03507812 2.08890625 8.94515625 2.0703125 9.8828125 C2.04710938 10.58148438 2.02390625 11.28015625 2 12 C2.66 12 3.32 12 4 12 C4.33 12.99 4.66 13.98 5 15 C2.35261084 16.4606285 1.10551666 17 -2 17 C-1.50886719 15.95779297 -1.50886719 15.95779297 -1.0078125 14.89453125 C0.12662831 11.63631172 0.20056055 9.12550498 0.125 5.6875 C0.10695313 4.61886719 0.08890625 3.55023438 0.0703125 2.44921875 C0.04710938 1.64097656 0.02390625 0.83273437 0 0 Z " fill="#E8E8E7" transform="translate(95,293)"/>
<path d="M0 0 C1.77388086 1.09926403 3.54399684 2.20460502 5.3125 3.3125 C6.29863281 3.92738281 7.28476563 4.54226562 8.30078125 5.17578125 C10.50172035 6.66324661 12.23328988 8.0403386 14 10 C13.2575 9.835 12.515 9.67 11.75 9.5 C8.80993422 8.88074304 8.80993422 8.88074304 5 9 C4.731875 8.38125 4.46375 7.7625 4.1875 7.125 C3.04443152 4.7004767 3.04443152 4.7004767 0 3 C0 2.01 0 1.02 0 0 Z " fill="#D6D6D6" transform="translate(83,227)"/>
<path d="M0 0 C1.32 0 2.64 0 4 0 C6.72611199 2.72611199 7.47679633 5.23293356 8 9 C7.34 9 6.68 9 6 9 C6 9.66 6 10.32 6 11 C5.34 11 4.68 11 4 11 C3.54427083 9.01432292 3.08854167 7.02864583 2.6328125 5.04296875 C2.01992277 2.72257026 2.01992277 2.72257026 0 0 Z " fill="#DFDFDF" transform="translate(187,213)"/>
<path d="M0 0 C0.66 0 1.32 0 2 0 C0.58707905 4.8274799 -1.42974154 8.7162359 -4 13 C-4.66 13 -5.32 13 -6 13 C-5.53198701 8.00786149 -3.08284263 3.87036007 0 0 Z " fill="#D5D5D5" transform="translate(63,108)"/>
<path d="M0 0 C7.92 0.33 15.84 0.66 24 1 C24 1.33 24 1.66 24 2 C16.41 2.33 8.82 2.66 1 3 C0.67 2.01 0.34 1.02 0 0 Z " fill="#F3F2F2" transform="translate(121,244)"/>
<path d="M0 0 C2 0 2 0 3.65625 1.64453125 C4.56890625 2.71767578 4.56890625 2.71767578 5.5 3.8125 C6.41265625 4.87404297 6.41265625 4.87404297 7.34375 5.95703125 C9 8 9 8 11 11 C8 10 5 9 2 8 C1.855625 7.236875 1.71125 6.47375 1.5625 5.6875 C1.0367406 2.91827092 1.0367406 2.91827092 0 0 Z " fill="#DBDBDB" transform="translate(71,216)"/>
<path d="M0 0 C5.94 0 11.88 0 18 0 C12.87984027 2.56007987 8.62902877 3.65132704 3.0625 2.0625 C2.051875 1.711875 1.04125 1.36125 0 1 C0 0.67 0 0.34 0 0 Z " fill="#D5D4D4" transform="translate(128,246)"/>
<path d="M0 0 C3.96 0.33 7.92 0.66 12 1 C12 1.66 12 2.32 12 3 C12.66 3.33 13.32 3.66 14 4 C6.57142857 4.14285714 6.57142857 4.14285714 3 3 C3 2.34 3 1.68 3 1 C2.01 0.67 1.02 0.34 0 0 Z " fill="#DDDDDD" transform="translate(155,72)"/>
<path d="M0 0 C0.33 0 0.66 0 1 0 C1.33 4.62 1.66 9.24 2 14 C2.66 14 3.32 14 4 14 C4 14.99 4 15.98 4 17 C4.66 17.33 5.32 17.66 6 18 C4.02 17.67 2.04 17.34 0 17 C0 11.39 0 5.78 0 0 Z " fill="#EFEFF0" transform="translate(68,149)"/>
<path d="M0 0 C2 2 2 2 2.125 4.625 C2.08375 5.40875 2.0425 6.1925 2 7 C2.66 7.33 3.32 7.66 4 8 C4 8.66 4 9.32 4 10 C3.34 10 2.68 10 2 10 C1.67 11.32 1.34 12.64 1 14 C0.67 14 0.34 14 0 14 C0 9.38 0 4.76 0 0 Z " fill="#D1D2D2" transform="translate(69,150)"/>
<path d="M0 0 C0 3.63 0 7.26 0 11 C-0.99 11.495 -0.99 11.495 -2 12 C-2 11.34 -2 10.68 -2 10 C-2.99 10 -3.98 10 -5 10 C-4.67 9.34 -4.34 8.68 -4 8 C-3.67 8 -3.34 8 -3 8 C-2.67 6.35 -2.34 4.7 -2 3 C-2.66 2.67 -3.32 2.34 -4 2 C-1 0 -1 0 0 0 Z " fill="#DAD9D9" transform="translate(51,144)"/>
<path d="M0 0 C2.97 0 5.94 0 9 0 C9 0.33 9 0.66 9 1 C6.36 1 3.72 1 1 1 C1 3.97 1 6.94 1 10 C0.01 9.67 -0.98 9.34 -2 9 C-2 7.68 -2 6.36 -2 5 C-1.34 5 -0.68 5 0 5 C0 3.35 0 1.7 0 0 Z " fill="#D2D3D3" transform="translate(104,298)"/>
<path d="M0 0 C1.65 0 3.3 0 5 0 C2.01581671 3.32851213 -0.84562769 5.3205729 -5 7 C-5.99 6.67 -6.98 6.34 -8 6 C-7.05125 5.7525 -6.1025 5.505 -5.125 5.25 C-1.91306809 4.3142923 -1.91306809 4.3142923 -0.625 1.875 C-0.41875 1.25625 -0.2125 0.6375 0 0 Z " fill="#F8F8F8" transform="translate(173,212)"/>
<path d="M0 0 C2.475 0.495 2.475 0.495 5 1 C4.67 1.66 4.34 2.32 4 3 C4.28241883 5.3400417 4.61250787 7.67504723 5 10 C1.55783328 7.3401439 1.00495326 4.09711714 0 0 Z " fill="#D5D5D6" transform="translate(73,181)"/>
<path d="M0 0 C1.875 0.125 1.875 0.125 4 1 C5.25 4.0625 5.25 4.0625 6 7 C3.5625 6.3125 3.5625 6.3125 1 5 C0.1875 2.375 0.1875 2.375 0 0 Z " fill="#DFDFDF" transform="translate(208,106)"/>
<path d="M0 0 C0.99 0.99 1.98 1.98 3 3 C-1.455 3.495 -1.455 3.495 -6 4 C-6.66 3.01 -7.32 2.02 -8 1 C-4.99825776 -0.00058075 -3.12414314 -0.31241431 0 0 Z " fill="#FEFEFE" transform="translate(178,336)"/>
<path d="M0 0 C-1 1.625 -1 1.625 -3 3 C-5.8158905 2.65009645 -8.2716858 1.84980278 -11 1 C-7.2297564 -1.56376565 -4.32597804 -0.83191885 0 0 Z " fill="#FEFEFE" transform="translate(72,337)"/>
<path d="M0 0 C0.33 0.66 0.66 1.32 1 2 C1.66 2 2.32 2 3 2 C3 1.34 3 0.68 3 0 C3.66 0.33 4.32 0.66 5 1 C4.67 1.66 4.34 2.32 4 3 C6.64 3 9.28 3 12 3 C11.67 3.66 11.34 4.32 11 5 C9.741875 5.04125 8.48375 5.0825 7.1875 5.125 C6.47980469 5.14820313 5.77210937 5.17140625 5.04296875 5.1953125 C3 5 3 5 0 3 C0 2.01 0 1.02 0 0 Z " fill="#ECECEC" transform="translate(112,323)"/>
<path d="M0 0 C0.99 0.33 1.98 0.66 3 1 C0.69 3.64 -1.62 6.28 -4 9 C-4.66 8.67 -5.32 8.34 -6 8 C-4.26440562 4.942048 -2.61527381 2.36620011 0 0 Z " fill="#D0D0D0" transform="translate(165,299)"/>
<path d="M0 0 C0.66 0.33 1.32 0.66 2 1 C1.67 5.95 1.34 10.9 1 16 C0.67 16 0.34 16 0 16 C-0.82622671 10.39436958 -1.06795656 5.57710648 0 0 Z " fill="#C3C3C3" transform="translate(145,292)"/>
<path d="M0 0 C0.66 0.33 1.32 0.66 2 1 C-1.52127761 5.5929708 -5.57747597 6.11941917 -11 7 C-9.60623819 4.21247638 -7.82491442 3.69568885 -5.0625 2.3125 C-4.16660156 1.85488281 -3.27070313 1.39726562 -2.34765625 0.92578125 C-1.57292969 0.62027344 -0.79820312 0.31476563 0 0 Z " fill="#D5D6D6" transform="translate(175,214)"/>
<path d="M0 0 C0.66 0 1.32 0 2 0 C2.66 2.97 3.32 5.94 4 9 C3.34 9 2.68 9 2 9 C1.34 7.02 0.68 5.04 0 3 C-0.66 3 -1.32 3 -2 3 C-1 1 -1 1 0 0 Z " fill="#D6D7D7" transform="translate(52,180)"/>
<path d="M0 0 C2.76223278 2.76223278 2.57856291 5.20706617 3 9 C0.69 9 -1.62 9 -4 9 C-4 8.67 -4 8.34 -4 8 C-2.35 8 -0.7 8 1 8 C0.34 5.69 -0.32 3.38 -1 1 C-0.67 0.67 -0.34 0.34 0 0 Z " fill="#D6D6D6" transform="translate(202,138)"/>
<path d="M0 0 C1.41687119 4.25061356 0.19320039 6.71851625 -1 11 C-1.66 11 -2.32 11 -3 11 C-2.88590407 9.54077307 -2.75834456 8.08259402 -2.625 6.625 C-2.55539063 5.81289062 -2.48578125 5.00078125 -2.4140625 4.1640625 C-2 2 -2 2 0 0 Z " fill="#D6D6D6" transform="translate(53,132)"/>
<path d="M0 0 C0.66 0.66 1.32 1.32 2 2 C-0.31 4.31 -2.62 6.62 -5 9 C-5.66 8.67 -6.32 8.34 -7 8 C-4.69 5.36 -2.38 2.72 0 0 Z " fill="#D9D9D9" transform="translate(92,106)"/>
<path d="M0 0 C1.32 0.33 2.64 0.66 4 1 C0.7 3.31 -2.6 5.62 -6 8 C-6.66 7.67 -7.32 7.34 -8 7 C-7.67 6.34 -7.34 5.68 -7 5 C-6.01 4.690625 -5.02 4.38125 -4 4.0625 C-2.515 3.5365625 -2.515 3.5365625 -1 3 C-0.67 2.01 -0.34 1.02 0 0 Z " fill="#F6F6F6" transform="translate(90,80)"/>
<path d="M0 0 C2.97 0 5.94 0 9 0 C9 0.66 9 1.32 9 2 C4.545 2.495 4.545 2.495 0 3 C0 2.01 0 1.02 0 0 Z " fill="#FEFEFE" transform="translate(128,336)"/>
<path d="M0 0 C1.32 0.33 2.64 0.66 4 1 C3.01 1.495 3.01 1.495 2 2 C0.94647157 4.30965848 -0.05719096 6.6429774 -1 9 C-1.66 9 -2.32 9 -3 9 C-2.44271087 5.65626525 -1.64826111 2.96687001 0 0 Z " fill="#DADADA" transform="translate(76,127)"/>
<path d="M0 0 C0 0.99 0 1.98 0 3 C-0.66 3.66 -1.32 4.32 -2 5 C-2 5.99 -2 6.98 -2 8 C-2 8.99 -2 9.98 -2 11 C-2.66 11 -3.32 11 -4 11 C-4.8125 8.3125 -4.8125 8.3125 -5 5 C-2.5625 2.125 -2.5625 2.125 0 0 Z " fill="#E9E9E9" transform="translate(169,305)"/>
<path d="M0 0 C2.97 0 5.94 0 9 0 C7 3 7 3 4 4 C4 3.34 4 2.68 4 2 C2.68 1.67 1.36 1.34 0 1 C0 0.67 0 0.34 0 0 Z " fill="#FEFEFE" transform="translate(145,336)"/>
<path d="M0 0 C0 0.99 0 1.98 0 3 C-3.20808915 5.1387261 -4.27698497 5.47730962 -8 5 C-8.66 4.01 -9.32 3.02 -10 2 C-7.36 2.33 -4.72 2.66 -2 3 C-2 2.34 -2 1.68 -2 1 C-1.34 0.67 -0.68 0.34 0 0 Z " fill="#F8F8F8" transform="translate(204,323)"/>
<path d="M0 0 C3.33557632 2.9905167 5.15083921 5.93184627 7 10 C3.17398693 8.54875366 1.77670876 6.64225296 0 3 C0 2.01 0 1.02 0 0 Z " fill="#CDCDCE" transform="translate(63,204)"/>
<path d="M0 0 C0.66 0.33 1.32 0.66 2 1 C2 1.66 2 2.32 2 3 C3.32 3.33 4.64 3.66 6 4 C6 4.33 6 4.66 6 5 C4.02 5 2.04 5 0 5 C0 4.34 0 3.68 0 3 C-0.66 3 -1.32 3 -2 3 C-2 2.34 -2 1.68 -2 1 C-1.34 0.67 -0.68 0.34 0 0 Z " fill="#FBFBFB" transform="translate(175,103)"/>
<path d="M0 0 C0.66 0.33 1.32 0.66 2 1 C2 2.32 2 3.64 2 5 C3.98 5 5.96 5 8 5 C8 5.33 8 5.66 8 6 C5.36 6 2.72 6 0 6 C-1.24546405 3.50907189 -0.7767578 2.58919267 0 0 Z " fill="#D3D2D2" transform="translate(128,330)"/>
<path d="M0 0 C-0.33 0.66 -0.66 1.32 -1 2 C-4.3 2 -7.6 2 -11 2 C-7.39759636 -1.60240364 -4.69302684 -0.93860537 0 0 Z " fill="#FCFCFC" transform="translate(139,296)"/>
<path d="M0 0 C1.32 0 2.64 0 4 0 C4.66 1.65 5.32 3.3 6 5 C4.35 5 2.7 5 1 5 C0.67 3.35 0.34 1.7 0 0 Z " fill="#FBFBFB" transform="translate(189,119)"/>
<path d="M0 0 C2.0625 0.75 2.0625 0.75 4 2 C4.33 2.99 4.66 3.98 5 5 C3.35 4.67 1.7 4.34 0 4 C0 3.34 0 2.68 0 2 C-0.66 1.67 -1.32 1.34 -2 1 C-1.34 0.67 -0.68 0.34 0 0 Z " fill="#FBFBFB" transform="translate(157,94)"/>
<path d="M0 0 C2.31 0.33 4.62 0.66 7 1 C5.6875 2.5 5.6875 2.5 4 4 C3.01 4 2.02 4 1 4 C0.67 2.68 0.34 1.36 0 0 Z " fill="#FEFEFE" transform="translate(209,336)"/>
<path d="M0 0 C0.66 0 1.32 0 2 0 C1.125 4.75 1.125 4.75 0 7 C-0.66 7 -1.32 7 -2 7 C-1.125 1.125 -1.125 1.125 0 0 Z " fill="#D7D6D6" transform="translate(55,124)"/>
<path d="M0 0 C0.99 0.33 1.98 0.66 3 1 C2.67 1.66 2.34 2.32 2 3 C3.32 3.33 4.64 3.66 6 4 C5.360625 4.12375 4.72125 4.2475 4.0625 4.375 C3.0415625 4.684375 3.0415625 4.684375 2 5 C1.67 5.66 1.34 6.32 1 7 C0 4 0 4 0 0 Z " fill="#F1F1F2" transform="translate(206,101)"/>
<path d="M0 0 C2.97 0.495 2.97 0.495 6 1 C3.82575883 3.50037734 2.26954202 4.43628586 -1 5 C-0.67 3.35 -0.34 1.7 0 0 Z " fill="#DBDCDC" transform="translate(96,76)"/>
<path d="M0 0 C2.97 0.33 5.94 0.66 9 1 C9 1.33 9 1.66 9 2 C5.625 2.125 5.625 2.125 2 2 C1.34 1.34 0.68 0.68 0 0 Z " fill="#FEFEFE" transform="translate(117,247)"/>
<path d="M0 0 C1.65 0 3.3 0 5 0 C2 2 2 2 0 2 C0 1.34 0 0.68 0 0 Z " fill="#FEFEFE" transform="translate(143,248)"/>
<path d="M0 0 C0.66 0 1.32 0 2 0 C1.67 1.32 1.34 2.64 1 4 C0.67 2.68 0.34 1.36 0 0 Z " fill="#FEFEFE" transform="translate(165,212)"/>
<path d="M0 0 C0.66 0 1.32 0 2 0 C2.33 0.99 2.66 1.98 3 3 C2.01 2.67 1.02 2.34 0 2 C0 1.34 0 0.68 0 0 Z " fill="#FDFDFD" transform="translate(204,337)"/>
<path d="M0 0 C1.98 0 3.96 0 6 0 C6 0.33 6 0.66 6 1 C4.02 1 2.04 1 0 1 C0 0.67 0 0.34 0 0 Z " fill="#FEFEFE" transform="translate(76,295)"/>
<path d="M0 0 C0.99 0.495 0.99 0.495 2 1 C2 1.66 2 2.32 2 3 C1.34 3 0.68 3 0 3 C0 2.01 0 1.02 0 0 Z " fill="#FEFEFE" transform="translate(130,249)"/>
<path d="M0 0 C0.99 0.33 1.98 0.66 3 1 C1.68 1.33 0.36 1.66 -1 2 C-0.67 1.34 -0.34 0.68 0 0 Z " fill="#FEFEFE" transform="translate(127,248)"/>
<path d="M0 0 C1.65 0 3.3 0 5 0 C5 0.33 5 0.66 5 1 C3.35 1 1.7 1 0 1 C0 0.67 0 0.34 0 0 Z " fill="#FEFEFE" transform="translate(150,220)"/>
<path d="M0 0 C0.66 0 1.32 0 2 0 C2 0.66 2 1.32 2 2 C1.34 2 0.68 2 0 2 C0 1.34 0 0.68 0 0 Z " fill="#FEFEFE" transform="translate(124,338)"/>
<path d="M0 0 C0.66 0.33 1.32 0.66 2 1 C1.01 1 0.02 1 -1 1 C-0.67 0.67 -0.34 0.34 0 0 Z " fill="#FEFEFE" transform="translate(173,306)"/>
<path d="M0 0 C0 3 0 3 0 3 Z " fill="#FFFFFF" transform="translate(54,195)"/>
<path d="M0 0 C4 1 4 1 4 1 Z " fill="#FEFEFE" transform="translate(149,94)"/>
<path d="M0 0 C0.66 0.66 1.32 1.32 2 2 C1.34 2 0.68 2 0 2 C0 1.34 0 0.68 0 0 Z " fill="#FEFEFE" transform="translate(73,338)"/>
<path d="M0 0 C0.99 0.495 0.99 0.495 2 1 C1.01 1.495 1.01 1.495 0 2 C0 1.34 0 0.68 0 0 Z " fill="#FFFFFF" transform="translate(121,324)"/>
<path d="M0 0 C0.66 0.66 1.32 1.32 2 2 C1.34 2 0.68 2 0 2 C0 1.34 0 0.68 0 0 Z " fill="#FEFEFE" transform="translate(159,300)"/>
<path d="M0 0 C0.66 0 1.32 0 2 0 C1.67 0.66 1.34 1.32 1 2 C0.67 1.34 0.34 0.68 0 0 Z " fill="#FEFEFE" transform="translate(102,242)"/>
<path d="M0 0 C3 1 3 1 3 1 Z " fill="#FEFEFE" transform="translate(94,239)"/>
<path d="M0 0 C0.33 0.66 0.66 1.32 1 2 C0.34 1.67 -0.32 1.34 -1 1 C-0.67 0.67 -0.34 0.34 0 0 Z " fill="#FEFEFE" transform="translate(216,182)"/>
<path d="M0 0 C2 1 2 1 2 1 Z " fill="#FEFEFE" transform="translate(218,339)"/>
<path d="M0 0 C2 1 2 1 2 1 Z " fill="#FEFEFE" transform="translate(138,339)"/>
<path d="M0 0 C2 1 2 1 2 1 Z " fill="#FEFEFE" transform="translate(89,338)"/>
<path d="M0 0 C2 1 2 1 2 1 Z " fill="#FEFEFE" transform="translate(199,337)"/>
<path d="M0 0 C2 1 2 1 2 1 Z " fill="#FEFEFE" transform="translate(186,336)"/>
<path d="M0 0 C2 1 2 1 2 1 Z " fill="#FEFEFE" transform="translate(165,336)"/>
<path d="M0 0 C2 1 2 1 2 1 Z " fill="#FEFEFE" transform="translate(141,335)"/>
<path d="" fill="#FFFFFF" transform="translate(0,0)"/>
<path d="M0 0 C2 1 2 1 2 1 Z " fill="#FEFEFE" transform="translate(139,323)"/>
<path d="M0 0 C2 1 2 1 2 1 Z " fill="#FEFEFE" transform="translate(75,322)"/>
<path d="M0 0 C2 1 2 1 2 1 Z " fill="#FEFEFE" transform="translate(170,316)"/>
<path d="M0 0 C2 1 2 1 2 1 Z " fill="#FEFEFE" transform="translate(179,307)"/>
<path d="M0 0 C2 1 2 1 2 1 Z " fill="#FEFEFE" transform="translate(158,303)"/>
<path d="M0 0 C2 1 2 1 2 1 Z " fill="#FDFDFD" transform="translate(85,301)"/>
<path d="M0 0 C2 1 2 1 2 1 Z " fill="#FEFEFE" transform="translate(85,299)"/>
<path d="M0 0 C2 1 2 1 2 1 Z " fill="#FEFEFE" transform="translate(101,298)"/>
<path d="M0 0 C2 1 2 1 2 1 Z " fill="#FFFFFF" transform="translate(76,297)"/>
<path d="M0 0 C2 1 2 1 2 1 Z " fill="#FEFEFE" transform="translate(175,295)"/>
<path d="M0 0 C2 1 2 1 2 1 Z " fill="#FEFEFE" transform="translate(208,293)"/>
<path d="M0 0 C2 1 2 1 2 1 Z " fill="#FEFEFE" transform="translate(187,293)"/>
<path d="M0 0 C2 1 2 1 2 1 Z " fill="#FEFEFE" transform="translate(174,293)"/>
<path d="M0 0 C2 1 2 1 2 1 Z " fill="#FEFEFE" transform="translate(171,293)"/>
<path d="M0 0 C2 1 2 1 2 1 Z " fill="#FDFDFD" transform="translate(156,287)"/>
<path d="M0 0 C2 1 2 1 2 1 Z " fill="#FFFFFF" transform="translate(142,284)"/>
<path d="M0 0 C2 1 2 1 2 1 Z " fill="#FEFEFE" transform="translate(153,251)"/>
<path d="M0 0 C2 1 2 1 2 1 Z " fill="#FEFEFE" transform="translate(141,251)"/>
<path d="M0 0 C2 1 2 1 2 1 Z " fill="#FEFEFE" transform="translate(137,251)"/>
<path d="M0 0 C2 1 2 1 2 1 Z " fill="#FEFEFE" transform="translate(120,251)"/>
<path d="M0 0 C2 1 2 1 2 1 Z " fill="#FEFEFE" transform="translate(93,243)"/>
<path d="M0 0 C2 1 2 1 2 1 Z " fill="#FEFEFE" transform="translate(97,242)"/>
<path d="M0 0 C2 1 2 1 2 1 Z " fill="#FFFFFF" transform="translate(175,240)"/>
<path d="M0 0 C2 1 2 1 2 1 Z " fill="#FDFDFD" transform="translate(85,233)"/>
<path d="M0 0 C2 1 2 1 2 1 Z " fill="#FEFEFE" transform="translate(188,231)"/>
<path d="M0 0 C2 1 2 1 2 1 Z " fill="#FEFEFE" transform="translate(83,231)"/>
<path d="M0 0 C2 1 2 1 2 1 Z " fill="#FEFEFE" transform="translate(193,227)"/>
<path d="M0 0 C2 1 2 1 2 1 Z " fill="#FEFEFE" transform="translate(73,226)"/>
<path d="M0 0 C2 1 2 1 2 1 Z " fill="#FEFEFE" transform="translate(70,219)"/>
<path d="M0 0 C2 1 2 1 2 1 Z " fill="#FEFEFE" transform="translate(194,218)"/>
<path d="M0 0 C2 1 2 1 2 1 Z " fill="#FEFEFE" transform="translate(106,213)"/>
<path d="M0 0 C2 1 2 1 2 1 Z " fill="#FEFEFE" transform="translate(91,203)"/>
<path d="M0 0 C2 1 2 1 2 1 Z " fill="#FEFEFE" transform="translate(144,202)"/>
<path d="M0 0 C2 1 2 1 2 1 Z " fill="#FEFEFE" transform="translate(87,200)"/>
<path d="" fill="#FFFFFF" transform="translate(0,0)"/>
<path d="M0 0 C2 1 2 1 2 1 Z " fill="#FEFEFE" transform="translate(90,197)"/>
<path d="M0 0 C2 1 2 1 2 1 Z " fill="#FFFFFF" transform="translate(210,187)"/>
<path d="M0 0 C2 1 2 1 2 1 Z " fill="#FEFEFE" transform="translate(205,179)"/>
<path d="M0 0 C2 1 2 1 2 1 Z " fill="#FEFEFE" transform="translate(200,173)"/>
<path d="M0 0 C2 1 2 1 2 1 Z " fill="#FEFEFE" transform="translate(234,163)"/>
<path d="M0 0 C2 1 2 1 2 1 Z " fill="#FEFEFE" transform="translate(46,148)"/>
<path d="M0 0 C2 1 2 1 2 1 Z " fill="#FEFEFE" transform="translate(46,137)"/>
<path d="M0 0 C2 1 2 1 2 1 Z " fill="#FEFEFE" transform="translate(53,121)"/>
<path d="M0 0 C2 1 2 1 2 1 Z " fill="#FEFEFE" transform="translate(181,115)"/>
<path d="M0 0 C2 1 2 1 2 1 Z " fill="#FEFEFE" transform="translate(90,112)"/>
<path d="M0 0 C2 1 2 1 2 1 Z " fill="#FEFEFE" transform="translate(61,102)"/>
<path d="M0 0 C2 1 2 1 2 1 Z " fill="#FEFEFE" transform="translate(157,99)"/>
<path d="M0 0 C2 1 2 1 2 1 Z " fill="#FEFEFE" transform="translate(121,98)"/>
<path d="M0 0 C2 1 2 1 2 1 Z " fill="#FEFEFE" transform="translate(149,97)"/>
<path d="M0 0 C2 1 2 1 2 1 Z " fill="#FEFEFE" transform="translate(69,94)"/>
<path d="M0 0 C2 1 2 1 2 1 Z " fill="#FEFEFE" transform="translate(202,93)"/>
<path d="" fill="#FFFFFF" transform="translate(0,0)"/>
<path d="" fill="#FFFFFF" transform="translate(0,0)"/>
<path d="" fill="#FFFFFF" transform="translate(0,0)"/>
<path d="" fill="#FFFFFF" transform="translate(0,0)"/>
<path d="" fill="#FFFFFF" transform="translate(0,0)"/>
<path d="" fill="#FFFFFF" transform="translate(0,0)"/>
<path d="" fill="#FFFFFF" transform="translate(0,0)"/>
<path d="" fill="#FFFFFF" transform="translate(0,0)"/>
<path d="" fill="#FFFFFF" transform="translate(0,0)"/>
<path d="" fill="#FFFFFF" transform="translate(0,0)"/>
<path d="" fill="#FFFFFF" transform="translate(0,0)"/>
<path d="" fill="#FFFFFF" transform="translate(0,0)"/>
<path d="" fill="#FFFFFF" transform="translate(0,0)"/>
<path d="" fill="#FFFFFF" transform="translate(0,0)"/>
<path d="" fill="#FFFFFF" transform="translate(0,0)"/>
<path d="" fill="#FFFFFF" transform="translate(0,0)"/>
<path d="" fill="#FFFFFF" transform="translate(0,0)"/>
<path d="" fill="#FFFFFF" transform="translate(0,0)"/>
<path d="" fill="#FFFFFF" transform="translate(0,0)"/>
<path d="" fill="#FFFFFF" transform="translate(0,0)"/>
<path d="" fill="#FFFFFF" transform="translate(0,0)"/>
<path d="" fill="#FFFFFF" transform="translate(0,0)"/>
<path d="" fill="#FFFFFF" transform="translate(0,0)"/>
<path d="" fill="#FFFFFF" transform="translate(0,0)"/>
<path d="" fill="#FFFFFF" transform="translate(0,0)"/>
<path d="" fill="#FFFFFF" transform="translate(0,0)"/>
<path d="" fill="#FFFFFF" transform="translate(0,0)"/>
<path d="" fill="#FFFFFF" transform="translate(0,0)"/>
<path d="" fill="#FFFFFF" transform="translate(0,0)"/>
<path d="" fill="#FFFFFF" transform="translate(0,0)"/>
<path d="" fill="#FFFFFF" transform="translate(0,0)"/>
<path d="" fill="#FFFFFF" transform="translate(0,0)"/>
<path d="" fill="#FFFFFF" transform="translate(0,0)"/>
<path d="" fill="#FFFFFF" transform="translate(0,0)"/>
<path d="" fill="#FFFFFF" transform="translate(0,0)"/>
<path d="" fill="#FFFFFF" transform="translate(0,0)"/>
<path d="" fill="#FFFFFF" transform="translate(0,0)"/>
<path d="" fill="#FFFFFF" transform="translate(0,0)"/>
<path d="" fill="#FFFFFF" transform="translate(0,0)"/>
<path d="" fill="#FFFFFF" transform="translate(0,0)"/>
<path d="" fill="#FFFFFF" transform="translate(0,0)"/>
<path d="" fill="#FFFFFF" transform="translate(0,0)"/>
<path d="" fill="#FFFFFF" transform="translate(0,0)"/>
<path d="" fill="#FFFFFF" transform="translate(0,0)"/>
<path d="" fill="#FFFFFF" transform="translate(0,0)"/>
<path d="" fill="#FFFFFF" transform="translate(0,0)"/>
<path d="" fill="#FFFFFF" transform="translate(0,0)"/>
<path d="" fill="#FFFFFF" transform="translate(0,0)"/>
<path d="" fill="#FFFFFF" transform="translate(0,0)"/>
<path d="" fill="#FFFFFF" transform="translate(0,0)"/>
<path d="" fill="#FFFFFF" transform="translate(0,0)"/>
<path d="" fill="#FFFFFF" transform="translate(0,0)"/>
<path d="" fill="#FFFFFF" transform="translate(0,0)"/>
<path d="" fill="#FFFFFF" transform="translate(0,0)"/>
<path d="" fill="#FFFFFF" transform="translate(0,0)"/>
<path d="" fill="#FFFFFF" transform="translate(0,0)"/>
<path d="" fill="#FFFFFF" transform="translate(0,0)"/>
<path d="" fill="#FFFFFF" transform="translate(0,0)"/>
<path d="" fill="#FFFFFF" transform="translate(0,0)"/>
<path d="" fill="#FFFFFF" transform="translate(0,0)"/>
<path d="" fill="#FFFFFF" transform="translate(0,0)"/>
<path d="" fill="#FFFFFF" transform="translate(0,0)"/>
<path d="" fill="#FFFFFF" transform="translate(0,0)"/>
<path d="" fill="#FFFFFF" transform="translate(0,0)"/>
<path d="" fill="#FFFFFF" transform="translate(0,0)"/>
<path d="" fill="#FFFFFF" transform="translate(0,0)"/>
<path d="" fill="#FFFFFF" transform="translate(0,0)"/>
<path d="" fill="#FFFFFF" transform="translate(0,0)"/>
<path d="" fill="#FFFFFF" transform="translate(0,0)"/>
<path d="" fill="#FFFFFF" transform="translate(0,0)"/>
<path d="" fill="#FFFFFF" transform="translate(0,0)"/>
<path d="" fill="#FFFFFF" transform="translate(0,0)"/>
<path d="" fill="#FFFFFF" transform="translate(0,0)"/>
<path d="" fill="#FFFFFF" transform="translate(0,0)"/>
<path d="" fill="#FFFFFF" transform="translate(0,0)"/>
<path d="" fill="#FFFFFF" transform="translate(0,0)"/>
<path d="" fill="#FFFFFF" transform="translate(0,0)"/>
<path d="" fill="#FFFFFF" transform="translate(0,0)"/>
<path d="" fill="#FFFFFF" transform="translate(0,0)"/>
<path d="" fill="#FFFFFF" transform="translate(0,0)"/>
<path d="" fill="#FFFFFF" transform="translate(0,0)"/>
<path d="" fill="#FFFFFF" transform="translate(0,0)"/>
<path d="" fill="#FFFFFF" transform="translate(0,0)"/>
<path d="" fill="#FFFFFF" transform="translate(0,0)"/>
<path d="" fill="#FFFFFF" transform="translate(0,0)"/>
<path d="" fill="#FFFFFF" transform="translate(0,0)"/>
<path d="" fill="#FFFFFF" transform="translate(0,0)"/>
<path d="" fill="#FFFFFF" transform="translate(0,0)"/>
<path d="" fill="#FFFFFF" transform="translate(0,0)"/>
<path d="" fill="#FFFFFF" transform="translate(0,0)"/>
<path d="" fill="#FFFFFF" transform="translate(0,0)"/>
<path d="" fill="#FFFFFF" transform="translate(0,0)"/>
<path d="" fill="#FFFFFF" transform="translate(0,0)"/>
<path d="" fill="#FFFFFF" transform="translate(0,0)"/>
<path d="" fill="#FFFFFF" transform="translate(0,0)"/>
<path d="" fill="#FFFFFF" transform="translate(0,0)"/>
<path d="" fill="#FFFFFF" transform="translate(0,0)"/>
<path d="" fill="#FFFFFF" transform="translate(0,0)"/>
<path d="" fill="#FFFFFF" transform="translate(0,0)"/>
<path d="" fill="#FFFFFF" transform="translate(0,0)"/>
<path d="" fill="#FFFFFF" transform="translate(0,0)"/>
<path d="" fill="#FFFFFF" transform="translate(0,0)"/>
<path d="" fill="#FFFFFF" transform="translate(0,0)"/>
<path d="" fill="#FFFFFF" transform="translate(0,0)"/>
<path d="" fill="#FFFFFF" transform="translate(0,0)"/>
<path d="" fill="#FFFFFF" transform="translate(0,0)"/>
<path d="" fill="#FFFFFF" transform="translate(0,0)"/>
<path d="" fill="#FFFFFF" transform="translate(0,0)"/>
<path d="" fill="#FFFFFF" transform="translate(0,0)"/>
<path d="" fill="#FFFFFF" transform="translate(0,0)"/>
<path d="" fill="#FFFFFF" transform="translate(0,0)"/>
<path d="" fill="#FFFFFF" transform="translate(0,0)"/>
</svg>
