<?xml version="1.0" encoding="UTF-8"?>
<svg version="1.1" xmlns="http://www.w3.org/2000/svg" width="273" height="326">
<path d="M0 0 C2.875 -0.125 2.875 -0.125 6 0 C6.66 0.66 7.32 1.32 8 2 C10.0018509 2.6577379 12.02965036 3.23729595 14.06640625 3.77734375 C22.45620928 6.0912935 30.6891586 8.79100482 38.9375 11.5625 C39.70825867 11.82122894 40.47901733 12.07995789 41.27313232 12.3465271 C46.06877785 13.9581502 50.86097973 15.57976234 55.6519165 17.20532227 C57.94154255 17.98021585 60.23291866 18.74968956 62.52490234 19.51757812 C66.0682407 20.70607875 69.60527211 21.91178323 73.13821411 23.13082886 C74.44128024 23.57791406 75.74615343 24.01977401 77.052948 24.45584106 C88.13279513 28.16236511 99.348235 33.12820206 105 44 C107.32506066 50.41467629 107.73807186 56.66681753 105 63 C103.40085088 65.43152674 101.67613693 67.63848041 99.80078125 69.86328125 C98.18227956 71.78371601 96.77352199 73.73025615 95.375 75.8125 C93.09855606 78.86772739 91.01400185 80.72112055 88 83 C85.95151778 84.95625197 83.98024249 86.97370536 82 89 C82.33 89.66 82.66 90.32 83 91 C82.195625 91.2475 81.39125 91.495 80.5625 91.75 C77.828919 92.72238859 77.828919 92.72238859 77.1875 95.125 C77.125625 95.74375 77.06375 96.3625 77 97 C76.01 97 75.02 97 74 97 C74.7425 97.6496875 74.7425 97.6496875 75.5 98.3125 C77 100 77 100 77 103 C80.3 103.66 83.6 104.32 87 105 C87.33 104.34 87.66 103.68 88 103 C88.33 103.33 88.66 103.66 89 104 C92.30414079 104.41490352 95.6059439 104.7700596 98.921875 105.07421875 C104.74226912 105.70547473 108.33776747 107.11314145 112.3125 111.625 C114.46585959 115.93171918 114.85282661 119.27145643 114 124 C111.26216633 129.28685122 109.46180876 130.17939708 104 132 C101.38563544 132.12082351 98.7987947 132.1881179 96.18359375 132.203125 C95.41249771 132.20882507 94.64140167 132.21452515 93.84693909 132.22039795 C92.21201953 132.22984376 90.57708097 132.23638027 88.94213867 132.24023438 C86.47083979 132.24987001 84.00039813 132.28086674 81.52929688 132.3125 C70.59262162 132.38770756 61.46837794 131.70788234 52 125.625 C50.63875 124.77808594 50.63875 124.77808594 49.25 123.9140625 C46.70718755 121.75090608 46.14966607 120.06919782 45 117 C43.515 116.505 43.515 116.505 42 116 C42 115.34 42 114.68 42 114 C40.515 113.505 40.515 113.505 39 113 C39.66 112.34 40.32 111.68 41 111 C41.64767793 108.42938689 41.64767793 108.42938689 42 106 C41.34 106 40.68 106 40 106 C40.165 105.0925 40.33 104.185 40.5 103.25 C41.29219385 98.50515596 41.29219385 98.50515596 40 94 C40.61875 93.95875 41.2375 93.9175 41.875 93.875 C42.57625 93.58625 43.2775 93.2975 44 93 C45.3045656 90.00384054 45.3045656 90.00384054 46 87 C46.66 87 47.32 87 48 87 C47.67 86.01 47.34 85.02 47 84 C47.99 83.01 48.98 82.02 50 81 C49.67 81.33 49.34 81.66 49 82 C48.34 81.01 47.68 80.02 47 79 C47.66 78.34 48.32 77.68 49 77 C47.41735678 71.93193695 47.41735678 71.93193695 43.625 68.625 C41.08950161 68.02130991 38.56922444 67.44043848 36 67 C36 66.01 36 65.02 36 64 C34.35 63.67 32.7 63.34 31 63 C31 62.01 31 61.02 31 60 C29.05396726 59.40929986 29.05396726 59.40929986 27 59 C26.67 59.33 26.34 59.66 26 60 C25.34 60 24.68 60 24 60 C24 58.68 24 57.36 24 56 C23.34 56.99 22.68 57.98 22 59 C21.01 59 20.02 59 19 59 C18.01 59.99 18.01 59.99 17 61 C17.12856496 63.18904111 17.12856496 63.18904111 17.75 65.625 C17.95238281 66.51316406 18.15476562 67.40132813 18.36328125 68.31640625 C18.57339844 69.20199219 18.78351563 70.08757812 19 71 C19.15855469 71.79277344 19.31710938 72.58554688 19.48046875 73.40234375 C19.95295283 75.79758881 19.95295283 75.79758881 21 79 C22.485 79.495 22.485 79.495 24 80 C23.505 81.485 23.505 81.485 23 83 C23.64660154 85.93535377 23.64660154 85.93535377 24.75 89.0625 C25.09546875 90.12597656 25.4409375 91.18945312 25.796875 92.28515625 C26.83167741 95.27486318 26.83167741 95.27486318 30 97 C29.01 97 28.02 97 27 97 C28.485 98.98 28.485 98.98 30 101 C29.67 101.33 29.34 101.66 29 102 C29.31290298 103.69563616 29.676471 105.38200249 30.0625 107.0625 C31.37233533 113.94136307 30.65789238 118.16553884 27.0625 124.3125 C22.50666667 130.24888889 22.50666667 130.24888889 18 131 C17.01298096 131.16927002 16.02596191 131.33854004 15.0090332 131.51293945 C10.21697524 132.18946255 5.43725216 132.16224066 0.60546875 132.16796875 C-0.38192795 132.17129715 -1.36932465 132.17462555 -2.38664246 132.17805481 C-4.46845029 132.18309934 -6.55026614 132.1854639 -8.63208008 132.18530273 C-11.79196715 132.18748581 -14.95150284 132.20565879 -18.11132812 132.22460938 C-20.14322799 132.22754462 -22.17512949 132.22952854 -24.20703125 132.23046875 C-25.60596367 132.24124702 -25.60596367 132.24124702 -27.03315735 132.25224304 C-42.41556594 132.19951835 -42.41556594 132.19951835 -47.9375 127.5 C-48.9584375 126.2625 -48.9584375 126.2625 -50 125 C-50.99 124.34 -51.98 123.68 -53 123 C-52.505 122.01 -52.505 122.01 -52 121 C-52.15210937 120.3915625 -52.30421875 119.783125 -52.4609375 119.15625 C-53.46247566 115.15009735 -52.70316762 111.70933548 -51 108 C-44.91391712 103.4057147 -37.48850953 103.41251322 -30.1875 103.375 C-28.1600346 103.34944908 -26.13265006 103.31591936 -24.10546875 103.2734375 C-22.77745239 103.26449463 -22.77745239 103.26449463 -21.42260742 103.25537109 C-18.85453874 102.98466669 -17.21399748 102.29463382 -15 101 C-15.33 100.01 -15.66 99.02 -16 98 C-15.34 98 -14.68 98 -14 98 C-13.67 97.34 -13.34 96.68 -13 96 C-13.99 96 -14.98 96 -16 96 C-16 95.34 -16 94.68 -16 94 C-15.34 94 -14.68 94 -14 94 C-14.81127079 91.87453041 -15.62405398 89.74963805 -16.4375 87.625 C-16.88996094 86.44164062 -17.34242187 85.25828125 -17.80859375 84.0390625 C-18.89271912 81.13963807 -18.89271912 81.13963807 -20 79 C-20.99 78.67 -21.98 78.34 -23 78 C-23.125 73.25 -23.125 73.25 -22 71 C-22.33 70.01 -22.66 69.02 -23 68 C-23.66 67.67 -24.32 67.34 -25 67 C-25.34375 65.00390625 -25.34375 65.00390625 -25.5 62.5625 C-25.65121611 58.83440381 -25.65121611 58.83440381 -28 56 C-27.625 53.875 -27.625 53.875 -27 52 C-28.32 51.67 -29.64 51.34 -31 51 C-31 50.01 -31 49.02 -31 48 C-30.34 48 -29.68 48 -29 48 C-29.99 46.68 -30.98 45.36 -32 44 C-31.34 44 -30.68 44 -30 44 C-30 43.01 -30 42.02 -30 41 C-30.66 41 -31.32 41 -32 41 C-32.05398987 38.72942623 -32.09278742 36.45848712 -32.125 34.1875 C-32.14820312 32.92292969 -32.17140625 31.65835938 -32.1953125 30.35546875 C-32 27 -32 27 -30 24 C-30.66 23.67 -31.32 23.34 -32 23 C-31.67 22.34 -31.34 21.68 -31 21 C-30.01 21 -29.02 21 -28 21 C-28.33 19.68 -28.66 18.36 -29 17 C-28.01 17 -27.02 17 -26 17 C-25.67 15.02 -25.34 13.04 -25 11 C-24.01 10.67 -23.02 10.34 -22 10 C-21.360625 9.360625 -20.72125 8.72125 -20.0625 8.0625 C-16.18182824 4.18182824 -12.05748689 3.45615474 -6.75 2.375 C-5.48671875 2.11460938 -4.2234375 1.85421875 -2.921875 1.5859375 C-1.95765625 1.39257812 -0.9934375 1.19921875 0 1 C0 0.67 0 0.34 0 0 Z " fill="#E8E8E8" transform="translate(75,53)"/>
<path d="M0 0 C6.6 0.33 13.2 0.66 20 1 C20 1.66 20 2.32 20 3 C21.051875 3.556875 22.10375 4.11375 23.1875 4.6875 C26.68686633 6.67000391 29.19178026 9.11588242 32 12 C34.16620544 13.29519995 34.16620544 13.29519995 36 14 C35.34 14 34.68 14 34 14 C34.6954344 17.00384054 34.6954344 17.00384054 36 20 C38.03243548 20.96877057 38.03243548 20.96877057 40 21 C39.34 21.66 38.68 22.32 38 23 C38.32198966 26.09926819 38.32198966 26.09926819 39 29 C40.485 29.495 40.485 29.495 42 30 C41.34 32.64 40.68 35.28 40 38 C39.34 38 38.68 38 38 38 C37.85304687 38.56847656 37.70609375 39.13695312 37.5546875 39.72265625 C35.58126631 46.5162154 32.44557264 50.79370323 27.3125 55.5703125 C25.77457624 56.92208602 25.77457624 56.92208602 26 59 C25.01 58.67 24.02 58.34 23 58 C21.27613855 58.74809082 19.55352245 59.5002129 17.8515625 60.296875 C15.20558905 61.30167504 12.79183397 61.20428053 10 61 C10.33 61.99 10.66 62.98 11 64 C10.01 63.67 9.02 63.34 8 63 C5.94075767 62.50702133 3.87772583 62.02977853 1.8125 61.5625 C-3.14137524 60.43208552 -8.07637156 59.25504254 -13 58 C-13 56.68 -13 55.36 -13 54 C-15.35953094 51.64046906 -16.77895617 51.50858587 -20 51 C-19.773125 50.47277344 -19.54625 49.94554687 -19.3125 49.40234375 C-18.72823807 44.91083018 -21.72858131 41.08534448 -23.75 37.19140625 C-25.10273936 33.73769357 -25.04564705 32.46370585 -24 29 C-24 28.01 -24 27.02 -24 26 C-23.34 26 -22.68 26 -22 26 C-21.7834375 24.6696875 -21.7834375 24.6696875 -21.5625 23.3125 C-21.21775369 21.28232726 -20.83137007 19.25802832 -20.375 17.25 C-19.76871373 14.97242945 -19.76871373 14.97242945 -21 13 C-19.35 12.67 -17.7 12.34 -16 12 C-16 11.01 -16 10.02 -16 9 C-16 8.67 -16 8.34 -16 8 C-15.21625 7.773125 -14.4325 7.54625 -13.625 7.3125 C-8.87698375 5.59339067 -4.47897448 3.31915279 0 1 C0 0.67 0 0.34 0 0 Z M39 33 C40 35 40 35 40 35 Z M-10 56 C-10.33 56.66 -10.66 57.32 -11 58 C-10.01 57.67 -9.02 57.34 -8 57 C-8.66 56.67 -9.32 56.34 -10 56 Z " fill="#E6E7E7" transform="translate(207,101)"/>
<path d="M0 0 C1.1328125 1.8203125 1.1328125 1.8203125 2 4 C2.64170257 5.37693264 3.2875221 6.75195432 3.9375 8.125 C4.25589844 8.80820313 4.57429688 9.49140625 4.90234375 10.1953125 C6.01935177 12.31813594 6.01935177 12.31813594 9 14 C1.575 15.485 1.575 15.485 -6 17 C-6 16.01 -6 15.02 -6 14 C-7.29233607 12.62689293 -8.62437146 11.28965176 -10 10 C-10 9.67 -10 9.34 -10 9 C-12.64 9 -15.28 9 -18 9 C-18 9.99 -18 10.98 -18 12 C-18.99 12 -19.98 12 -21 12 C-20.78153835 13.95541741 -20.78153835 13.95541741 -20 16 C-16.38390779 18.3905908 -12.76210356 19.06804496 -8.5 18.6875 C-7.2625 18.3471875 -7.2625 18.3471875 -6 18 C-5.67 19.32 -5.34 20.64 -5 22 C-4.67 21.34 -4.34 20.68 -4 20 C-2.68 20.66 -1.36 21.32 0 22 C-0.495 22.495 -0.495 22.495 -1 23 C-0.05125 23.825 0.8975 24.65 1.875 25.5 C2.40867188 25.9640625 2.94234375 26.428125 3.4921875 26.90625 C4.95936421 28.19572458 4.95936421 28.19572458 7 28 C7.38218767 29.65614657 7.71395102 31.32457024 8 33 C7.67 33.33 7.34 33.66 7 34 C10.16115776 32.63016497 10.9927092 32.0109362 13 29 C12.34 28.34 11.68 27.68 11 27 C11 26.34 11 25.68 11 25 C10.03886134 23.63838689 9.04115841 22.30144802 8 21 C8.99 20.67 9.98 20.34 11 20 C11.3403125 18.8553125 11.3403125 18.8553125 11.6875 17.6875 C13.37005328 14.24227185 15.00425116 13.34971481 18.42578125 11.78125 C23.48414173 10.24608749 28.74486846 10.16021742 34 10 C34.495 10.99 34.495 10.99 35 12 C36.32 12 37.64 12 39 12 C39.0825 12.556875 39.165 13.11375 39.25 13.6875 C40.22610013 16.69714206 41.95188814 18.62154752 44 21 C43.505 21.495 43.505 21.495 43 22 C42.92794489 23.68608966 42.91613932 25.37500659 42.9375 27.0625 C42.94652344 27.98160156 42.95554687 28.90070313 42.96484375 29.84765625 C42.97644531 30.55792969 42.98804687 31.26820313 43 32 C43.66 32.33 44.32 32.66 45 33 C44.34 33 43.68 33 43 33 C43 36.63 43 40.26 43 44 C43.66 44 44.32 44 45 44 C44.67 44.99 44.34 45.98 44 47 C44.33 47.33 44.66 47.66 45 48 C45.33 48.66 45.66 49.32 46 50 C43.69 50.66 41.38 51.32 39 52 C39 52.33 39 52.66 39 53 C36.03 53 33.06 53 30 53 C30 52.01 30 51.02 30 50 C29.60941406 50.50402344 29.21882813 51.00804687 28.81640625 51.52734375 C27 53 27 53 24.65234375 53.06640625 C17.43207493 51.72624125 12.03354056 49.16196507 6 45 C6.66666667 43.66666667 7.33333333 42.33333333 8 41 C4.63982139 42.12005954 4.32020678 42.65300992 2.5 45.5 C0.33333333 48.88888889 0.33333333 48.88888889 -3 50 C-2.67 50.66 -2.34 51.32 -2 52 C-9.32765768 53.11777829 -16.68217894 53.41896807 -24 52 C-25.71875 50.58203125 -25.71875 50.58203125 -27 49 C-27.86625 48.319375 -28.7325 47.63875 -29.625 46.9375 C-32 45 -32 45 -33 43 C-33.99 42.34 -34.98 41.68 -36 41 C-35.34 41 -34.68 41 -34 41 C-34.20625 40.0925 -34.4125 39.185 -34.625 38.25 C-35.02065633 34.82097846 -34.72845365 33.84686483 -33 31 C-33 30.34 -33 29.68 -33 29 C-28.545 29.99 -28.545 29.99 -24 31 C-23.896875 31.928125 -23.79375 32.85625 -23.6875 33.8125 C-22.98538152 37.0677766 -22.62225892 38.08373387 -20 40 C-16.52674819 41.1577506 -13.63932552 41.06866652 -10 41 C-9.34 39.68 -8.68 38.36 -8 37 C-7.34 37 -6.68 37 -6 37 C-6 36.34 -6 35.68 -6 35 C-7.485 34.505 -7.485 34.505 -9 34 C-9 33.34 -9 32.68 -9 32 C-9.99 32 -10.98 32 -12 32 C-12 31.34 -12 30.68 -12 30 C-12.886875 29.9175 -13.77375 29.835 -14.6875 29.75 C-20.63173222 28.92714141 -26.30913586 26.83990344 -32 25 C-31.34 24.67 -30.68 24.34 -30 24 C-30.99 23.67 -31.98 23.34 -33 23 C-33.75816993 7.81554103 -33.75816993 7.81554103 -29 2 C-27.1875 0.6875 -27.1875 0.6875 -25 0 C-23.948125 -0.37125 -22.89625 -0.7425 -21.8125 -1.125 C-14.90746482 -2.70976217 -6.60960893 -2.96244629 0 0 Z M20 21.8125 C18.79212012 24.05386471 18.79212012 24.05386471 19 27 C17.68 27 16.36 27 15 27 C15.33 27.66 15.66 28.32 16 29 C20.29 28.34 24.58 27.68 29 27 C29 26.67 29 26.34 29 26 C27.35 25.67 25.7 25.34 24 25 C28.75 24.875 28.75 24.875 31 26 C30.67 24.02 30.34 22.04 30 20 C24.50272375 19.34893621 24.50272375 19.34893621 20 21.8125 Z M26 34 C26.33 34.66 26.66 35.32 27 36 C28.32 35.34 29.64 34.68 31 34 C29.35 34 27.7 34 26 34 Z M24 35 C24 35.66 24 36.32 24 37 C22.68 37 21.36 37 20 37 C20.33 37.99 20.66 38.98 21 40 C21.66 39.67 22.32 39.34 23 39 C24.67654729 39.27942455 26.34608154 39.60828247 28 40 C28.33 39.01 28.66 38.02 29 37 C26.525 36.01 26.525 36.01 24 35 Z M21 41 C21.66 41.66 22.32 42.32 23 43 C25.60280568 42.67958603 25.60280568 42.67958603 28 42 C28 41.67 28 41.34 28 41 C25.69 41 23.38 41 21 41 Z " fill="#E1E1E1" transform="translate(83,244)"/>
<path d="M0 0 C1.43088528 2.86177057 0.59991697 4.93375773 0 8 C0.66 8 1.32 8 2 8 C1.814375 8.78375 1.62875 9.5675 1.4375 10.375 C0.74037734 12.97089775 0.74037734 12.97089775 2 15 C1.34 15 0.68 15 0 15 C0 15.99 0 16.98 0 18 C0.66 18 1.32 18 2 18 C2.495 19.485 2.495 19.485 3 21 C2.34 21 1.68 21 1 21 C1.57452746 24.93075644 1.57452746 24.93075644 4 28 C3.34 28 2.68 28 2 28 C2 28.99 2 29.98 2 31 C1.34 31 0.68 31 0 31 C0.33 31.99 0.66 32.98 1 34 C0.5625 36.1875 0.5625 36.1875 0 38 C2.38564077 37.42415568 4.66682784 36.77772405 7 36 C7 34.68 7 33.36 7 32 C7.99 31.67 8.98 31.34 10 31 C8.6910428 27.87802522 8.6910428 27.87802522 6 26 C6.125 22.75 6.125 22.75 7 19 C9.9375 16.6875 9.9375 16.6875 13 15 C13.66 14.34 14.32 13.68 15 13 C15.66 13.33 16.32 13.66 17 14 C17 13.34 17 12.68 17 12 C30.68265683 12.84132841 30.68265683 12.84132841 37 16 C37.68132451 17.66072849 38.34742127 19.327767 39 21 C39.99 21.99 39.99 21.99 41 23 C40.34 23 39.68 23 39 23 C39.3403125 23.83402344 39.680625 24.66804688 40.03125 25.52734375 C41.1459759 29.52327651 40.93156299 32.45020262 40.5 36.5625 C39.9829914 41.49893786 39.96514858 44.49095424 42 49 C42 50.32 42 51.64 42 53 C39.35261084 54.4606285 38.10551666 55 35 55 C34.67 54.67 34.34 54.34 34 54 C32.515 54.495 32.515 54.495 31 55 C29.00038436 55.03920815 26.99950636 55.04443347 25 55 C25 54.34 25 53.68 25 53 C23.7315625 53.495 23.7315625 53.495 22.4375 54 C18.79010784 55.06105954 15.77725336 55.15109013 12 55 C12.495 54.01 12.495 54.01 13 53 C12.030625 52.401875 11.06125 51.80375 10.0625 51.1875 C7 49 7 49 6 46 C4.68 46 3.36 46 2 46 C1.34 48.97 0.68 51.94 0 55 C-1.95803507 55.05389087 -3.91648909 55.09274217 -5.875 55.125 C-6.96554688 55.14820313 -8.05609375 55.17140625 -9.1796875 55.1953125 C-12 55 -12 55 -14 53 C-14.66 53.66 -15.32 54.32 -16 55 C-20.12015007 55.23321604 -24.02374984 55.16948534 -28 54 C-28.33 53.34 -28.66 52.68 -29 52 C-29.99 51.566875 -29.99 51.566875 -31 51.125 C-31.66 50.75375 -32.32 50.3825 -33 50 C-33.36162029 48.67405895 -33.69728039 47.34061543 -34 46 C-34.99 45.67 -35.98 45.34 -37 45 C-37.66 44.34 -38.32 43.68 -39 43 C-38.68676972 41.32943851 -38.34665557 39.66394675 -38 38 C-37.78236251 33.2042025 -37.6497432 28.6401682 -39 24 C-38.01 23.67 -37.02 23.34 -36 23 C-36 22.34 -36 21.68 -36 21 C-35.34 21 -34.68 21 -34 21 C-33.79375 20.4225 -33.5875 19.845 -33.375 19.25 C-31.36038579 15.95335856 -29.46442376 14.73221188 -26 13 C-21.09137882 12.43481176 -16.78666777 12.80333306 -12 14 C-11.67 9.38 -11.34 4.76 -11 0 C-6.88825414 -1.37058195 -4.26339405 -0.75640862 0 0 Z M-26 27 C-25.01 27.495 -25.01 27.495 -24 28 C-24.51038056 30.55190282 -25.02213171 33.0929532 -25.625 35.625 C-26.087425 38.55369165 -25.51136819 40.23294772 -23.875 42.6875 C-20.84939263 44.80542516 -18.57629221 44.50193575 -15 44 C-12.52791204 41.64167228 -12.52791204 41.64167228 -11 39 C-11.66 38.67 -12.32 38.34 -13 38 C-12.34 36.02 -11.68 34.04 -11 32 C-11.66 31.34 -12.32 30.68 -13 30 C-12.979375 29.01 -12.95875 28.02 -12.9375 27 C-12.958125 26.01 -12.97875 25.02 -13 24 C-18.91990613 20.05339591 -21.56807016 21.93493733 -26 27 Z M19 22 C17.5393715 24.64738916 17 25.89448334 17 29 C19.64 29 22.28 29 25 29 C25 28.01 25 27.02 25 26 C25.99 25.67 26.98 25.34 28 25 C27.34 25 26.68 25 26 25 C26 24.34 26 23.68 26 23 C23.69 22.67 21.38 22.34 19 22 Z M13 28 C13 28.66 13 29.32 13 30 C13.99 29.67 14.98 29.34 16 29 C15.01 28.67 14.02 28.34 13 28 Z M-26 29 C-25 32 -25 32 -25 32 Z M16 39 C16.33 40.65 16.66 42.3 17 44 C19.4828287 44.88672454 20.62029277 45.14518218 23.125 44.1875 C25.13669154 43.00933402 25.13669154 43.00933402 27 41 C26.67 40.01 26.34 39.02 26 38 C25.01 38 24.02 38 23 38 C24.65 37.67 26.3 37.34 28 37 C28 36.67 28 36.34 28 36 C23.12335991 35.65166856 20.22949995 36.58314288 16 39 Z M0 39 C0 40.98 0 42.96 0 45 C1.65 44.67 3.3 44.34 5 44 C4.67 42.68 4.34 41.36 4 40 C3.34 40 2.68 40 2 40 C1.34 39.67 0.68 39.34 0 39 Z M-7 53 C-3 54 -3 54 -3 54 Z " fill="#DFDEDF" transform="translate(185,242)"/>
<path d="M0 0 C3.96 0.33 7.92 0.66 12 1 C12 1.99 12 2.98 12 4 C12.66 4.33 13.32 4.66 14 5 C13.34 5 12.68 5 12 5 C12.185625 6.093125 12.37125 7.18625 12.5625 8.3125 C13 12 13 12 12 15 C12.66 15.33 13.32 15.66 14 16 C13.34 16 12.68 16 12 16 C12.165 16.78375 12.33 17.5675 12.5 18.375 C13.036208 22.26250802 12.98802872 25.91604185 12.83984375 29.828125 C12.77801482 32.21347514 12.77801482 32.21347514 15 34 C14.01 34.495 14.01 34.495 13 35 C12.63955967 37.97477337 12.5556949 40.9282498 12.44140625 43.921875 C11.95159187 47.33757173 11.03156154 49.234549 9 52 C4.2172507 55.22557511 0.56663461 55.28792938 -5 55 C-5.02689216 53.52093108 -5.04634621 52.04172517 -5.0625 50.5625 C-5.07990234 49.32693359 -5.07990234 49.32693359 -5.09765625 48.06640625 C-5 46 -5 46 -4 45 C-2.33382885 44.95936168 -0.66611905 44.957279 1 45 C1.02698189 43.37509046 1.04638757 41.75005367 1.0625 40.125 C1.07410156 39.22007812 1.08570313 38.31515625 1.09765625 37.3828125 C1.16249257 34.9831415 1.16249257 34.9831415 0 33 C-0.22661871 26.88129496 -0.22661871 26.88129496 0.5625 23.8125 C1.15599078 21.96748075 1.15599078 21.96748075 0.5 20 C-0.08662023 17.65351906 0.26907328 16.27399422 1 14 C0.34 13.67 -0.32 13.34 -1 13 C-0.649375 12.236875 -0.29875 11.47375 0.0625 10.6875 C1.32360884 7.95240621 1.32360884 7.95240621 0 5 C0.66 4.01 1.32 3.02 2 2 C1.34 2 0.68 2 0 2 C0 1.34 0 0.68 0 0 Z " fill="#DDDEDE" transform="translate(130,255)"/>
<path d="M0 0 C0.66 0 1.32 0 2 0 C2 0.66 2 1.32 2 2 C4.97 2 7.94 2 11 2 C11.33 2.66 11.66 3.32 12 4 C11.67 4.66 11.34 5.32 11 6 C15.29 6.33 19.58 6.66 24 7 C23.01 7.66 22.02 8.32 21 9 C22.32 9.66 23.64 10.32 25 11 C24.37351563 11.10957031 23.74703125 11.21914063 23.1015625 11.33203125 C22.28429687 11.49058594 21.46703125 11.64914062 20.625 11.8125 C19.40683594 12.03873047 19.40683594 12.03873047 18.1640625 12.26953125 C15.64179359 12.87544942 15.64179359 12.87544942 14 16 C13.01 16 12.02 16 11 16 C10.67 16.66 10.34 17.32 10 18 C10.66 18.33 11.32 18.66 12 19 C11.67 19.33 11.34 19.66 11 20 C13.89730041 22.38312904 13.89730041 22.38312904 17.5625 21.6875 C20.84286044 21.18820203 20.84286044 21.18820203 23 20 C22.67 21.65 22.34 23.3 22 25 C22.66 25 23.32 25 24 25 C24 26.32 24 27.64 24 29 C24.61488281 28.97679687 25.22976562 28.95359375 25.86328125 28.9296875 C26.67152344 28.91164063 27.47976562 28.89359375 28.3125 28.875 C29.51326172 28.84019531 29.51326172 28.84019531 30.73828125 28.8046875 C33 29 33 29 36 31 C33.6739143 31.38063221 31.33944736 31.71269945 29 32 C28.67 31.67 28.34 31.34 28 31 C27.01 31.33 26.02 31.66 25 32 C23.00038436 32.03920815 20.99950636 32.04443347 19 32 C19 31.34 19 30.68 19 30 C18.154375 30.33 17.30875 30.66 16.4375 31 C12.79010784 32.06105954 9.77725336 32.15109013 6 32 C6.33 31.34 6.66 30.68 7 30 C6.030625 29.401875 5.06125 28.80375 4.0625 28.1875 C1 26 1 26 0 23 C-1.32 23 -2.64 23 -4 23 C-4.33 24.98 -4.66 26.96 -5 29 C-5.33 29 -5.66 29 -6 29 C-6.49230769 22.6 -6.49230769 22.6 -4 19.5625 C-3.34 19.046875 -2.68 18.53125 -2 18 C-2.99 18.66 -3.98 19.32 -5 20 C-4.42655063 17.13275314 -4.1385485 16.1385485 -2 14 C-1.01 13.67 -0.02 13.34 1 13 C1 11.68 1 10.36 1 9 C1.99 8.67 2.98 8.34 4 8 C2.6910428 4.87802522 2.6910428 4.87802522 0 3 C0 2.01 0 1.02 0 0 Z M7 5 C7 5.66 7 6.32 7 7 C7.99 6.67 8.98 6.34 10 6 C9.01 5.67 8.02 5.34 7 5 Z " fill="#E0E0E0" transform="translate(191,265)"/>
<path d="M0 0 C3.3 0 6.6 0 10 0 C9.67 2.31 9.34 4.62 9 7 C9.66 7 10.32 7 11 7 C10.814375 7.78375 10.62875 8.5675 10.4375 9.375 C9.74037734 11.97089775 9.74037734 11.97089775 11 14 C10.34 14 9.68 14 9 14 C9 14.99 9 15.98 9 17 C9.66 17 10.32 17 11 17 C11.33 17.99 11.66 18.98 12 20 C11.34 20 10.68 20 10 20 C10.57452746 23.93075644 10.57452746 23.93075644 13 27 C12.34 27 11.68 27 11 27 C11 27.99 11 28.98 11 30 C10.34 30 9.68 30 9 30 C9.33 30.99 9.66 31.98 10 33 C9.5625 35.1875 9.5625 35.1875 9 37 C9.66 37.33 10.32 37.66 11 38 C10.34 38 9.68 38 9 38 C9 42.29 9 46.58 9 51 C8.34 51 7.68 51 7 51 C6.13124421 45.03594643 5.8660147 39.27190402 5.90234375 33.25 C5.9037587 32.35128174 5.90517365 31.45256348 5.90663147 30.52661133 C5.91218417 27.68437225 5.92472763 24.84221487 5.9375 22 C5.94252112 20.06119906 5.94708295 18.12239688 5.95117188 16.18359375 C5.96213806 11.45569817 5.97936956 6.72786289 6 2 C4.35 1.67 2.7 1.34 1 1 C1 5.95 1 10.9 1 16 C0.67 16 0.34 16 0 16 C0 10.72 0 5.44 0 0 Z " fill="#DDDDDE" transform="translate(176,243)"/>
<path d="M0 0 C1.4800841 0.11362262 2.95910074 0.24122908 4.4375 0.375 C5.26121094 0.44460937 6.08492187 0.51421875 6.93359375 0.5859375 C7.95646484 0.79089844 7.95646484 0.79089844 9 1 C9.33 1.66 9.66 2.32 10 3 C8.35 3 6.7 3 5 3 C5 16.53 5 30.06 5 44 C4.67 44 4.34 44 4 44 C4 37.73 4 31.46 4 25 C2.68 24.67 1.36 24.34 0 24 C0 20.58900832 0.49145406 17.36911686 1 14 C0.34 13.67 -0.32 13.34 -1 13 C-0.649375 12.236875 -0.29875 11.47375 0.0625 10.6875 C1.32360884 7.95240621 1.32360884 7.95240621 0 5 C0.66 4.01 1.32 3.02 2 2 C1.34 2 0.68 2 0 2 C0 1.34 0 0.68 0 0 Z " fill="#D5D5D5" transform="translate(130,255)"/>
<path d="M0 0 C0 1.32 0 2.64 0 4 C0.66 4.33 1.32 4.66 2 5 C2 5.66 2 6.32 2 7 C1.01 7 0.02 7 -1 7 C-1.33 7.99 -1.66 8.98 -2 10 C-5.3 10 -8.6 10 -12 10 C-13.6415049 6.7169902 -12.51888624 3.57454967 -12 0 C-7.91556885 -1.53166168 -4.20544343 -0.63081652 0 0 Z " fill="#E3E3E3" transform="translate(143,241)"/>
<path d="M0 0 C0.66 1.32 1.32 2.64 2 4 C2.99 4.33 3.98 4.66 5 5 C4.85691406 6.75376953 4.85691406 6.75376953 4.7109375 8.54296875 C4.59834603 10.09110142 4.48640086 11.6392812 4.375 13.1875 C4.31054688 13.95642578 4.24609375 14.72535156 4.1796875 15.51757812 C3.87530899 19.95009014 4.04027971 22.90852291 6 27 C6 27.99 6 28.98 6 30 C4.02 29.67 2.04 29.34 0 29 C0 19.43 0 9.86 0 0 Z " fill="#E5E4E5" transform="translate(221,264)"/>
<path d="M0 0 C2.875 -0.125 2.875 -0.125 6 0 C6.66 0.66 7.32 1.32 8 2 C9.52056618 2.59834554 11.06612088 3.13506656 12.625 3.625 C13.44226563 3.88539062 14.25953125 4.14578125 15.1015625 4.4140625 C15.72804687 4.60742188 16.35453125 4.80078125 17 5 C17 5.33 17 5.66 17 6 C14.36 6 11.72 6 9 6 C9 5.34 9 4.68 9 4 C-3.22491 4.29999779 -11.88302933 5.73653388 -22 13 C-22 11.68 -22 10.36 -22 9 C-20.68 8.34 -19.36 7.68 -18 7 C-18 6.34 -18 5.68 -18 5 C-12.06 3.68 -6.12 2.36 0 1 C0 0.67 0 0.34 0 0 Z " fill="#E6E6E6" transform="translate(75,53)"/>
<path d="M0 0 C0.99 0 1.98 0 3 0 C3 0.99 3 1.98 3 3 C3.66 3.33 4.32 3.66 5 4 C4.34 4 3.68 4 3 4 C3.185625 5.093125 3.37125 6.18625 3.5625 7.3125 C4 11 4 11 3 14 C3.66 14.33 4.32 14.66 5 15 C4.34 15 3.68 15 3 15 C3.185625 15.928125 3.37125 16.85625 3.5625 17.8125 C4 21 4 21 3 24 C2.01 23.67 1.02 23.34 0 23 C0 15.41 0 7.82 0 0 Z " fill="#D7D7D7" transform="translate(139,256)"/>
<path d="M0 0 C0 0.33 0 0.66 0 1 C-2.97 1 -5.94 1 -9 1 C-7.87465895 2.35618499 -7.87465895 2.35618499 -4.9375 2.0625 C-3.968125 2.041875 -2.99875 2.02125 -2 2 C-2 2.33 -2 2.66 -2 3 C-3.65 3 -5.3 3 -7 3 C-6.97679687 4.05960938 -6.95359375 5.11921875 -6.9296875 6.2109375 C-6.91093056 7.5989513 -6.89273028 8.9869727 -6.875 10.375 C-6.85824219 11.07367188 -6.84148437 11.77234375 -6.82421875 12.4921875 C-6.80655733 14.32897486 -6.89696739 16.16601963 -7 18 C-7.66 18.66 -8.32 19.32 -9 20 C-11.0625 17.75 -11.0625 17.75 -13 15 C-12.65625 13.1875 -12.65625 13.1875 -12 11 C-11.78351622 9.08639029 -11.59743032 7.16916379 -11.4375 5.25 C-11.35371094 4.26515625 -11.26992187 3.2803125 -11.18359375 2.265625 C-11.12300781 1.51796875 -11.06242188 0.7703125 -11 0 C-6.94952424 -1.35015859 -4.2079832 -0.62084998 0 0 Z " fill="#E9E9E9" transform="translate(185,242)"/>
<path d="M0 0 C0.33 0 0.66 0 1 0 C1 3.3 1 6.6 1 10 C1.66 10.33 2.32 10.66 3 11 C2.34 11 1.68 11 1 11 C1 14.63 1 18.26 1 22 C1.66 22 2.32 22 3 22 C2.67 22.99 2.34 23.98 2 25 C2.33 25.33 2.66 25.66 3 26 C3.33 26.66 3.66 27.32 4 28 C1.69 28.66 -0.62 29.32 -3 30 C-3 30.33 -3 30.66 -3 31 C-5.97 31 -8.94 31 -12 31 C-11.01 27.535 -11.01 27.535 -10 24 C-9.67 25.32 -9.34 26.64 -9 28 C-6.03 28 -3.06 28 0 28 C0 18.76 0 9.52 0 0 Z " fill="#FBFBFB" transform="translate(125,266)"/>
<path d="M0 0 C1.02962715 3.36237617 1.07133135 6.37084722 1 9.875 C0.95922395 14.04435144 1.09081143 17.90865143 2 22 C-0.51083114 20.74458443 -0.87125446 19.49936512 -2 17 C-2.66 17 -3.32 17 -4 17 C-5.56217417 14.51889985 -6.05728067 13.39141793 -5.625 10.4375 C-5.41875 9.633125 -5.2125 8.82875 -5 8 C-5 7.01 -5 6.02 -5 5 C-4.01 5 -3.02 5 -2 5 C-1.34 3.35 -0.68 1.7 0 0 Z " fill="#EDEEED" transform="translate(188,122)"/>
<path d="M0 0 C0.738041 12.66970387 0.738041 12.66970387 -4 18 C-4.99 17.67 -5.98 17.34 -7 17 C-6.01 16.34 -5.02 15.68 -4 15 C-4.33 14.01 -4.66 13.02 -5 12 C-7.64 12 -10.28 12 -13 12 C-13 11.67 -13 11.34 -13 11 C-8.545 10.505 -8.545 10.505 -4 10 C-3.01 7.03 -2.02 4.06 -1 1 C-4.3 1.33 -7.6 1.66 -11 2 C-11 1.67 -11 1.34 -11 1 C-7.25818125 0.11957206 -3.83583759 -0.04250236 0 0 Z " fill="#D3D4D4" transform="translate(117,276)"/>
<path d="M0 0 C0.33 0 0.66 0 1 0 C2.28571429 7.42857143 2.28571429 7.42857143 1 11 C1.66 11.33 2.32 11.66 3 12 C2.34 12 1.68 12 1 12 C1 16.29 1 20.58 1 25 C0.34 25 -0.32 25 -1 25 C-3.92018026 6.38385085 -3.92018026 6.38385085 0 0 Z " fill="#D4D4D5" transform="translate(184,269)"/>
<path d="M0 0 C1.4800841 0.11362262 2.95910074 0.24122908 4.4375 0.375 C5.26121094 0.44460937 6.08492187 0.51421875 6.93359375 0.5859375 C7.95646484 0.79089844 7.95646484 0.79089844 9 1 C9.33 1.66 9.66 2.32 10 3 C8.35 3 6.7 3 5 3 C5 16.53 5 30.06 5 44 C4.67 44 4.34 44 4 44 C3.67 30.47 3.34 16.94 3 3 C2.01 2.67 1.02 2.34 0 2 C0 1.34 0 0.68 0 0 Z " fill="#ECEBEC" transform="translate(130,255)"/>
<path d="M0 0 C0.33 0.66 0.66 1.32 1 2 C2.89533342 2.46523063 2.89533342 2.46523063 5.0625 2.625 C6.361875 2.74875 7.66125 2.8725 9 3 C7.75 5.5 7.75 5.5 6 8 C4.68 8 3.36 8 2 8 C2.33 8.99 2.66 9.98 3 11 C0.525 10.01 0.525 10.01 -2 9 C-2 8.01 -2 7.02 -2 6 C-3.43990623 3.82967524 -3.43990623 3.82967524 -5 2 C-4.01 1.67 -3.02 1.34 -2 1 C-2 1.99 -2 2.98 -2 4 C-1.34 3.67 -0.68 3.34 0 3 C0 2.01 0 1.02 0 0 Z " fill="#EFEEEE" transform="translate(96,263)"/>
<path d="M0 0 C2.64 0.33 5.28 0.66 8 1 C6.02317302 3.55824668 4.82381958 4.04893901 1.625 4.9375 C-2.12831341 6.0376091 -4.13653312 7.39684829 -7 10 C-7 9.34 -7 8.68 -7 8 C-7.99 7.67 -8.98 7.34 -10 7 C-9.05125 6.38125 -8.1025 5.7625 -7.125 5.125 C-4.05554891 3.18029031 -4.05554891 3.18029031 -2 1 C-1.34 1.33 -0.68 1.66 0 2 C0 1.34 0 0.68 0 0 Z M-8 10 C-6.515 10.99 -6.515 10.99 -5 12 C-5.99 12 -6.98 12 -8 12 C-8 11.34 -8 10.68 -8 10 Z " fill="#E4E4E4" transform="translate(202,254)"/>
<path d="M0 0 C1.66194453 0.35613097 3.328451 0.69208308 5 1 C5 1.66 5 2.32 5 3 C4.01 3.495 4.01 3.495 3 4 C3.66 5.32 4.32 6.64 5 8 C4.278125 7.360625 3.55625 6.72125 2.8125 6.0625 C-2.08961989 2.70342027 -8.26333164 3.17022755 -14 3 C-13.67 2.01 -13.34 1.02 -13 0 C-11.20909747 -0.19466332 -9.41723495 -0.38051213 -7.625 -0.5625 C-6.12839844 -0.71912109 -6.12839844 -0.71912109 -4.6015625 -0.87890625 C-2 -1 -2 -1 0 0 Z " fill="#E9E9EA" transform="translate(117,255)"/>
<path d="M0 0 C6.06694887 0.3791843 10.51792797 4.44474648 14.58984375 8.63671875 C18.18988069 13.11328642 18.85884447 17.3409466 19 23 C17 22 17 22 16.10546875 19.671875 C15.80253906 18.70765625 15.49960938 17.7434375 15.1875 16.75 C12.52069311 9.1891629 8.31671025 5.95393796 1.57421875 2.015625 C1.05472656 1.68046875 0.53523437 1.3453125 0 1 C0 0.67 0 0.34 0 0 Z " fill="#D6D6D6" transform="translate(162,83)"/>
<path d="M0 0 C2.97 0 5.94 0 9 0 C9 0.33 9 0.66 9 1 C8.113125 1.268125 7.22625 1.53625 6.3125 1.8125 C0.70923408 3.72824368 0.70923408 3.72824368 -3 8 C-3.66 8 -4.32 8 -5 8 C-5 9.98 -5 11.96 -5 14 C-5.99 14.495 -5.99 14.495 -7 15 C-7.62440191 6.88277512 -7.62440191 6.88277512 -5.1875 3.4375 C-3 2 -3 2 0 2 C0 1.34 0 0.68 0 0 Z " fill="#DBDBDA" transform="translate(99,272)"/>
<path d="M0 0 C-1.36283186 5.57522124 -1.36283186 5.57522124 -4.25 7.5 C-5.1575 7.995 -6.065 8.49 -7 9 C-9.10319718 10.91514661 -11.03281261 12.94131552 -13 15 C-12.67 15.66 -12.34 16.32 -12 17 C-12.763125 17.28875 -13.52625 17.5775 -14.3125 17.875 C-17.15029308 18.96269013 -17.15029308 18.96269013 -20 21 C-18.60366893 17.81440048 -16.95442507 15.76056155 -14.4375 13.375 C-11.85984611 10.95478041 -11.85984611 10.95478041 -10 8 C-9.34 8 -8.68 8 -8 8 C-7.7525 7.4225 -7.505 6.845 -7.25 6.25 C-5.58207452 3.24773413 -3.67725381 0 0 0 Z " fill="#D9D9DA" transform="translate(170,127)"/>
<path d="M0 0 C0.66 0 1.32 0 2 0 C2 0.66 2 1.32 2 2 C4.97 2 7.94 2 11 2 C11.33 2.66 11.66 3.32 12 4 C11.67 4.66 11.34 5.32 11 6 C12.65 6 14.3 6 16 6 C16 6.33 16 6.66 16 7 C10.375 7.25 10.375 7.25 7 5 C7 5.66 7 6.32 7 7 C7.66 7.33 8.32 7.66 9 8 C7.68 8.33 6.36 8.66 5 9 C4.54625 8.195625 4.0925 7.39125 3.625 6.5625 C2.25274335 3.91143428 2.25274335 3.91143428 0 3 C0 2.01 0 1.02 0 0 Z " fill="#FBFBFB" transform="translate(191,265)"/>
<path d="M0 0 C0.66 0 1.32 0 2 0 C0.7480948 4.72941963 -1.78447162 6.73521327 -5.5390625 9.5703125 C-6.02117187 10.04210937 -6.50328125 10.51390625 -7 11 C-7 11.99 -7 12.98 -7 14 C-7.99 13.67 -8.98 13.34 -10 13 C-10.61875 13.309375 -11.2375 13.61875 -11.875 13.9375 C-14.40597375 15.20298687 -16.20727405 15.15515144 -19 15 C-16.68330248 13.45553499 -14.75183254 12.41830998 -12.25 11.3125 C-7.25107978 8.86386071 -2.5264914 5.05298279 0 0 Z " fill="#D7D7D7" transform="translate(240,146)"/>
<path d="M0 0 C0.33 1.32 0.66 2.64 1 4 C1.61488281 3.97679687 2.22976562 3.95359375 2.86328125 3.9296875 C3.67152344 3.91164063 4.47976562 3.89359375 5.3125 3.875 C6.11300781 3.85179687 6.91351563 3.82859375 7.73828125 3.8046875 C10 4 10 4 13 6 C10.6739143 6.38063221 8.33944736 6.71269945 6 7 C5.67 6.67 5.34 6.34 5 6 C4.01 6.33 3.02 6.66 2 7 C0.00038436 7.03920815 -2.00049364 7.04443347 -4 7 C-4 6.34 -4 5.68 -4 5 C-3.34 5 -2.68 5 -2 5 C-1.7834375 4.0409375 -1.7834375 4.0409375 -1.5625 3.0625 C-1 1 -1 1 0 0 Z " fill="#F9F9F9" transform="translate(214,290)"/>
<path d="M0 0 C0 0.33 0 0.66 0 1 C-0.76183594 1.14695313 -1.52367188 1.29390625 -2.30859375 1.4453125 C-9.66866921 3.04413039 -15.0612373 5.36596547 -21 10 C-21 8.68 -21 7.36 -21 6 C-19.68 5.34 -18.36 4.68 -17 4 C-17 3.34 -17 2.68 -17 2 C-11.16200408 0.30167391 -6.06892629 -0.25287193 0 0 Z " fill="#D9D9D9" transform="translate(74,56)"/>
<path d="M0 0 C-1.875 6.75 -1.875 6.75 -3 9 C-6.3 9 -9.6 9 -13 9 C-12.34 7.68 -11.68 6.36 -11 5 C-9.02 5.66 -7.04 6.32 -5 7 C-5 6.34 -5 5.68 -5 5 C-5.66 4.34 -6.32 3.68 -7 3 C-4.49955934 -0.00052879 -4.2621484 0 0 0 Z " fill="#FCFCFC" transform="translate(116,277)"/>
<path d="M0 0 C0.8971875 0.309375 0.8971875 0.309375 1.8125 0.625 C-2.9375 3.625 -2.9375 3.625 -5.1875 3.625 C-5.435 4.2025 -5.6825 4.78 -5.9375 5.375 C-7.36275423 7.94045762 -9.05362265 9.62448998 -11.1875 11.625 C-11.8475 12.285 -12.5075 12.945 -13.1875 13.625 C-12.64026317 10.25037285 -12.1326 8.54265 -10.1875 5.625 C-10.5175 4.965 -10.8475 4.305 -11.1875 3.625 C-9.7953125 3.191875 -9.7953125 3.191875 -8.375 2.75 C-0.39262821 -0.06730769 -0.39262821 -0.06730769 0 0 Z " fill="#DCDCDD" transform="translate(202.1875,105.375)"/>
<path d="M0 0 C0.33 0 0.66 0 1 0 C1 1.98 1 3.96 1 6 C1.66 6 2.32 6 3 6 C2.814375 6.78375 2.62875 7.5675 2.4375 8.375 C1.74037734 10.97089775 1.74037734 10.97089775 3 13 C2.34 13 1.68 13 1 13 C1 13.99 1 14.98 1 16 C1.66 16 2.32 16 3 16 C3.33 16.99 3.66 17.98 4 19 C3.34 19 2.68 19 2 19 C1.34 20.32 0.68 21.64 0 23 C0 15.41 0 7.82 0 0 Z " fill="#CBCBCB" transform="translate(184,244)"/>
<path d="M0 0 C0.33 0 0.66 0 1 0 C1.19421438 2.95803435 1.38066186 5.91620163 1.5625 8.875 C1.61857422 9.71675781 1.67464844 10.55851562 1.73242188 11.42578125 C1.78076172 12.23144531 1.82910156 13.03710938 1.87890625 13.8671875 C1.9260376 14.61081543 1.97316895 15.35444336 2.02172852 16.12060547 C2 18 2 18 1 20 C-2 19 -2 19 -4 17 C-4 15.68 -4 14.36 -4 13 C-3.34 13 -2.68 13 -2 13 C-1.67 14.32 -1.34 15.64 -1 17 C-0.34 17 0.32 17 1 17 C0.67 16.34 0.34 15.68 0 15 C-0.0716735 12.44842345 -0.09308442 9.92527029 -0.0625 7.375 C-0.05798828 6.66859375 -0.05347656 5.9621875 -0.04882812 5.234375 C-0.03703875 3.48954725 -0.01910324 1.744763 0 0 Z " fill="#F1F1F1" transform="translate(150,268)"/>
<path d="M0 0 C0.99 0.33 1.98 0.66 3 1 C3 1.99 3 2.98 3 4 C-2.71271928 5.6112798 -6.68670645 4.08989546 -12 2 C-9.47524538 0.73762269 -7.68799534 0.90143596 -4.875 0.9375 C-3.96492188 0.94652344 -3.05484375 0.95554687 -2.1171875 0.96484375 C-1.41851562 0.97644531 -0.71984375 0.98804688 0 1 C0 0.67 0 0.34 0 0 Z " fill="#EAE9E9" transform="translate(75,262)"/>
<path d="M0 0 C1.41623216 -0.05447047 2.83308191 -0.09300508 4.25 -0.125 C5.03890625 -0.14820313 5.8278125 -0.17140625 6.640625 -0.1953125 C9.20731941 0.0171622 10.7916067 0.71345895 13 2 C13 2.66 13 3.32 13 4 C6.07 3.505 6.07 3.505 -1 3 C-0.67 2.01 -0.34 1.02 0 0 Z " fill="#E9E8E8" transform="translate(65,242)"/>
<path d="M0 0 C0.66 0.33 1.32 0.66 2 1 C3.75179535 6.25538604 3.64761951 10.48888781 1.5 15.5 C0.7575 16.7375 0.7575 16.7375 0 18 C-1.125 14.25 -1.125 14.25 0 12 C0.07065617 9.95944995 0.08421976 7.91665743 0.0625 5.875 C0.05347656 4.77929688 0.04445312 3.68359375 0.03515625 2.5546875 C0.02355469 1.71164062 0.01195312 0.86859375 0 0 Z " fill="#D5D5D6" transform="translate(174,267)"/>
<path d="M0 0 C1.00016187 2.00032373 1.49396008 3.83125748 2 6 C3.98 6 5.96 6 8 6 C8.33 4.68 8.66 3.36 9 2 C9.042721 3.66611905 9.04063832 5.33382885 9 7 C8 8 8 8 5.71484375 8.09765625 C4.34005859 8.08025391 4.34005859 8.08025391 2.9375 8.0625 C2.01839844 8.05347656 1.09929687 8.04445312 0.15234375 8.03515625 C-0.55792969 8.02355469 -1.26820313 8.01195312 -2 8 C-3.34882814 5.30234372 -2.80338265 3.84835666 -2 1 C-1.34 0.67 -0.68 0.34 0 0 Z " fill="#D2D3D3" transform="translate(133,243)"/>
<path d="M0 0 C0 0.33 0 0.66 0 1 C-3.3 1 -6.6 1 -10 1 C-10 6.61 -10 12.22 -10 18 C-10.99 17.01 -11.98 16.02 -13 15 C-12.72265625 13.171875 -12.72265625 13.171875 -12 11 C-11.78351622 9.08639029 -11.59743032 7.16916379 -11.4375 5.25 C-11.35371094 4.26515625 -11.26992187 3.2803125 -11.18359375 2.265625 C-11.12300781 1.51796875 -11.06242188 0.7703125 -11 0 C-6.94952424 -1.35015859 -4.2079832 -0.62084998 0 0 Z " fill="#F8F8F8" transform="translate(185,242)"/>
<path d="M0 0 C0 2.64 0 5.28 0 8 C-1.32 8 -2.64 8 -4 8 C-4.33 9.98 -4.66 11.96 -5 14 C-5.33 14 -5.66 14 -6 14 C-6.49230769 7.6 -6.49230769 7.6 -4 4.5625 C-3.34 4.046875 -2.68 3.53125 -2 3 C-2.99 3.66 -3.98 4.32 -5 5 C-4.625 3.0625 -4.625 3.0625 -4 1 C-2 0 -2 0 0 0 Z " fill="#FBFBFB" transform="translate(191,280)"/>
<path d="M0 0 C0 3 0 3 -2.375 5.5 C-3.24125 6.325 -4.1075 7.15 -5 8 C-5.99 9.485 -5.99 9.485 -7 11 C-7.66 11 -8.32 11 -9 11 C-9.33 9.68 -9.66 8.36 -10 7 C-9.01 7 -8.02 7 -7 7 C-6.67 5.02 -6.34 3.04 -6 1 C-5.38125 1.20625 -4.7625 1.4125 -4.125 1.625 C-3.073125 1.810625 -3.073125 1.810625 -2 2 C-1.34 1.34 -0.68 0.68 0 0 Z " fill="#E1E1E1" transform="translate(56,63)"/>
<path d="M0 0 C3.71599191 -0.20086443 4.77208445 -0.1519437 8 2 C10.0492094 2.45139459 10.0492094 2.45139459 12.1875 2.625 C13.445625 2.74875 14.70375 2.8725 16 3 C16.33 3.99 16.66 4.98 17 6 C10.84431924 5.06898067 5.39154257 4.20578207 0 1 C0 0.67 0 0.34 0 0 Z " fill="#DADADA" transform="translate(93,291)"/>
<path d="M0 0 C2.475 0.495 2.475 0.495 5 1 C5 1.66 5 2.32 5 3 C11.93 3.495 11.93 3.495 19 4 C19 4.33 19 4.66 19 5 C16.5837428 5.27648714 14.17088623 5.52178337 11.75 5.75 C11.06808594 5.83121094 10.38617188 5.91242188 9.68359375 5.99609375 C6.1310147 6.30651328 4.41666534 6.31184387 1.515625 4.140625 C0 2 0 2 0 0 Z " fill="#CBCBCB" transform="translate(55,290)"/>
<path d="M0 0 C0.66 0 1.32 0 2 0 C3.3271261 3.9813783 3.06915913 7.85045227 3 12 C2.01 12.33 1.02 12.66 0 13 C0.50603992 10.83125748 0.99983813 9.00032373 2 7 C1.01 6.67 0.02 6.34 -1 6 C-0.67 4.02 -0.34 2.04 0 0 Z " fill="#FBFBFB" transform="translate(172,267)"/>
<path d="M0 0 C0.33 0 0.66 0 1 0 C1 3.3 1 6.6 1 10 C3.475 10.99 3.475 10.99 6 12 C5.01 12.495 5.01 12.495 4 13 C4 13.99 4 14.98 4 16 C3.34 15.67 2.68 15.34 2 15 C1.34 15.66 0.68 16.32 0 17 C0 11.39 0 5.78 0 0 Z " fill="#EAEAEA" transform="translate(183,257)"/>
<path d="M0 0 C0.33 0.99 0.66 1.98 1 3 C5.97906259 3.75427297 5.97906259 3.75427297 11 4 C11 4.66 11 5.32 11 6 C7.04 6 3.08 6 -1 6 C-1.33 4.68 -1.66 3.36 -2 2 C-1.34 1.34 -0.68 0.68 0 0 Z " fill="#FDFDFD" transform="translate(174,291)"/>
<path d="M0 0 C2.62187494 1.04874998 3.79371361 1.64931313 5.25 4.125 C5.4975 4.74375 5.745 5.3625 6 6 C5.01 6 4.02 6 3 6 C3.33 7.32 3.66 8.64 4 10 C1.525 9.01 1.525 9.01 -1 8 C-1 6 -1 6 0.5 4.375 C0.995 3.92125 1.49 3.4675 2 3 C1.34 2.01 0.68 1.02 0 0 Z " fill="#D8D8D8" transform="translate(170,257)"/>
<path d="M0 0 C0.66 0.33 1.32 0.66 2 1 C2 4.63 2 8.26 2 12 C1.01 11.67 0.02 11.34 -1 11 C-0.67 8.69 -0.34 6.38 0 4 C-0.66 3.67 -1.32 3.34 -2 3 C-1.34 2.01 -0.68 1.02 0 0 Z " fill="#FAFAFA" transform="translate(131,265)"/>
<path d="M0 0 C1.37553268 3.82092412 0.81309902 7.08234111 0 11 C-0.99 11.495 -0.99 11.495 -2 12 C-2.33 11.01 -2.66 10.02 -3 9 C-3.66 8.67 -4.32 8.34 -5 8 C-5 7.01 -5 6.02 -5 5 C-4.01 5 -3.02 5 -2 5 C-1.34 3.35 -0.68 1.7 0 0 Z " fill="#F0F0F0" transform="translate(188,122)"/>
<path d="M0 0 C0.33 0.99 0.66 1.98 1 3 C2.65 3 4.3 3 6 3 C6 3.66 6 4.32 6 5 C6.66 5.33 7.32 5.66 8 6 C0.25 6.125 0.25 6.125 -2 5 C-2 4.34 -2 3.68 -2 3 C-1.34 3 -0.68 3 0 3 C0 2.01 0 1.02 0 0 Z " fill="#E4E4E4" transform="translate(177,289)"/>
<path d="M0 0 C2.5 1 2.5 1 4 2 C1.39850359 3.70097842 0.15226623 4.01268885 -3 3.75 C-5.62200178 3.09449955 -7.67201752 2.34306681 -10 1 C-6.83013832 -0.58493084 -3.45967739 -0.2940042 0 0 Z " fill="#EAE9E8" transform="translate(73,249)"/>
<path d="M0 0 C0 0.99 0 1.98 0 3 C-1.32 3 -2.64 3 -4 3 C-3.67 3.99 -3.34 4.98 -3 6 C-5.475 5.01 -5.475 5.01 -8 4 C-7.67 3.01 -7.34 2.02 -7 1 C-4.53721199 -0.231394 -2.7204945 -0.07159196 0 0 Z " fill="#FDFDFD" transform="translate(102,268)"/>
<path d="M0 0 C1.77230751 0.7883609 3.54279534 1.58081347 5.3125 2.375 C6.29863281 2.81585938 7.28476563 3.25671875 8.30078125 3.7109375 C11 5 11 5 14 7 C8.7094723 7.66131596 5.84303382 6.04553852 1.5390625 3.2890625 C1.03117188 2.86367187 0.52328125 2.43828125 0 2 C0 1.34 0 0.68 0 0 Z " fill="#D4D3D4" transform="translate(127,176)"/>
<path d="M0 0 C1.98 0.99 1.98 0.99 4 2 C3.67 2.99 3.34 3.98 3 5 C3.27769908 7.3406065 3.60539977 9.67624308 4 12 C2 11 2 11 0.875 8.25 C0.08026605 5.29813104 -0.17810598 3.02780163 0 0 Z " fill="#DCDCDC" transform="translate(95,131)"/>
<path d="M0 0 C0.33 0 0.66 0 1 0 C1.33872513 1.41538717 1.67074624 2.83237963 2 4.25 C2.185625 5.03890625 2.37125 5.8278125 2.5625 6.640625 C3 9 3 9 3 13 C2.34 13 1.68 13 1 13 C-0.2834998 8.9088444 -1.38021934 5.3091525 -1 1 C-0.67 0.67 -0.34 0.34 0 0 Z " fill="#D5D5D6" transform="translate(90,112)"/>
<path d="M0 0 C0.33 0 0.66 0 1 0 C2.22159091 6.35227273 2.22159091 6.35227273 1.1875 9.375 C0 11 0 11 -2 12 C-2.28571429 3.42857143 -2.28571429 3.42857143 0 0 Z " fill="#CCCCCC" transform="translate(184,269)"/>
<path d="M0 0 C1.98 0 3.96 0 6 0 C5.04270084 1.12588014 4.08412105 2.2506715 3.125 3.375 C2.59132813 4.00148437 2.05765625 4.62796875 1.5078125 5.2734375 C0.38567993 6.55836651 -0.79371975 7.79371975 -2 9 C-2.33 8.01 -2.66 7.02 -3 6 C-1.5625 3.375 -1.5625 3.375 0 1 C0 0.67 0 0.34 0 0 Z " fill="#D8D8D8" transform="translate(54,245)"/>
<path d="M0 0 C1.98 0.99 1.98 0.99 4 2 C3.67 2.33 3.34 2.66 3 3 C3.08963062 4.69141656 3.24577676 6.37959602 3.4375 8.0625 C3.53933594 8.98160156 3.64117187 9.90070313 3.74609375 10.84765625 C3.82988281 11.55792969 3.91367188 12.26820313 4 13 C0 5.06722689 0 5.06722689 0 0 Z " fill="#D5D5D6" transform="translate(101,152)"/>
<path d="M0 0 C2.04219706 1.69179328 2.91793306 2.63727666 3.51171875 5.26171875 C3.56972656 6.06222656 3.62773437 6.86273438 3.6875 7.6875 C3.75324219 8.49574219 3.81898438 9.30398437 3.88671875 10.13671875 C3.92410156 10.75160156 3.96148437 11.36648437 4 12 C2 11 2 11 1.1484375 8.71484375 C0.89320313 7.79832031 0.63796875 6.88179688 0.375 5.9375 C0.11460937 5.01839844 -0.14578125 4.09929687 -0.4140625 3.15234375 C-0.60742188 2.44207031 -0.80078125 1.73179688 -1 1 C-0.67 0.67 -0.34 0.34 0 0 Z " fill="#DDDDDD" transform="translate(177,94)"/>
<path d="M0 0 C0.33 0.66 0.66 1.32 1 2 C1.66 2 2.32 2 3 2 C3.33 1.34 3.66 0.68 4 0 C5.32 1.65 6.64 3.3 8 5 C5.25 5.25 5.25 5.25 2 5 C-0.375 3 -0.375 3 -2 1 C-1.34 0.67 -0.68 0.34 0 0 Z " fill="#EEEDED" transform="translate(75,253)"/>
<path d="M0 0 C0.598125 0.20625 1.19625 0.4125 1.8125 0.625 C1.8125 1.615 1.8125 2.605 1.8125 3.625 C2.4725 3.955 3.1325 4.285 3.8125 4.625 C3.8125 5.285 3.8125 5.945 3.8125 6.625 C2.8225 6.625 1.8325 6.625 0.8125 6.625 C0.4825 5.635 0.1525 4.645 -0.1875 3.625 C-2.69197516 2.40630071 -2.69197516 2.40630071 -5.1875 1.625 C-2.1875 -0.375 -2.1875 -0.375 0 0 Z " fill="#EEEEED" transform="translate(141.1875,241.375)"/>
<path d="M0 0 C0.66 0 1.32 0 2 0 C2.66 2.64 3.32 5.28 4 8 C3.01 7.67 2.02 7.34 1 7 C1 6.01 1 5.02 1 4 C0.01 4 -0.98 4 -2 4 C-2 3.34 -2 2.68 -2 2 C-1.34 2 -0.68 2 0 2 C0 1.34 0 0.68 0 0 Z " fill="#E0E0E0" transform="translate(61,145)"/>
<path d="M0 0 C-0.66 1.32 -1.32 2.64 -2 4 C-4.9719385 2.87548273 -7.33440687 1.77706209 -10 0 C-6.30581799 -1.231394 -3.7943739 -0.64432764 0 0 Z " fill="#E8E7E8" transform="translate(222,257)"/>
<path d="M0 0 C2.18975773 3.28463659 2.99806563 6.20696275 4 10 C1 9 1 9 -0.25 7.25 C-1.17574966 4.47275102 -0.77341204 2.78428335 0 0 Z " fill="#D7D7D7" transform="translate(186,137)"/>
<path d="M0 0 C2 2 2 2 2.125 5.625 C2.08375 6.73875 2.0425 7.8525 2 9 C1.67 8.34 1.34 7.68 1 7 C0.01 7 -0.98 7 -2 7 C-1.125 1.125 -1.125 1.125 0 0 Z " fill="#FBFBFB" transform="translate(90,278)"/>
<path d="M0 0 C2.475 0.495 2.475 0.495 5 1 C4.67 3.31 4.34 5.62 4 8 C3.67 7.34 3.34 6.68 3 6 C2.01 5.67 1.02 5.34 0 5 C0 3.35 0 1.7 0 0 Z " fill="#EFEFEF" transform="translate(74,273)"/>
<path d="M0 0 C1.53166168 4.08443115 0.63081652 7.79455657 0 12 C-0.33 12 -0.66 12 -1 12 C-1 9.36 -1 6.72 -1 4 C-1.99 3.67 -2.98 3.34 -4 3 C-3 1 -3 1 0 0 Z " fill="#EFEFEE" transform="translate(47,78)"/>
<path d="M0 0 C-0.375 2.4375 -0.375 2.4375 -1 5 C-1.99 5.495 -1.99 5.495 -3 6 C-3 5.01 -3 4.02 -3 3 C-4.65 3.33 -6.3 3.66 -8 4 C-4.5 0 -4.5 0 0 0 Z " fill="#FBFBFB" transform="translate(214,277)"/>
<path d="M0 0 C0 0.33 0 0.66 0 1 C-6.625 3 -6.625 3 -10 3 C-9.67 2.01 -9.34 1.02 -9 0 C-5.93109813 -1.53445094 -3.29905734 -0.54984289 0 0 Z " fill="#D5D4D4" transform="translate(112,262)"/>
<path d="M0 0 C0.66 0 1.32 0 2 0 C2.33 2.97 2.66 5.94 3 9 C2.34 9 1.68 9 1 9 C-0.4783226 6.04335481 -0.06032783 3.25770263 0 0 Z " fill="#D5D5D5" transform="translate(50,255)"/>
<path d="M0 0 C2.1875 -0.375 2.1875 -0.375 5 0 C6.99022836 1.83961648 8.38989899 3.79186148 10 6 C9.67 6.66 9.34 7.32 9 8 C8.1646875 6.824375 8.1646875 6.824375 7.3125 5.625 C4.92331435 2.91295142 3.39926587 2.03866457 0 1 C0 0.67 0 0.34 0 0 Z " fill="#D7D8D8" transform="translate(178,160)"/>
<path d="M0 0 C-0.75 2.9375 -0.75 2.9375 -2 6 C-4.125 6.875 -4.125 6.875 -6 7 C-6 4 -6 4 -4.125 1.8125 C-2 0 -2 0 0 0 Z " fill="#E0E0E1" transform="translate(170,127)"/>
<path d="M0 0 C0.66 0.33 1.32 0.66 2 1 C2 2.32 2 3.64 2 5 C-0.31 4.67 -2.62 4.34 -5 4 C-3.35 2.68 -1.7 1.36 0 0 Z " fill="#E6E6E6" transform="translate(81,289)"/>
<path d="M0 0 C0.66 0.33 1.32 0.66 2 1 C2.1875 4.375 2.1875 4.375 2 8 C1.01 8.66 0.02 9.32 -1 10 C-0.67 6.7 -0.34 3.4 0 0 Z " fill="#DDDDDD" transform="translate(187,169)"/>
<path d="M0 0 C0.99 0.99 1.98 1.98 3 3 C2.67 3.99 2.34 4.98 2 6 C2.33 6.66 2.66 7.32 3 8 C2.01 7.67 1.02 7.34 0 7 C-0.38133299 5.0085944 -0.71325582 3.00720923 -1 1 C-0.67 0.67 -0.34 0.34 0 0 Z " fill="#E7E8E8" transform="translate(152,285)"/>
<path d="M0 0 C0 0.66 0 1.32 0 2 C-3.96 1.67 -7.92 1.34 -12 1 C-12 0.67 -12 0.34 -12 0 C-3.42857143 -1.28571429 -3.42857143 -1.28571429 0 0 Z " fill="#F0F1F1" transform="translate(223,160)"/>
<path d="M0 0 C2.5654594 2.5654594 2.54046087 4.47686668 3 8 C2.34 8 1.68 8 1 8 C-0.42944945 5.64561267 -1.08661261 4.51967567 -0.625 1.75 C-0.41875 1.1725 -0.2125 0.595 0 0 Z " fill="#DBDBDB" transform="translate(58,133)"/>
<path d="M0 0 C0 1.98 0 3.96 0 6 C-1.32 5.67 -2.64 5.34 -4 5 C-4 4.01 -4 3.02 -4 2 C-1 0 -1 0 0 0 Z " fill="#E4E4E4" transform="translate(186,130)"/>
<path d="M0 0 C0.66 0.33 1.32 0.66 2 1 C2 1.66 2 2.32 2 3 C2.99 3.33 3.98 3.66 5 4 C3.02 4.99 3.02 4.99 1 6 C0.01 4.68 -0.98 3.36 -2 2 C-1.34 2 -0.68 2 0 2 C0 1.34 0 0.68 0 0 Z " fill="#E5E5E5" transform="translate(53,286)"/>
<path d="M0 0 C1.98 1.65 3.96 3.3 6 5 C5.01 5.495 5.01 5.495 4 6 C3.67 6.99 3.34 7.98 3 9 C2.01 6.03 1.02 3.06 0 0 Z " fill="#CBCBCC" transform="translate(220,259)"/>
<path d="M0 0 C1.65 0.33 3.3 0.66 5 1 C4.01 1.66 3.02 2.32 2 3 C1.01 2.67 0.02 2.34 -1 2 C-0.67 1.34 -0.34 0.68 0 0 Z " fill="#FEFEFE" transform="translate(132,252)"/>
<path d="M0 0 C2.125 0.375 2.125 0.375 4 1 C4 1.33 4 1.66 4 2 C2.02 2 0.04 2 -2 2 C-1.34 1.34 -0.68 0.68 0 0 Z " fill="#FFFFFF" transform="translate(162,252)"/>
<path d="M0 0 C1.32 0 2.64 0 4 0 C4 0.66 4 1.32 4 2 C2.68 2 1.36 2 0 2 C0 1.34 0 0.68 0 0 Z " fill="#FEFEFE" transform="translate(127,67)"/>
<path d="M0 0 C0.99 0.33 1.98 0.66 3 1 C1.68 1.33 0.36 1.66 -1 2 C-0.67 1.34 -0.34 0.68 0 0 Z " fill="#FEFEFE" transform="translate(164,283)"/>
<path d="M0 0 C1.98 0 3.96 0 6 0 C6 0.33 6 0.66 6 1 C4.02 1 2.04 1 0 1 C0 0.67 0 0.34 0 0 Z " fill="#FEFEFE" transform="translate(106,253)"/>
<path d="M0 0 C1.98 0.99 1.98 0.99 4 2 C2.68 2 1.36 2 0 2 C0 1.34 0 0.68 0 0 Z " fill="#FEFEFE" transform="translate(78,241)"/>
<path d="M0 0 C2.475 0.495 2.475 0.495 5 1 C3.68 1.33 2.36 1.66 1 2 C0.67 1.34 0.34 0.68 0 0 Z " fill="#FEFEFE" transform="translate(133,183)"/>
<path d="M0 0 C0.99 0.33 1.98 0.66 3 1 C1.68 1.33 0.36 1.66 -1 2 C-0.67 1.34 -0.34 0.68 0 0 Z " fill="#FEFEFE" transform="translate(240,151)"/>
<path d="M0 0 C0.99 0.33 1.98 0.66 3 1 C1.02 1.99 1.02 1.99 -1 3 C-0.67 2.01 -0.34 1.02 0 0 Z " fill="#FEFEFE" transform="translate(112,60)"/>
<path d="M0 0 C2.475 0.495 2.475 0.495 5 1 C3.68 1.33 2.36 1.66 1 2 C0.67 1.34 0.34 0.68 0 0 Z " fill="#FEFEFE" transform="translate(102,59)"/>
<path d="M0 0 C0.66 0.66 1.32 1.32 2 2 C0.68 2.33 -0.64 2.66 -2 3 C-2 2.34 -2 1.68 -2 1 C-1.34 0.67 -0.68 0.34 0 0 Z " fill="#FFFFFF" transform="translate(55,58)"/>
<path d="M0 0 C1.65 0 3.3 0 5 0 C5 0.33 5 0.66 5 1 C3.35 1 1.7 1 0 1 C0 0.67 0 0.34 0 0 Z " fill="#FEFEFE" transform="translate(124,298)"/>
<path d="M0 0 C1.32 0 2.64 0 4 0 C3.67 0.66 3.34 1.32 3 2 C2.01 1.34 1.02 0.68 0 0 Z " fill="#FEFEFE" transform="translate(79,261)"/>
<path d="M0 0 C0 3 0 3 0 3 Z " fill="#FEFEFE" transform="translate(133,310)"/>
<path d="M0 0 C4 1 4 1 4 1 Z " fill="#FEFEFE" transform="translate(66,284)"/>
<path d="M0 0 C0.99 0.33 1.98 0.66 3 1 C2.01 1.33 1.02 1.66 0 2 C0 1.34 0 0.68 0 0 Z " fill="#FEFEFE" transform="translate(53,271)"/>
<path d="M0 0 C0.66 0.33 1.32 0.66 2 1 C1.01 1 0.02 1 -1 1 C-0.67 0.67 -0.34 0.34 0 0 Z " fill="#FEFEFE" transform="translate(53,154)"/>
<path d="M0 0 C0.66 0 1.32 0 2 0 C2 0.66 2 1.32 2 2 C1.34 2 0.68 2 0 2 C0 1.34 0 0.68 0 0 Z " fill="#FEFEFE" transform="translate(124,66)"/>
<path d="M0 0 C3 1 3 1 3 1 Z " fill="#FEFEFE" transform="translate(206,296)"/>
<path d="M0 0 C3 1 3 1 3 1 Z " fill="#FFFFFF" transform="translate(63,296)"/>
<path d="M0 0 C3 1 3 1 3 1 Z " fill="#FEFEFE" transform="translate(51,292)"/>
<path d="M0 0 C0.33 0.66 0.66 1.32 1 2 C0.34 1.67 -0.32 1.34 -1 1 C-0.67 0.67 -0.34 0.34 0 0 Z " fill="#FFFFFF" transform="translate(144,271)"/>
<path d="M0 0 C0.66 0 1.32 0 2 0 C1.67 0.66 1.34 1.32 1 2 C0.67 1.34 0.34 0.68 0 0 Z " fill="#FFFFFF" transform="translate(147,258)"/>
<path d="M0 0 C0.33 0.66 0.66 1.32 1 2 C0.34 1.67 -0.32 1.34 -1 1 C-0.67 0.67 -0.34 0.34 0 0 Z " fill="#FFFFFF" transform="translate(66,256)"/>
<path d="M0 0 C3 1 3 1 3 1 Z " fill="#FEFEFE" transform="translate(74,241)"/>
<path d="M0 0 C3 1 3 1 3 1 Z " fill="#FFFFFF" transform="translate(19,174)"/>
<path d="M0 0 C0.33 0.66 0.66 1.32 1 2 C0.34 1.67 -0.32 1.34 -1 1 C-0.67 0.67 -0.34 0.34 0 0 Z " fill="#FEFEFE" transform="translate(157,155)"/>
<path d="M0 0 C0.66 0 1.32 0 2 0 C1.67 0.66 1.34 1.32 1 2 C0.67 1.34 0.34 0.68 0 0 Z " fill="#FFFFFF" transform="translate(164,153)"/>
<path d="M0 0 C0.66 0 1.32 0 2 0 C1.67 0.66 1.34 1.32 1 2 C0.67 1.34 0.34 0.68 0 0 Z " fill="#FFFFFF" transform="translate(54,134)"/>
<path d="M0 0 C0.33 0.66 0.66 1.32 1 2 C0.34 1.67 -0.32 1.34 -1 1 C-0.67 0.67 -0.34 0.34 0 0 Z " fill="#FFFFFF" transform="translate(170,129)"/>
<path d="M0 0 C3 1 3 1 3 1 Z " fill="#FEFEFE" transform="translate(202,102)"/>
<path d="M0 0 C3 1 3 1 3 1 Z " fill="#FEFEFE" transform="translate(222,101)"/>
<path d="M0 0 C0.99 0.495 0.99 0.495 2 1 C1.01 1.495 1.01 1.495 0 2 C0 1.34 0 0.68 0 0 Z " fill="#FDFDFD" transform="translate(148,74)"/>
<path d="M0 0 C3 1 3 1 3 1 Z " fill="#FFFFFF" transform="translate(119,65)"/>
<path d="M0 0 C2 1 2 1 2 1 Z " fill="#FFFFFF" transform="translate(134,312)"/>
<path d="M0 0 C2 1 2 1 2 1 Z " fill="#FEFEFE" transform="translate(127,311)"/>
<path d="M0 0 C2 1 2 1 2 1 Z " fill="#FFFFFF" transform="translate(122,301)"/>
<path d="M0 0 C2 1 2 1 2 1 Z " fill="#FEFEFE" transform="translate(123,296)"/>
<path d="M0 0 C2 1 2 1 2 1 Z " fill="#FFFFFF" transform="translate(98,296)"/>
<path d="M0 0 C2 1 2 1 2 1 Z " fill="#FFFFFF" transform="translate(81,296)"/>
<path d="M0 0 C2 1 2 1 2 1 Z " fill="#FFFFFF" transform="translate(194,295)"/>
<path d="M0 0 C2 1 2 1 2 1 Z " fill="#FEFEFE" transform="translate(154,294)"/>
<path d="M0 0 C2 1 2 1 2 1 Z " fill="#FFFFFF" transform="translate(190,293)"/>
<path d="M0 0 C2 1 2 1 2 1 Z " fill="#FEFEFE" transform="translate(48,288)"/>
<path d="" fill="#FFFFFF" transform="translate(0,0)"/>
<path d="M0 0 C2 1 2 1 2 1 Z " fill="#FFFFFF" transform="translate(143,279)"/>
<path d="M0 0 C2 1 2 1 2 1 Z " fill="#FFFFFF" transform="translate(186,278)"/>
<path d="M0 0 C2 1 2 1 2 1 Z " fill="#FFFFFF" transform="translate(160,278)"/>
<path d="M0 0 C2 1 2 1 2 1 Z " fill="#FEFEFE" transform="translate(161,276)"/>
<path d="M0 0 C2 1 2 1 2 1 Z " fill="#FFFFFF" transform="translate(57,272)"/>
<path d="M0 0 C2 1 2 1 2 1 Z " fill="#FFFFFF" transform="translate(127,271)"/>
<path d="M0 0 C2 1 2 1 2 1 Z " fill="#FFFFFF" transform="translate(191,269)"/>
<path d="M0 0 C2 1 2 1 2 1 Z " fill="#FFFFFF" transform="translate(89,262)"/>
<path d="M0 0 C2 1 2 1 2 1 Z " fill="#FEFEFE" transform="translate(87,261)"/>
<path d="M0 0 C2 1 2 1 2 1 Z " fill="#FEFEFE" transform="translate(84,260)"/>
<path d="M0 0 C2 1 2 1 2 1 Z " fill="#FFFFFF" transform="translate(150,259)"/>
<path d="M0 0 C2 1 2 1 2 1 Z " fill="#FEFEFE" transform="translate(63,258)"/>
<path d="M0 0 C2 1 2 1 2 1 Z " fill="#FFFFFF" transform="translate(138,254)"/>
<path d="M0 0 C2 1 2 1 2 1 Z " fill="#FFFFFF" transform="translate(211,253)"/>
<path d="M0 0 C2 1 2 1 2 1 Z " fill="#FFFFFF" transform="translate(206,253)"/>
<path d="M0 0 C2 1 2 1 2 1 Z " fill="#FFFFFF" transform="translate(70,253)"/>
<path d="M0 0 C2 1 2 1 2 1 Z " fill="#FEFEFE" transform="translate(145,252)"/>
<path d="M0 0 C2 1 2 1 2 1 Z " fill="#FFFFFF" transform="translate(116,252)"/>
<path d="M0 0 C2 1 2 1 2 1 Z " fill="#FFFFFF" transform="translate(126,180)"/>
<path d="M0 0 C2 1 2 1 2 1 Z " fill="#FFFFFF" transform="translate(120,176)"/>
<path d="M0 0 C2 1 2 1 2 1 Z " fill="#FFFFFF" transform="translate(116,172)"/>
<path d="M0 0 C2 1 2 1 2 1 Z " fill="#FEFEFE" transform="translate(212,164)"/>
<path d="M0 0 C2 1 2 1 2 1 Z " fill="#FEFEFE" transform="translate(233,160)"/>
<path d="M0 0 C2 1 2 1 2 1 Z " fill="#FEFEFE" transform="translate(194,160)"/>
<path d="M0 0 C2 1 2 1 2 1 Z " fill="#FFFFFF" transform="translate(181,158)"/>
<path d="M0 0 C2 1 2 1 2 1 Z " fill="#FFFFFF" transform="translate(105,158)"/>
<path d="M0 0 C2 1 2 1 2 1 Z " fill="#FEFEFE" transform="translate(175,157)"/>
<path d="M0 0 C2 1 2 1 2 1 Z " fill="#FFFFFF" transform="translate(169,156)"/>
<path d="M0 0 C2 1 2 1 2 1 Z " fill="#FFFFFF" transform="translate(164,156)"/>
<path d="M0 0 C2 1 2 1 2 1 Z " fill="#FFFFFF" transform="translate(28,156)"/>
<path d="M0 0 C2 1 2 1 2 1 Z " fill="#FEFEFE" transform="translate(153,155)"/>
<path d="M0 0 C2 1 2 1 2 1 Z " fill="#FFFFFF" transform="translate(183,143)"/>
<path d="M0 0 C2 1 2 1 2 1 Z " fill="#FEFEFE" transform="translate(122,130)"/>
<path d="M0 0 C2 1 2 1 2 1 Z " fill="#FFFFFF" transform="translate(120,124)"/>
<path d="M0 0 C2 1 2 1 2 1 Z " fill="#FFFFFF" transform="translate(94,122)"/>
<path d="M0 0 C2 1 2 1 2 1 Z " fill="#FEFEFE" transform="translate(96,121)"/>
<path d="M0 0 C2 1 2 1 2 1 Z " fill="#FEFEFE" transform="translate(177,120)"/>
<path d="M0 0 C2 1 2 1 2 1 Z " fill="#FFFFFF" transform="translate(239,109)"/>
<path d="M0 0 C2 1 2 1 2 1 Z " fill="#FFFFFF" transform="translate(194,107)"/>
<path d="M0 0 C2 1 2 1 2 1 Z " fill="#FEFEFE" transform="translate(220,100)"/>
<path d="M0 0 C2 1 2 1 2 1 Z " fill="#FFFFFF" transform="translate(207,98)"/>
<path d="M0 0 C2 1 2 1 2 1 Z " fill="#FFFFFF" transform="translate(44,71)"/>
<path d="M0 0 C2 1 2 1 2 1 Z " fill="#FFFFFF" transform="translate(45,66)"/>
<path d="M0 0 C2 1 2 1 2 1 Z " fill="#FFFFFF" transform="translate(95,57)"/>
<path d="M0 0 C2 1 2 1 2 1 Z " fill="#FFFFFF" transform="translate(67,54)"/>
<path d="" fill="#FFFFFF" transform="translate(0,0)"/>
<path d="" fill="#FFFFFF" transform="translate(0,0)"/>
<path d="" fill="#FFFFFF" transform="translate(0,0)"/>
<path d="" fill="#FFFFFF" transform="translate(0,0)"/>
<path d="" fill="#FFFFFF" transform="translate(0,0)"/>
<path d="" fill="#FFFFFF" transform="translate(0,0)"/>
<path d="" fill="#FFFFFF" transform="translate(0,0)"/>
<path d="" fill="#FFFFFF" transform="translate(0,0)"/>
<path d="" fill="#FFFFFF" transform="translate(0,0)"/>
<path d="" fill="#FFFFFF" transform="translate(0,0)"/>
<path d="" fill="#FFFFFF" transform="translate(0,0)"/>
<path d="" fill="#FFFFFF" transform="translate(0,0)"/>
<path d="" fill="#FFFFFF" transform="translate(0,0)"/>
<path d="" fill="#FFFFFF" transform="translate(0,0)"/>
<path d="" fill="#FFFFFF" transform="translate(0,0)"/>
<path d="" fill="#FFFFFF" transform="translate(0,0)"/>
<path d="" fill="#FFFFFF" transform="translate(0,0)"/>
<path d="" fill="#FFFFFF" transform="translate(0,0)"/>
<path d="" fill="#FFFFFF" transform="translate(0,0)"/>
<path d="" fill="#FFFFFF" transform="translate(0,0)"/>
<path d="" fill="#FFFFFF" transform="translate(0,0)"/>
<path d="" fill="#FFFFFF" transform="translate(0,0)"/>
<path d="" fill="#FFFFFF" transform="translate(0,0)"/>
<path d="" fill="#FFFFFF" transform="translate(0,0)"/>
<path d="" fill="#FFFFFF" transform="translate(0,0)"/>
<path d="" fill="#FFFFFF" transform="translate(0,0)"/>
<path d="" fill="#FFFFFF" transform="translate(0,0)"/>
<path d="" fill="#FFFFFF" transform="translate(0,0)"/>
<path d="" fill="#FFFFFF" transform="translate(0,0)"/>
<path d="" fill="#FFFFFF" transform="translate(0,0)"/>
<path d="" fill="#FFFFFF" transform="translate(0,0)"/>
<path d="" fill="#FFFFFF" transform="translate(0,0)"/>
<path d="" fill="#FFFFFF" transform="translate(0,0)"/>
<path d="" fill="#FFFFFF" transform="translate(0,0)"/>
<path d="" fill="#FFFFFF" transform="translate(0,0)"/>
<path d="" fill="#FFFFFF" transform="translate(0,0)"/>
<path d="" fill="#FFFFFF" transform="translate(0,0)"/>
<path d="" fill="#FFFFFF" transform="translate(0,0)"/>
<path d="" fill="#FFFFFF" transform="translate(0,0)"/>
<path d="" fill="#FFFFFF" transform="translate(0,0)"/>
<path d="" fill="#FFFFFF" transform="translate(0,0)"/>
<path d="" fill="#FFFFFF" transform="translate(0,0)"/>
<path d="" fill="#FFFFFF" transform="translate(0,0)"/>
<path d="" fill="#FFFFFF" transform="translate(0,0)"/>
<path d="" fill="#FFFFFF" transform="translate(0,0)"/>
<path d="" fill="#FFFFFF" transform="translate(0,0)"/>
<path d="" fill="#FFFFFF" transform="translate(0,0)"/>
<path d="" fill="#FFFFFF" transform="translate(0,0)"/>
<path d="" fill="#FFFFFF" transform="translate(0,0)"/>
<path d="" fill="#FFFFFF" transform="translate(0,0)"/>
<path d="" fill="#FFFFFF" transform="translate(0,0)"/>
<path d="" fill="#FFFFFF" transform="translate(0,0)"/>
<path d="" fill="#FFFFFF" transform="translate(0,0)"/>
<path d="" fill="#FFFFFF" transform="translate(0,0)"/>
<path d="" fill="#FFFFFF" transform="translate(0,0)"/>
<path d="" fill="#FFFFFF" transform="translate(0,0)"/>
<path d="" fill="#FFFFFF" transform="translate(0,0)"/>
<path d="" fill="#FFFFFF" transform="translate(0,0)"/>
<path d="" fill="#FFFFFF" transform="translate(0,0)"/>
<path d="" fill="#FFFFFF" transform="translate(0,0)"/>
<path d="" fill="#FFFFFF" transform="translate(0,0)"/>
<path d="" fill="#FFFFFF" transform="translate(0,0)"/>
<path d="" fill="#FFFFFF" transform="translate(0,0)"/>
<path d="" fill="#FFFFFF" transform="translate(0,0)"/>
<path d="" fill="#FFFFFF" transform="translate(0,0)"/>
<path d="" fill="#FFFFFF" transform="translate(0,0)"/>
<path d="" fill="#FFFFFF" transform="translate(0,0)"/>
<path d="" fill="#FFFFFF" transform="translate(0,0)"/>
<path d="" fill="#FFFFFF" transform="translate(0,0)"/>
<path d="" fill="#FFFFFF" transform="translate(0,0)"/>
<path d="" fill="#FFFFFF" transform="translate(0,0)"/>
<path d="" fill="#FFFFFF" transform="translate(0,0)"/>
<path d="" fill="#FFFFFF" transform="translate(0,0)"/>
<path d="" fill="#FFFFFF" transform="translate(0,0)"/>
<path d="" fill="#FFFFFF" transform="translate(0,0)"/>
<path d="" fill="#FFFFFF" transform="translate(0,0)"/>
<path d="" fill="#FFFFFF" transform="translate(0,0)"/>
<path d="" fill="#FFFFFF" transform="translate(0,0)"/>
<path d="" fill="#FFFFFF" transform="translate(0,0)"/>
<path d="" fill="#FFFFFF" transform="translate(0,0)"/>
<path d="" fill="#FFFFFF" transform="translate(0,0)"/>
<path d="" fill="#FFFFFF" transform="translate(0,0)"/>
<path d="" fill="#FFFFFF" transform="translate(0,0)"/>
<path d="" fill="#FFFFFF" transform="translate(0,0)"/>
<path d="" fill="#FFFFFF" transform="translate(0,0)"/>
<path d="" fill="#FFFFFF" transform="translate(0,0)"/>
<path d="" fill="#FFFFFF" transform="translate(0,0)"/>
<path d="" fill="#FFFFFF" transform="translate(0,0)"/>
<path d="" fill="#FFFFFF" transform="translate(0,0)"/>
<path d="" fill="#FFFFFF" transform="translate(0,0)"/>
<path d="" fill="#FFFFFF" transform="translate(0,0)"/>
<path d="" fill="#FFFFFF" transform="translate(0,0)"/>
<path d="" fill="#FFFFFF" transform="translate(0,0)"/>
<path d="" fill="#FFFFFF" transform="translate(0,0)"/>
<path d="" fill="#FFFFFF" transform="translate(0,0)"/>
<path d="" fill="#FFFFFF" transform="translate(0,0)"/>
<path d="" fill="#FFFFFF" transform="translate(0,0)"/>
<path d="" fill="#FFFFFF" transform="translate(0,0)"/>
<path d="" fill="#FFFFFF" transform="translate(0,0)"/>
<path d="" fill="#FFFFFF" transform="translate(0,0)"/>
<path d="" fill="#FFFFFF" transform="translate(0,0)"/>
<path d="" fill="#FFFFFF" transform="translate(0,0)"/>
<path d="" fill="#FFFFFF" transform="translate(0,0)"/>
<path d="" fill="#FFFFFF" transform="translate(0,0)"/>
<path d="" fill="#FFFFFF" transform="translate(0,0)"/>
<path d="" fill="#FFFFFF" transform="translate(0,0)"/>
<path d="" fill="#FFFFFF" transform="translate(0,0)"/>
<path d="" fill="#FFFFFF" transform="translate(0,0)"/>
<path d="" fill="#FFFFFF" transform="translate(0,0)"/>
<path d="" fill="#FFFFFF" transform="translate(0,0)"/>
<path d="" fill="#FFFFFF" transform="translate(0,0)"/>
<path d="" fill="#FFFFFF" transform="translate(0,0)"/>
<path d="" fill="#FFFFFF" transform="translate(0,0)"/>
<path d="" fill="#FFFFFF" transform="translate(0,0)"/>
<path d="" fill="#FFFFFF" transform="translate(0,0)"/>
<path d="" fill="#FFFFFF" transform="translate(0,0)"/>
<path d="" fill="#FFFFFF" transform="translate(0,0)"/>
<path d="" fill="#FFFFFF" transform="translate(0,0)"/>
<path d="" fill="#FFFFFF" transform="translate(0,0)"/>
<path d="" fill="#FFFFFF" transform="translate(0,0)"/>
<path d="" fill="#FFFFFF" transform="translate(0,0)"/>
</svg>
